<svg width="115" height="115" viewBox="0 0 115 115" fill="none" xmlns="http://www.w3.org/2000/svg">
<rect width="115" height="115" rx="57.5" fill="white"/>
<path d="M38.7308 61.6169C38.7603 61.5975 38.7833 61.5696 38.7965 61.5368C38.8591 61.3809 38.6854 61.2396 38.5474 61.3356C36.4174 62.8173 34.5964 64.7278 33.1945 66.9546L32.9003 67.4264C32.7851 67.6111 32.5636 67.7001 32.3527 67.6464L29.709 66.9732C29.6603 66.9608 29.6137 66.9411 29.5708 66.9148L23.8328 63.3917C23.568 63.2291 23.2204 63.345 23.1062 63.634L22.1745 65.9917C22.0767 66.2391 22.1898 66.5198 22.4318 66.6303L31.5842 70.8088C31.8469 70.9288 32.156 70.8017 32.2624 70.5333C33.6705 66.9819 35.5981 63.6764 38.7308 61.6169Z" fill="#4C8674"/>
<path d="M34.9995 54.9332C35.0356 54.9631 35.0761 54.9873 35.1196 55.005L39.6093 56.8409C39.865 56.9455 40.157 56.8228 40.2614 56.567L44.811 45.4193C44.9154 45.1636 44.7927 44.8717 44.5369 44.7674L33.385 40.2191C33.1293 40.1148 32.8374 40.2376 32.7332 40.4934L28.1887 51.6415C28.0845 51.8971 28.2071 52.1888 28.4627 52.2931L34.4586 54.7402L34.8289 54.844C34.8913 54.8615 34.9494 54.8919 34.9995 54.9332Z" fill="#D1493F"/>
<path d="M18.8643 34.0825L14.0377 45.9377C14.0169 45.9888 14.0414 46.0472 14.0926 46.0681L25.9414 50.9101C25.9925 50.931 26.0509 50.9065 26.0717 50.8553L30.8983 39.0002C30.9191 38.949 30.8945 38.8906 30.8434 38.8698L18.9946 34.0277C18.9434 34.0068 18.8851 34.0314 18.8643 34.0825Z" fill="#D1493F"/>
<path d="M38.7135 26.453L34.1885 37.5672C34.0844 37.8229 34.2072 38.115 34.4628 38.2194L45.5711 42.7588C45.8267 42.8633 46.1184 42.7406 46.2225 42.4849L50.7474 31.3707C50.8515 31.1149 50.7287 30.8229 50.4731 30.7184L39.3648 26.179C39.1092 26.0746 38.8176 26.1972 38.7135 26.453Z" fill="#D1493F"/>
<path d="M24.7135 20.453L20.1885 31.5672C20.0844 31.8229 20.2072 32.115 20.4628 32.2194L31.5711 36.7588C31.8267 36.8633 32.1184 36.7406 32.2225 36.4849L36.7474 25.3707C36.8515 25.1149 36.7287 24.8229 36.4731 24.7184L25.3648 20.179C25.1092 20.0746 24.8176 20.1972 24.7135 20.453Z" fill="#D1493F"/>
<path d="M14.289 49.0382C14.4058 48.7778 14.2814 48.4727 14.0159 48.3682L13.559 48.1885C13.3066 48.0892 13.0211 48.2092 12.9154 48.459L8.19964 59.6103C8.09019 59.8691 8.21544 60.1673 8.47688 60.2703L20.0543 64.8314C20.3066 64.9308 20.5921 64.8109 20.6979 64.5612L21.827 61.8968C21.9257 61.6639 21.8349 61.3939 21.6155 61.268L11.8178 55.6466C11.5949 55.5187 11.5052 55.2427 11.6104 55.0082L14.289 49.0382Z" fill="#4C8674"/>
<path d="M101.936 55.5285H99.219C99.1638 55.5285 99.119 55.4838 99.119 55.4285V30.51C99.119 30.2339 98.8952 30.01 98.619 30.01H61.9671C61.7676 30.01 61.5871 30.1287 61.5081 30.3119L49.2539 58.7107C49.125 59.0095 49.3115 59.3497 49.6324 59.4043C52.2912 59.8568 54.7338 60.4267 56.9945 61.9441C59.4334 63.581 60.571 65.3387 62.0958 67.8384C63.6206 70.3381 64.5059 71.9884 64.8368 74.892C65.1423 77.5724 64.8924 80.3233 64.1255 82.913C64.0302 83.2349 64.262 83.5654 64.5976 83.5742L80.7772 83.9968C81.0555 84.0041 81.2855 83.7816 81.2947 83.5034C81.3979 80.3937 82.0542 78.5667 84.3284 76.2265C86.7233 73.762 88.1922 73.1502 91.6376 72.977C95.0831 72.8039 97.1509 73.1834 99.7845 75.3952C102.174 77.4022 102.47 80.0595 102.801 83.0755C102.845 83.4737 103.302 83.6446 103.59 83.3661C104.638 82.3517 106.468 80.5169 106.642 80.1471C106.87 79.6603 106.992 79.1311 107 78.5941V59.714C106.971 57.404 104.719 55.5285 101.936 55.5285ZM94.954 55.4286C94.9539 55.4838 94.9092 55.5285 94.854 55.5285H67.9523C67.4074 55.5299 66.8653 55.6056 66.3412 55.7534C66.3323 55.756 66.3231 55.7573 66.3138 55.7573H56.4661C56.3961 55.7573 56.3477 55.6871 56.3727 55.6216L64.5288 34.2198C64.5436 34.181 64.5808 34.1554 64.6223 34.1554H94.8768C94.9321 34.1554 94.9769 34.2003 94.9768 34.2555L94.954 55.4286Z" fill="#4C8674"/>
<path d="M37.4117 59.1159C37.6972 58.9268 37.7265 58.5136 37.463 58.2949L34.238 55.6184C34.1851 55.5745 34.1237 55.542 34.0577 55.5229L15.4374 50.1323C15.1959 50.0624 14.94 50.1827 14.8398 50.4133L13.1756 54.244C13.0752 54.475 13.1623 54.7445 13.3789 54.8731L30.0604 64.7803C30.1198 64.8156 30.1859 64.8382 30.2545 64.8466L31.2684 64.9717C31.4585 64.9951 31.6449 64.9076 31.7514 64.7484C33.247 62.5143 35.1713 60.6001 37.4117 59.1159Z" fill="#4C8674"/>
<path d="M43.1562 60.6622C43.3344 60.6433 43.4906 60.5331 43.5651 60.3701L57.7813 29.2695C57.9003 29.0093 57.7771 28.7026 57.5112 28.5969L56.4761 28.1857C56.2284 28.0873 55.947 28.2005 55.8365 28.4431L41.4136 60.1022C41.2429 60.4767 41.5736 60.8897 41.9796 60.8223C42.3701 60.7574 42.7624 60.704 43.1562 60.6622Z" fill="#4C8674"/>
<path d="M10.1731 67.5853C10.0763 67.8351 10.1935 68.1167 10.4389 68.2241L29.8683 76.7248C30.1856 76.8637 30.5448 76.6457 30.5791 76.3011C30.6531 75.5587 30.7648 74.821 30.9138 74.0911C30.9616 73.8566 30.8418 73.6189 30.6225 73.523L11.6493 65.2193C11.3886 65.1052 11.0854 65.2313 10.9826 65.4966L10.1731 67.5853Z" fill="#4C8674"/>
<path d="M47.999 58.01C44.6131 58.0083 41.296 58.9925 38.4319 60.8485C35.167 62.9657 32.644 66.0978 31.2297 69.7896C29.8327 73.472 29.6199 77.5174 30.6225 81.3332C31.6251 85.1489 33.7903 88.5343 36.8009 90.9933C39.8116 93.4524 43.5093 94.8558 47.3524 94.998C51.1955 95.1402 54.9819 94.0137 58.1567 91.7835C61.3316 89.5533 63.7281 86.3367 64.9951 82.605C66.262 78.8732 66.3328 74.8226 65.1971 71.0465C64.0614 67.2704 61.7789 63.9673 58.684 61.6214C55.5892 59.2754 51.8446 58.0098 47.999 58.01ZM47.999 85.4511C46.2784 85.4511 44.5965 84.9267 43.1659 83.9443C41.7353 82.9618 40.6202 81.5654 39.9618 79.9316C39.3034 78.2979 39.1311 76.5001 39.4668 74.7657C39.8024 73.0313 40.631 71.4381 41.8476 70.1877C43.0642 68.9373 44.6143 68.0857 46.3018 67.7407C47.9894 67.3957 49.7385 67.5728 51.3282 68.2495C52.9178 68.9263 54.2764 70.0723 55.2323 71.5426C56.1882 73.013 56.6985 74.7416 56.6985 76.51C56.6955 78.8804 55.7779 81.1528 54.1471 82.8289C52.5163 84.505 50.3053 85.448 47.999 85.4511Z" fill="#D1493F"/>
<path d="M92.5288 72.01C90.2518 72.0043 88.0245 72.6747 86.1289 73.9361C84.2333 75.1976 82.7549 76.9933 81.8809 79.0958C81.0069 81.1984 80.7768 83.513 81.2196 85.7465C81.6624 87.9799 82.7582 90.0317 84.3683 91.6417C85.9783 93.2518 88.03 94.3476 90.2635 94.7904C92.497 95.2332 94.8116 95.0031 96.9141 94.1291C99.0167 93.2551 100.812 91.7767 102.074 89.8811C103.335 87.9855 104.006 85.7581 104 83.4812C103.985 80.4435 102.771 77.5346 100.623 75.3866C98.4754 73.2386 95.5665 72.0252 92.5288 72.01ZM92.5288 89.6001C92.5288 89.6081 92.5223 89.6146 92.5143 89.6145C91.312 89.6117 90.1372 89.2538 89.1373 88.5857C88.1334 87.915 87.351 86.9616 86.889 85.8461C86.4269 84.7307 86.306 83.5033 86.5416 82.3191C86.7771 81.135 87.3585 80.0472 88.2122 79.1935C89.066 78.3398 90.1537 77.7584 91.3379 77.5228C92.522 77.2873 93.7494 77.4082 94.8649 77.8702C95.9803 78.3322 96.9337 79.1147 97.6045 80.1186C98.2752 81.1224 98.6333 82.3027 98.6333 83.51C98.6242 85.1236 97.9772 86.668 96.8335 87.8063C95.6933 88.9412 94.1516 89.5804 92.5432 89.5857C92.5352 89.5857 92.5288 89.5922 92.5288 89.6001Z" fill="#D1493F"/>
</svg>
