<svg width="115" height="116" viewBox="0 0 115 116" fill="none" xmlns="http://www.w3.org/2000/svg">
<rect y="0.5" width="115" height="115" rx="57.5" fill="white"/>
<path fill-rule="evenodd" clip-rule="evenodd" d="M86.1281 56.2162C86.0494 56.8355 86.3979 57.4362 86.9848 57.649L90.2668 58.8387C90.9403 59.0828 91.2878 59.8272 91.0424 60.5003L88.4063 67.7299C88.1603 68.4047 87.4121 68.7505 86.7386 68.5006L83.6088 67.339C83.0122 67.1176 82.3459 67.3641 82.0121 67.9058C81.2583 69.1291 80.4194 70.286 79.4955 71.3764C79.0946 71.8496 79.0569 72.5377 79.4266 73.0357L81.4186 75.7192C81.8442 76.2926 81.7255 77.1023 81.1532 77.5294L75.0238 82.1042C74.4484 82.5336 73.6336 82.4132 73.207 81.8357L71.3013 79.256C70.9236 78.7446 70.2319 78.5858 69.6569 78.8569C67.7689 79.747 65.7801 80.4466 63.7164 80.877C63.0933 81.007 62.6301 81.5454 62.6301 82.1819V85.3921C62.6301 86.1075 62.0501 86.6875 61.3347 86.6875H53.6653C52.9499 86.6875 52.3699 86.1075 52.3699 85.3921V82.1658C52.3699 81.5364 51.9168 81.0014 51.3015 80.8694C49.1086 80.3991 46.9969 79.6737 45.0211 78.6932C44.4469 78.4082 43.7448 78.5516 43.3546 79.0603L41.3665 81.6519C40.9282 82.2233 40.1079 82.3275 39.5407 81.8838L33.5015 77.1604C32.9417 76.7225 32.8392 75.9154 33.2718 75.3515L35.3064 72.6993C35.6826 72.2089 35.6574 71.5231 35.2675 71.0435C33.8736 69.3295 32.6672 67.4404 31.6759 65.4318C31.3957 64.8642 30.7596 64.5577 30.1475 64.7186L26.8252 65.5918C26.1304 65.7744 25.4197 65.3568 25.2412 64.661L23.321 57.1786C23.1436 56.4872 23.559 55.7824 24.2499 55.6029L27.6696 54.7142C28.2717 54.5577 28.674 53.9955 28.6553 53.3737C28.6472 53.1032 28.6431 52.8367 28.6431 52.5744C28.6431 51.1043 28.7513 49.6613 28.9676 48.2456C29.0637 47.6166 28.7166 46.9968 28.119 46.7783L24.7285 45.5385C24.057 45.293 23.7114 44.5498 23.9563 43.8781L26.5946 36.6426C26.8403 35.9687 27.5868 35.6228 28.2598 35.8709L31.8238 37.1851C32.3992 37.3972 33.0424 37.1755 33.3809 36.6642C34.1218 35.5452 34.922 34.4629 35.7992 33.4534C36.2118 32.9785 36.2579 32.2793 35.8838 31.7735L33.5781 28.6553C33.1541 28.0819 33.2733 27.2736 33.8449 26.847L39.9853 22.2641C40.5571 21.8373 41.3664 21.9533 41.7953 22.5235L44.1597 25.6669C44.5331 26.1633 45.2051 26.3221 45.7712 26.0665C47.5305 25.2721 49.3628 24.6293 51.2931 24.2134C51.9117 24.0801 52.3699 23.5436 52.3699 22.9108V18.9829C52.3699 18.2675 52.9499 17.6875 53.6653 17.6875H61.3347C62.0501 17.6875 62.6301 18.2675 62.6301 18.9829V22.9271C62.6301 23.5527 63.0779 24.0859 63.6889 24.2203C65.7568 24.6753 67.7454 25.3432 69.602 26.2242C70.1736 26.4955 70.8634 26.3474 71.2478 25.8449L73.6369 22.7217C74.0737 22.1506 74.8919 22.0445 75.4599 22.4853L81.5526 27.2131C82.1168 27.6509 82.2202 28.4628 81.7838 29.0281L79.4516 32.0491C79.0686 32.5452 79.0982 33.2425 79.5014 33.7223C80.8798 35.3626 82.0742 37.1428 83.0576 39.0359C83.3451 39.5893 83.9726 39.8849 84.5759 39.7267L88.1752 38.7824C88.8699 38.6002 89.5802 39.0178 89.7587 39.7134L91.6781 47.193C91.8559 47.8858 91.4385 48.5916 90.7458 48.7696L87.3052 49.6538C86.6859 49.813 86.2787 50.4002 86.3145 51.0387C86.3428 51.5435 86.3569 52.0554 86.3569 52.5744C86.3569 53.8011 86.2806 55.0151 86.1281 56.2162ZM77.1868 52.1875C77.1868 41.2894 68.3374 32.4548 57.5 32.4548C46.6626 32.4548 37.8773 41.2894 37.8773 52.1875C37.8773 63.0856 46.6626 71.9202 57.5 71.9202C68.3374 71.9202 77.1868 63.0856 77.1868 52.1875Z" fill="#D1493F"/>
<path fill-rule="evenodd" clip-rule="evenodd" d="M64 52.4426C64 51.922 64.422 51.5 64.9426 51.5H92.0574C92.578 51.5 93 51.922 93 52.4426V96.5574C93 97.078 92.578 97.5 92.0574 97.5L66 97.5H51.4062C51.1819 97.5 51 97.6819 51 97.9062C51 98.1306 50.8181 98.3125 50.5938 98.3125H22.9426C22.422 98.3125 22 97.8905 22 97.3699V53.2551C22 52.7345 22.422 52.3125 22.9426 52.3125H50.0574C50.578 52.3125 51 52.7345 51 53.2551V67.5574C51 68.078 51.422 68.5 51.9426 68.5H63.0574C63.578 68.5 64 68.078 64 67.5574V52.4426Z" fill="#C9CBC8"/>
<path d="M52 81.7828C52 81.6266 52.1266 81.5 52.2828 81.5H61.7172C61.8734 81.5 62 81.6266 62 81.7828V96.5H52V81.7828Z" fill="#005339"/>
<rect x="25" y="57.5" width="5" height="5" fill="#555555"/>
<rect x="34" y="57.5" width="5" height="5" fill="#555555"/>
<rect x="42" y="57.5" width="5" height="5" fill="#555555"/>
<rect x="25" y="67.5" width="5" height="5" fill="#555555"/>
<rect x="34" y="67.5" width="5" height="5" fill="#555555"/>
<rect x="42" y="67.5" width="5" height="5" fill="#555555"/>
<rect x="25" y="76.5" width="5" height="5" fill="#555555"/>
<rect x="34" y="76.5" width="5" height="5" fill="#555555"/>
<rect x="42" y="76.5" width="5" height="5" fill="#555555"/>
<rect x="25" y="86.5" width="5" height="5" fill="#555555"/>
<rect x="34" y="86.5" width="5" height="5" fill="#555555"/>
<rect x="42" y="86.5" width="5" height="5" fill="#555555"/>
<rect x="67" y="57.5" width="5" height="5" fill="#555555"/>
<rect x="76" y="57.5" width="5" height="5" fill="#555555"/>
<rect x="84" y="57.5" width="5" height="5" fill="#555555"/>
<rect x="67" y="67.5" width="5" height="5" fill="#555555"/>
<rect x="76" y="67.5" width="5" height="5" fill="#555555"/>
<rect x="84" y="67.5" width="5" height="5" fill="#555555"/>
<rect x="67" y="76.5" width="5" height="5" fill="#555555"/>
<rect x="76" y="76.5" width="5" height="5" fill="#555555"/>
<rect x="84" y="76.5" width="5" height="5" fill="#555555"/>
<rect x="67" y="86.5" width="5" height="5" fill="#555555"/>
<rect x="76" y="86.5" width="5" height="5" fill="#555555"/>
<rect x="84" y="86.5" width="5" height="5" fill="#555555"/>
<rect x="25" y="57.5" width="5" height="5" fill="#F9E6B8"/>
<rect x="34" y="57.5" width="5" height="5" fill="#F9E6B8"/>
<rect x="42" y="57.5" width="5" height="5" fill="#F9E6B8"/>
<rect x="25" y="67.5" width="5" height="5" fill="#F9E6B8"/>
<rect x="34" y="67.5" width="5" height="5" fill="#F9E6B8"/>
<rect x="42" y="67.5" width="5" height="5" fill="#F9E6B8"/>
<rect x="25" y="76.5" width="5" height="5" fill="#F9E6B8"/>
<rect x="34" y="76.5" width="5" height="5" fill="#F9E6B8"/>
<rect x="42" y="76.5" width="5" height="5" fill="#F9E6B8"/>
<rect x="25" y="86.5" width="5" height="5" fill="#F9E6B8"/>
<rect x="34" y="86.5" width="5" height="5" fill="#F9E6B8"/>
<rect x="42" y="86.5" width="5" height="5" fill="#F9E6B8"/>
<rect x="67" y="57.5" width="5" height="5" fill="#F9E6B8"/>
<rect x="76" y="57.5" width="5" height="5" fill="#F9E6B8"/>
<rect x="84" y="57.5" width="5" height="5" fill="#F9E6B8"/>
<rect x="67" y="67.5" width="5" height="5" fill="#F9E6B8"/>
<rect x="76" y="67.5" width="5" height="5" fill="#F9E6B8"/>
<rect x="84" y="67.5" width="5" height="5" fill="#F9E6B8"/>
<rect x="67" y="76.5" width="5" height="5" fill="#F9E6B8"/>
<rect x="76" y="76.5" width="5" height="5" fill="#F9E6B8"/>
<rect x="84" y="76.5" width="5" height="5" fill="#F9E6B8"/>
<rect x="67" y="86.5" width="5" height="5" fill="#F9E6B8"/>
<rect x="76" y="86.5" width="5" height="5" fill="#F9E6B8"/>
<rect x="84" y="86.5" width="5" height="5" fill="#F9E6B8"/>
</svg>
