<svg width="115" height="116" viewBox="0 0 115 116" fill="none" xmlns="http://www.w3.org/2000/svg">
<g clip-path="url(#clip0_1283_8941)">
<rect y="0.5" width="115" height="115" rx="57.5" fill="white"/>
<path d="M86 84.5H84V101.5H86V84.5Z" fill="#C9CBC8"/>
<path d="M86.1589 85.4226V101.577H84.8411V85.4226H86.1589ZM87 84.5H86.1589H84.8411H84V85.4226V101.577V102.5H84.8411H86.1589H87V101.577V85.4226V84.5Z" fill="#5A5F61"/>
<path d="M33 84.5H31V101.5H33V84.5Z" fill="#C9CBC8"/>
<path d="M33.1588 85.4226V101.577H31.8412V85.4226H33.1588ZM34 84.5H33.1588H31.8412H31V85.4226V101.577V102.5H31.8412H33.1588H34V101.577V85.4226V84.5Z" fill="#5A5F61"/>
<path d="M22 101.5V100.449C22 99.9257 22.4683 99.5 23.0442 99.5H92.9564C93.5317 99.5 94 99.9257 94 100.449V101.5H22Z" fill="#C9CBC8"/>
<path d="M93.4931 100.387C93.815 100.387 94.0753 100.638 94.0753 100.947V101.613H22.9247V100.947C22.9247 100.638 23.1859 100.387 23.5075 100.387H93.4931ZM93.4931 99.5H23.5078C22.6767 99.5 22 100.149 22 100.947V101.613V102.5H22.9247H94.0756H95V101.613V100.947C95 100.149 94.3243 99.5 93.4931 99.5Z" fill="#5A5F61"/>
<path d="M1018.87 84.0002C1018.87 85.8931 1017.39 87.3746 1015.62 87.3746L3.37549 87.3747C1.61044 87.3747 0.125288 85.8935 0.125288 84.0004C0.125288 82.106 1.61044 80.6254 3.37549 80.6254L1015.62 80.6253C1017.39 80.6251 1018.87 82.1057 1018.87 84.0002Z" fill="#5A5F61" stroke="#5A5F61" stroke-width="2.25058"/>
<path d="M2.90025 88.3747C0.286028 88.3747 -1.87471 86.2049 -1.87471 83.501C-1.87471 80.7957 0.286376 78.6253 2.90025 78.6253H1015.1C1017.71 78.6253 1019.87 80.7959 1019.87 83.501C1019.87 86.2047 1017.71 88.3747 1015.1 88.3747H2.90025ZM2.90025 79.4538C0.677036 79.4538 -1.09821 81.2859 -1.09821 83.501C-1.09821 85.7154 0.677039 87.5469 2.90025 87.5469H1015.1C1017.32 87.5469 1019.1 85.7153 1019.1 83.501C1019.1 81.2865 1017.32 79.4538 1015.1 79.4538H2.90025Z" fill="#C9CBC8" stroke="#5A5F61" stroke-width="2.25058"/>
<mask id="path-10-inside-1_1283_8941" fill="white">
<path d="M1014.64 78.4413C1017.64 78.4413 1020.08 80.9354 1020.08 84.001C1020.08 87.0649 1017.64 89.5587 1014.64 89.5587H3.35455C0.358363 89.5587 -2.0797 87.0649 -2.0797 84.001C-2.0797 80.9354 0.358363 78.4413 3.35455 78.4413H1014.64ZM3.35455 87.4063H1014.64C1016.48 87.4063 1017.97 85.8781 1017.97 84.001C1017.97 82.1225 1016.48 80.5943 1014.64 80.5943H3.35455C1.51834 80.5943 0.0243039 82.1225 0.0243039 84.001C0.0243039 85.8781 1.51834 87.4063 3.35455 87.4063ZM1014.64 77.5H3.35455C-0.149439 77.5 -3 80.4163 -3 84.001C-3 87.5843 -0.149439 90.5 3.35455 90.5H1014.64C1018.15 90.5 1021 87.5843 1021 84.001C1021 80.4163 1018.15 77.5 1014.64 77.5ZM3.35455 86.4653C2.02552 86.4653 0.944599 85.3597 0.944599 84.001C0.944599 82.6416 2.02552 81.5353 3.35455 81.5353H1014.64C1015.97 81.5353 1017.05 82.6416 1017.05 84.001C1017.05 85.3597 1015.97 86.4653 1014.64 86.4653H3.35455Z"/>
</mask>
<path d="M1014.64 78.4413C1017.64 78.4413 1020.08 80.9354 1020.08 84.001C1020.08 87.0649 1017.64 89.5587 1014.64 89.5587H3.35455C0.358363 89.5587 -2.0797 87.0649 -2.0797 84.001C-2.0797 80.9354 0.358363 78.4413 3.35455 78.4413H1014.64ZM3.35455 87.4063H1014.64C1016.48 87.4063 1017.97 85.8781 1017.97 84.001C1017.97 82.1225 1016.48 80.5943 1014.64 80.5943H3.35455C1.51834 80.5943 0.0243039 82.1225 0.0243039 84.001C0.0243039 85.8781 1.51834 87.4063 3.35455 87.4063ZM1014.64 77.5H3.35455C-0.149439 77.5 -3 80.4163 -3 84.001C-3 87.5843 -0.149439 90.5 3.35455 90.5H1014.64C1018.15 90.5 1021 87.5843 1021 84.001C1021 80.4163 1018.15 77.5 1014.64 77.5ZM3.35455 86.4653C2.02552 86.4653 0.944599 85.3597 0.944599 84.001C0.944599 82.6416 2.02552 81.5353 3.35455 81.5353H1014.64C1015.97 81.5353 1017.05 82.6416 1017.05 84.001C1017.05 85.3597 1015.97 86.4653 1014.64 86.4653H3.35455Z" fill="#5A5F61"/>
<path d="M1014.64 80.6919C1016.35 80.6919 1017.83 82.13 1017.83 84.001H1022.33C1022.33 79.7407 1018.93 76.1907 1014.64 76.1907V80.6919ZM1017.83 84.001C1017.83 85.8696 1016.35 87.3081 1014.64 87.3081V91.8093C1018.93 91.8093 1022.33 88.2603 1022.33 84.001H1017.83ZM1014.64 87.3081H3.35455V91.8093H1014.64V87.3081ZM3.35455 87.3081C1.6488 87.3081 0.170871 85.87 0.170871 84.001H-4.33028C-4.33028 88.2599 -0.932072 91.8093 3.35455 91.8093V87.3081ZM0.170871 84.001C0.170871 82.1297 1.64938 80.6919 3.35455 80.6919V76.1907C-0.932657 76.1907 -4.33028 79.741 -4.33028 84.001H0.170871ZM3.35455 80.6919H1014.64V76.1907H3.35455V80.6919ZM3.35455 89.6569H1014.64V85.1557H3.35455V89.6569ZM1014.64 89.6569C1017.77 89.6569 1020.22 87.0729 1020.22 84.001H1015.72C1015.72 84.6834 1015.19 85.1557 1014.64 85.1557V89.6569ZM1020.22 84.001C1020.22 80.9283 1017.77 78.3438 1014.64 78.3438V82.8449C1015.19 82.8449 1015.72 83.3167 1015.72 84.001H1020.22ZM1014.64 78.3438H3.35455V82.8449H1014.64V78.3438ZM3.35455 78.3438C0.22761 78.3438 -2.22627 80.9278 -2.22627 84.001H2.27488C2.27488 83.3171 2.80907 82.8449 3.35455 82.8449V78.3438ZM-2.22627 84.001C-2.22627 87.0733 0.228153 89.6569 3.35455 89.6569V85.1557C2.80852 85.1557 2.27488 84.6829 2.27488 84.001H-2.22627ZM1014.64 75.2494H3.35455V79.7506H1014.64V75.2494ZM3.35455 75.2494C-1.44046 75.2494 -5.25058 79.222 -5.25058 84.001H-0.749424C-0.749424 81.6106 1.14159 79.7506 3.35455 79.7506V75.2494ZM-5.25058 84.001C-5.25058 88.7793 -1.4399 92.7506 3.35455 92.7506V88.2494C1.14102 88.2494 -0.749424 86.3894 -0.749424 84.001H-5.25058ZM3.35455 92.7506H1014.64V88.2494H3.35455V92.7506ZM1014.64 92.7506C1019.44 92.7506 1023.25 88.7796 1023.25 84.001H1018.75C1018.75 86.3891 1016.86 88.2494 1014.64 88.2494V92.7506ZM1023.25 84.001C1023.25 79.2217 1019.44 75.2494 1014.64 75.2494V79.7506C1016.86 79.7506 1018.75 81.611 1018.75 84.001H1023.25ZM3.35455 84.2147C3.32958 84.2147 3.29756 84.2073 3.26031 84.1692C3.22223 84.1302 3.19517 84.0739 3.19517 84.001H-1.30598C-1.30598 86.5549 0.735297 88.7159 3.35455 88.7159V84.2147ZM3.19517 84.001C3.19517 83.9273 3.2225 83.8705 3.26073 83.8314C3.29811 83.7932 3.33001 83.7859 3.35455 83.7859V79.2848C0.734172 79.2848 -1.30598 81.4476 -1.30598 84.001H3.19517ZM3.35455 83.7859H1014.64V79.2848H3.35455V83.7859ZM1014.64 83.7859C1014.67 83.7859 1014.7 83.7931 1014.74 83.8314C1014.78 83.8705 1014.8 83.9273 1014.8 84.001H1019.3C1019.3 81.4477 1017.26 79.2848 1014.64 79.2848V83.7859ZM1014.8 84.001C1014.8 84.0739 1014.78 84.1303 1014.74 84.1692C1014.7 84.2074 1014.67 84.2147 1014.64 84.2147V88.7159C1017.26 88.7159 1019.3 86.5547 1019.3 84.001H1014.8ZM1014.64 84.2147H3.35455V88.7159H1014.64V84.2147Z" fill="#5A5F61" mask="url(#path-10-inside-1_1283_8941)"/>
<path d="M66 84.0004C66 85.3808 64.881 86.5 63.5 86.5C62.119 86.5 61 85.3808 61 84.0004C61 82.6189 62.119 81.5 63.5 81.5C64.881 81.4997 66 82.6186 66 84.0004Z" fill="#C9CBC8" stroke="#5A5F61" stroke-width="6.6275" stroke-miterlimit="10"/>
<path d="M6 84.0004C6 85.3808 4.88088 86.5 3.5 86.5C2.11855 86.5 1 85.3808 1 84.0004C1 82.6189 2.11855 81.5 3.5 81.5C4.88088 81.4997 6 82.6186 6 84.0004Z" fill="#C9CBC8" stroke="#5A5F61" stroke-width="6.6275" stroke-miterlimit="10"/>
<path d="M26 84.0004C26 85.3808 24.8812 86.5 23.4997 86.5C22.1185 86.5 21 85.3808 21 84.0004C21 82.6189 22.1185 81.5 23.4997 81.5C24.8812 81.4997 26 82.6186 26 84.0004Z" fill="#C9CBC8" stroke="#5A5F61" stroke-width="6.6275" stroke-miterlimit="10"/>
<path d="M36 84.0004C36 85.3808 34.8807 86.5 33.5 86.5C32.1193 86.5 31 85.3808 31 84.0004C31 82.6189 32.119 81.5 33.5 81.5C34.8807 81.4997 36 82.6186 36 84.0004Z" fill="#C9CBC8" stroke="#5A5F61" stroke-width="6.6275" stroke-miterlimit="10"/>
<path d="M46 84.0004C46 85.3808 44.8814 86.5 43.5001 86.5C42.1201 86.5 41 85.3808 41 84.0004C41 82.6189 42.1198 81.5 43.5001 81.5C44.8814 81.4997 46 82.6186 46 84.0004Z" fill="#C9CBC8" stroke="#5A5F61" stroke-width="6.6275" stroke-miterlimit="10"/>
<path d="M56 84.0004C56 85.3808 54.8818 86.5 53.5002 86.5C52.1197 86.5 51 85.3808 51 84.0004C51 82.6189 52.1197 81.5 53.5002 81.5C54.8818 81.4997 56 82.6186 56 84.0004Z" fill="#C9CBC8" stroke="#5A5F61" stroke-width="6.6275" stroke-miterlimit="10"/>
<path d="M16 84.0004C16 85.3808 14.8815 86.5 13.5003 86.5C12.1194 86.5 11 85.3808 11 84.0004C11 82.6189 12.1194 81.5 13.5003 81.5C14.8815 81.4997 16 82.6186 16 84.0004Z" fill="#C9CBC8" stroke="#5A5F61" stroke-width="6.6275" stroke-miterlimit="10"/>
<path d="M76 84.0004C76 85.3808 74.8809 86.5 73.5 86.5C72.1185 86.5 71 85.3808 71 84.0004C71 82.6189 72.1185 81.5 73.5 81.5C74.8809 81.4997 76 82.6186 76 84.0004Z" fill="#C9CBC8" stroke="#5A5F61" stroke-width="6.6275" stroke-miterlimit="10"/>
<path d="M96 84.0004C96 85.3808 94.8812 86.5 93.4997 86.5C92.1185 86.5 91 85.3808 91 84.0004C91 82.6189 92.1185 81.5 93.4997 81.5C94.8812 81.4997 96 82.6186 96 84.0004Z" fill="#C9CBC8" stroke="#5A5F61" stroke-width="6.6275" stroke-miterlimit="10"/>
<path d="M106 84.0004C106 85.3808 104.881 86.5 103.5 86.5C102.119 86.5 101 85.3808 101 84.0004C101 82.6189 102.119 81.5 103.5 81.5C104.881 81.4997 106 82.6186 106 84.0004Z" fill="#C9CBC8" stroke="#5A5F61" stroke-width="6.6275" stroke-miterlimit="10"/>
<path d="M116 84.0004C116 85.3808 114.881 86.5 113.5 86.5C112.12 86.5 111 85.3808 111 84.0004C111 82.6189 112.12 81.5 113.5 81.5C114.881 81.4997 116 82.6186 116 84.0004Z" fill="#C9CBC8" stroke="#5A5F61" stroke-width="6.6275" stroke-miterlimit="10"/>
<path d="M86 84.0004C86 85.3808 84.8815 86.5 83.5003 86.5C82.1194 86.5 81 85.3808 81 84.0004C81 82.6189 82.1194 81.5 83.5003 81.5C84.8815 81.4997 86 82.6186 86 84.0004Z" fill="#C9CBC8" stroke="#5A5F61" stroke-width="6.6275" stroke-miterlimit="10"/>
<path fill-rule="evenodd" clip-rule="evenodd" d="M86 74.27C86 74.7934 85.5756 75.2178 85.0522 75.2178H29.9478C29.4244 75.2178 29 74.7934 29 74.27V29.2293C29 28.7058 29.4244 28.2814 29.9478 28.2814H85.0522C85.5756 28.2814 86 28.7058 86 29.2293V74.27ZM35.7701 36.4808C35.7701 35.0559 36.9252 33.9009 38.35 33.9009L76.5655 33.9009C77.9904 33.9009 79.1454 35.0559 79.1454 36.4808V37.9015V65.8491V67.2428C79.1454 68.6366 78.0155 69.7665 76.6217 69.7665H38.2939C36.9001 69.7665 35.7701 68.6366 35.7701 67.2428V65.8491V37.9015V36.4808Z" fill="#5A5F61"/>
<path fill-rule="evenodd" clip-rule="evenodd" d="M44.544 67.2428C45.0675 67.2428 45.4919 66.8184 45.4919 66.2949V37.4286C45.4919 36.9051 45.0675 36.4808 44.544 36.4808H35.7701V37.9015H41.0728C41.5963 37.9015 42.0206 38.3259 42.0206 38.8494L42.0206 65.8491H35.7701V67.2428H44.544ZM44.3291 53.5352V46.9177C44.3291 46.558 44.041 46.2664 43.6856 46.2664C43.3303 46.2664 43.0422 46.558 43.0422 46.9177V53.5352C43.0422 53.8949 43.3303 54.1865 43.6856 54.1865C44.041 54.1865 44.3291 53.8949 44.3291 53.5352Z" fill="#C9CBC8"/>
<path fill-rule="evenodd" clip-rule="evenodd" d="M70.456 36.4808C69.9326 36.4808 69.5082 36.9051 69.5082 37.4286V66.2949C69.5082 66.8184 69.9326 67.2428 70.456 67.2428H79.1454V65.8491H73.9272C73.4038 65.8491 72.9794 65.4248 72.9794 64.9013L72.9794 37.9015H79.1454V36.4808H70.456ZM70.671 53.5352V46.9177C70.671 46.558 70.959 46.2664 71.3144 46.2664C71.6698 46.2664 71.9579 46.558 71.9579 46.9177V53.5352C71.9579 53.8949 71.6698 54.1865 71.3144 54.1865C70.959 54.1865 70.671 53.8949 70.671 53.5352Z" fill="#C9CBC8"/>
<path d="M46.6608 63.644V61.8856C46.6608 61.3621 47.0852 60.9378 47.6086 60.9378H67.4425C67.966 60.9378 68.3904 61.3621 68.3904 61.8856V63.644V65.7072C68.3904 66.2307 67.966 66.655 67.4425 66.655H47.6086C47.0852 66.655 46.6608 66.2307 46.6608 65.7072V63.644Z" fill="#C9CBC8"/>
<path d="M63.8561 59.5403C63.8561 59.0376 63.4485 58.63 62.9458 58.63H51.9907C51.488 58.63 51.0804 59.0376 51.0804 59.5403C51.0804 60.0431 51.488 60.4507 51.9907 60.4507H62.9458C63.4485 60.4507 63.8561 60.0431 63.8561 59.5403Z" fill="#5A5F61"/>
<path d="M63.0436 56.0164C62.6292 56.4919 60.2908 56.5266 57.4682 56.5266C54.6457 56.5266 52.3073 56.4919 51.8928 56.0164L52.1847 56.7434C52.6021 57.7384 52.9933 58.1203 53.7888 58.1203H61.1477C61.9432 58.1203 62.351 57.856 62.7518 56.7434L63.0436 56.0164Z" fill="#C9CBC8"/>
<path d="M57.4682 55.1269C54.353 55.1269 51.8276 55.2232 51.8276 55.8538L51.8928 56.0164C52.3073 56.4919 54.6457 56.5266 57.4682 56.5266C60.2908 56.5266 62.6292 56.4919 63.0436 56.0164L63.1089 55.8538C63.1089 55.2232 60.5835 55.1269 57.4682 55.1269Z" fill="#C9CBC8"/>
<path d="M57.4682 55.1269C54.353 55.1269 51.8276 55.2232 51.8276 55.8538L51.8928 56.0164C52.3073 56.4919 54.6457 56.5266 57.4682 56.5266C60.2908 56.5266 62.6292 56.4919 63.0436 56.0164L63.1089 55.8538C63.1089 55.2232 60.5835 55.1269 57.4682 55.1269Z" fill="black" fill-opacity="0.07"/>
<path d="M54.1452 46.455C54.1452 46.9785 54.5696 47.4029 55.093 47.4029H60.0318C60.5553 47.4029 60.9797 46.9785 60.9797 46.455V38.0164C60.9797 37.4929 60.5553 37.0685 60.0318 37.0685H55.093C54.5696 37.0685 54.1452 37.4929 54.1452 38.0163V46.455Z" fill="#C9CBC8"/>
<path d="M47.4835 42.458C46.96 42.458 46.5357 42.0336 46.5357 41.5102V38.9598C46.5357 38.4364 46.96 38.012 47.4835 38.012H52.1498C52.6733 38.012 53.0976 38.4364 53.0976 38.9598V41.5102C53.0976 42.0336 52.6733 42.458 52.1498 42.458H47.4835Z" fill="#5A5F61"/>
<path d="M62.9521 42.458C62.4286 42.458 62.0042 42.0336 62.0042 41.5102V38.9598C62.0042 38.4364 62.4286 38.012 62.9521 38.012H67.5502C68.0737 38.012 68.498 38.4364 68.498 38.9598V41.5102C68.498 42.0336 68.0737 42.458 67.5502 42.458H62.9521Z" fill="#5A5F61"/>
<path d="M57.8955 52.3057C57.7422 52.4572 57.4955 52.4404 57.3408 52.2901C57.2728 52.2241 57.2286 52.1373 57.2151 52.0435L57.1786 51.79C57.145 51.557 57.0426 51.3393 56.8845 51.1649L56.531 50.7752C56.443 50.6782 56.3942 50.5518 56.3942 50.4208V49.2842C56.3942 48.9204 56.6891 48.6255 57.0529 48.6255H58.0288C58.3926 48.6255 58.6875 48.9204 58.6875 49.2842V50.4304C58.6875 50.5565 58.6473 50.6792 58.5728 50.7808L58.5466 50.8167C58.2501 51.2211 58.0411 51.6898 57.9863 52.1882C57.9838 52.2113 57.9461 52.2556 57.8955 52.3057Z" fill="#D1493F"/>
<path d="M38.4588 76.6356C38.4588 77.113 38.0718 77.5 37.5944 77.5H29.8644C29.387 77.5 29 77.113 29 76.6356C29 76.1582 29.387 75.7711 29.8644 75.7711H37.5944C38.0718 75.7711 38.4588 76.1582 38.4588 76.6356Z" fill="#5A5F61"/>
<path d="M86 76.6356C86 77.113 85.613 77.5 85.1356 77.5H77.4056C76.9282 77.5 76.5412 77.113 76.5412 76.6356C76.5412 76.1582 76.9282 75.7711 77.4056 75.7711H85.1356C85.613 75.7711 86 76.1582 86 76.6356Z" fill="#5A5F61"/>
<path d="M34.6949 25.9054C34.6949 24.8801 35.5261 24.0489 36.5514 24.0489H78.3668C79.3922 24.0489 80.2233 24.8801 80.2233 25.9054C80.2233 26.9307 79.3922 27.7619 78.3668 27.7619H36.5514C35.5261 27.7619 34.6949 26.9307 34.6949 25.9054Z" fill="#5A5F61"/>
<path d="M39.0125 20.5H75.8924C76.1115 20.5 76.3213 20.5895 76.4743 20.7482C77.4756 21.7867 76.7396 23.5186 75.297 23.5186H39.6094C38.1676 23.5186 37.4307 21.7889 38.4296 20.7492C38.5827 20.5899 38.7929 20.5 39.0125 20.5Z" fill="#5A5F61"/>
<path d="M44.3291 46.9177V53.5352C44.3291 53.8949 44.041 54.1865 43.6856 54.1865C43.3303 54.1865 43.0422 53.8949 43.0422 53.5352V46.9177C43.0422 46.558 43.3303 46.2664 43.6856 46.2664C44.041 46.2664 44.3291 46.558 44.3291 46.9177Z" fill="#D1493F"/>
<path d="M70.671 46.9177V53.5352C70.671 53.8949 70.959 54.1865 71.3144 54.1865C71.6698 54.1865 71.9579 53.8949 71.9579 53.5352V46.9177C71.9579 46.558 71.6698 46.2664 71.3144 46.2664C70.959 46.2664 70.671 46.558 70.671 46.9177Z" fill="#D1493F"/>
<path fill-rule="evenodd" clip-rule="evenodd" d="M73.9272 65.8491C73.4038 65.8491 72.9794 65.4248 72.9794 64.9013L72.9794 37.9015L79.1454 65.8491H73.9272Z" fill="#4C8674"/>
<path fill-rule="evenodd" clip-rule="evenodd" d="M73.9272 65.8491C73.4038 65.8491 72.9794 65.4248 72.9794 64.9013L72.9794 37.9015L79.1454 65.8491H73.9272Z" fill="white" fill-opacity="0.2"/>
<path d="M79.1454 65.8491V37.9015H72.9794L79.1454 65.8491Z" fill="#4C8674"/>
<path fill-rule="evenodd" clip-rule="evenodd" d="M42.0206 65.8491H35.7701V37.9015L42.0206 65.8491Z" fill="#4C8674"/>
<path d="M42.0206 65.8491L42.0206 38.8494C42.0206 38.3259 41.5963 37.9015 41.0728 37.9015H35.7701L42.0206 65.8491Z" fill="#4C8674"/>
<path d="M42.0206 65.8491L42.0206 38.8494C42.0206 38.3259 41.5963 37.9015 41.0728 37.9015H35.7701L42.0206 65.8491Z" fill="white" fill-opacity="0.2"/>
<path fill-rule="evenodd" clip-rule="evenodd" d="M70.456 67.2428C69.9326 67.2428 69.5082 66.8184 69.5082 66.2949V37.4286C69.5082 36.9051 69.9326 36.4808 70.456 36.4808H79.1454C79.1454 35.0559 77.9904 33.9009 76.5655 33.9009L38.35 33.9009C36.9252 33.9009 35.7701 35.0559 35.7701 36.4808H44.544C45.0675 36.4808 45.4919 36.9051 45.4919 37.4286V66.2949C45.4919 66.8184 45.0675 67.2428 44.544 67.2428H35.7701C35.7701 68.6366 36.9001 69.7665 38.2939 69.7665H76.6217C78.0155 69.7665 79.1454 68.6366 79.1454 67.2428H70.456ZM51.0804 59.5403C51.0804 59.0376 51.488 58.63 51.9907 58.63H62.9458C63.4485 58.63 63.8561 59.0376 63.8561 59.5403C63.8561 60.0431 63.4485 60.4507 62.9458 60.4507H51.9907C51.488 60.4507 51.0804 60.0431 51.0804 59.5403ZM51.8276 55.8538C51.8276 55.2232 54.353 55.1269 57.4682 55.1269C60.5835 55.1269 63.1089 55.2232 63.1089 55.8538C63.1089 55.913 63.0866 55.9671 63.0436 56.0164L62.7518 56.7434C62.351 57.856 61.9432 58.1203 61.1477 58.1203H53.7888C52.9933 58.1203 52.6021 57.7384 52.1847 56.7434L51.8928 56.0164C51.8499 55.9671 51.8276 55.913 51.8276 55.8538ZM60.9797 46.455C60.9797 46.9785 60.5553 47.4029 60.0318 47.4029H55.093C54.5696 47.4029 54.1452 46.9785 54.1452 46.455V38.0163C54.1452 37.4929 54.5696 37.0685 55.093 37.0685H60.0318C60.5553 37.0685 60.9797 37.4929 60.9797 38.0164V46.455ZM57.2151 52.0435C57.2286 52.1373 57.2728 52.2241 57.3408 52.2901C57.4955 52.4404 57.7422 52.4572 57.8955 52.3057C57.9461 52.2556 57.9838 52.2113 57.9863 52.1882C58.0411 51.6898 58.2501 51.2211 58.5466 50.8167L58.5728 50.7808C58.6473 50.6792 58.6875 50.5565 58.6875 50.4304V49.2842C58.6875 48.9204 58.3926 48.6255 58.0288 48.6255H57.0529C56.6891 48.6255 56.3942 48.9204 56.3942 49.2842V50.4208C56.3942 50.5518 56.443 50.6782 56.531 50.7752L56.8845 51.1649C57.0426 51.3393 57.145 51.557 57.1786 51.79L57.2151 52.0435ZM47.6086 60.9378C47.0852 60.9378 46.6608 61.3621 46.6608 61.8856V63.644V65.7072C46.6608 66.2307 47.0852 66.655 47.6086 66.655H67.4425C67.966 66.655 68.3904 66.2307 68.3904 65.7072V63.644V61.8856C68.3904 61.3621 67.966 60.9378 67.4425 60.9378H47.6086ZM47.4835 38.012C46.96 38.012 46.5357 38.4364 46.5357 38.9598V41.5102C46.5357 42.0336 46.96 42.458 47.4835 42.458H52.1498C52.6733 42.458 53.0976 42.0336 53.0976 41.5102V38.9598C53.0976 38.4364 52.6733 38.012 52.1498 38.012H47.4835ZM62.9521 38.012C62.4286 38.012 62.0042 38.4364 62.0042 38.9598V41.5102C62.0042 42.0336 62.4286 42.458 62.9521 42.458H67.5502C68.0737 42.458 68.498 42.0336 68.498 41.5102V38.9598C68.498 38.4364 68.0737 38.012 67.5502 38.012H62.9521Z" fill="#5A5F61"/>
<path fill-rule="evenodd" clip-rule="evenodd" d="M70.456 67.2428C69.9326 67.2428 69.5082 66.8184 69.5082 66.2949V37.4286C69.5082 36.9051 69.9326 36.4808 70.456 36.4808H79.1454C79.1454 35.0559 77.9904 33.9009 76.5655 33.9009L38.35 33.9009C36.9252 33.9009 35.7701 35.0559 35.7701 36.4808H44.544C45.0675 36.4808 45.4919 36.9051 45.4919 37.4286V66.2949C45.4919 66.8184 45.0675 67.2428 44.544 67.2428H35.7701C35.7701 68.6366 36.9001 69.7665 38.2939 69.7665H76.6217C78.0155 69.7665 79.1454 68.6366 79.1454 67.2428H70.456ZM51.0804 59.5403C51.0804 59.0376 51.488 58.63 51.9907 58.63H62.9458C63.4485 58.63 63.8561 59.0376 63.8561 59.5403C63.8561 60.0431 63.4485 60.4507 62.9458 60.4507H51.9907C51.488 60.4507 51.0804 60.0431 51.0804 59.5403ZM51.8276 55.8538C51.8276 55.2232 54.353 55.1269 57.4682 55.1269C60.5835 55.1269 63.1089 55.2232 63.1089 55.8538C63.1089 55.913 63.0866 55.9671 63.0436 56.0164L62.7518 56.7434C62.351 57.856 61.9432 58.1203 61.1477 58.1203H53.7888C52.9933 58.1203 52.6021 57.7384 52.1847 56.7434L51.8928 56.0164C51.8499 55.9671 51.8276 55.913 51.8276 55.8538ZM60.9797 46.455C60.9797 46.9785 60.5553 47.4029 60.0318 47.4029H55.093C54.5696 47.4029 54.1452 46.9785 54.1452 46.455V38.0163C54.1452 37.4929 54.5696 37.0685 55.093 37.0685H60.0318C60.5553 37.0685 60.9797 37.4929 60.9797 38.0164V46.455ZM57.2151 52.0435C57.2286 52.1373 57.2728 52.2241 57.3408 52.2901C57.4955 52.4404 57.7422 52.4572 57.8955 52.3057C57.9461 52.2556 57.9838 52.2113 57.9863 52.1882C58.0411 51.6898 58.2501 51.2211 58.5466 50.8167L58.5728 50.7808C58.6473 50.6792 58.6875 50.5565 58.6875 50.4304V49.2842C58.6875 48.9204 58.3926 48.6255 58.0288 48.6255H57.0529C56.6891 48.6255 56.3942 48.9204 56.3942 49.2842V50.4208C56.3942 50.5518 56.443 50.6782 56.531 50.7752L56.8845 51.1649C57.0426 51.3393 57.145 51.557 57.1786 51.79L57.2151 52.0435ZM47.6086 60.9378C47.0852 60.9378 46.6608 61.3621 46.6608 61.8856V63.644V65.7072C46.6608 66.2307 47.0852 66.655 47.6086 66.655H67.4425C67.966 66.655 68.3904 66.2307 68.3904 65.7072V63.644V61.8856C68.3904 61.3621 67.966 60.9378 67.4425 60.9378H47.6086ZM47.4835 38.012C46.96 38.012 46.5357 38.4364 46.5357 38.9598V41.5102C46.5357 42.0336 46.96 42.458 47.4835 42.458H52.1498C52.6733 42.458 53.0976 42.0336 53.0976 41.5102V38.9598C53.0976 38.4364 52.6733 38.012 52.1498 38.012H47.4835ZM62.9521 38.012C62.4286 38.012 62.0042 38.4364 62.0042 38.9598V41.5102C62.0042 42.0336 62.4286 42.458 62.9521 42.458H67.5502C68.0737 42.458 68.498 42.0336 68.498 41.5102V38.9598C68.498 38.4364 68.0737 38.012 67.5502 38.012H62.9521Z" fill="black" fill-opacity="0.3"/>
</g>
<defs>
<clipPath id="clip0_1283_8941">
<rect y="0.5" width="115" height="115" rx="57.5" fill="white"/>
</clipPath>
</defs>
</svg>
