<svg width="48" height="48" viewBox="0 0 48 48" fill="none" xmlns="http://www.w3.org/2000/svg">
<path d="M33.0204 42.9434C33.0204 42.9434 24.567 45.0547 21.4362 42.1968C18.9796 39.949 18.9475 36.3204 21.1432 33.7956C23.8606 30.6688 31.1138 30.9176 31.9166 35.9872C32.6872 40.8602 33.0244 42.9434 33.0244 42.9434H33.0204Z" fill="#D30A21"/>
<path d="M38.2258 10.049L37.3829 5.79022C37.1702 4.74659 36.251 4 35.1873 4H14.6359C13.5561 4 12.6289 4.77469 12.4322 5.83839L7.71585 32.3023C7.66769 32.5833 7.51516 32.8362 7.29037 33.0088L2.44153 36.7257C2.16056 36.9464 2 37.2796 2 37.6368V42.008C2 42.6462 2.5178 43.164 3.15601 43.164H8.87187C13.1708 43.164 16.1692 40.3422 16.8516 36.4688L20.5685 15.4076C20.7491 14.3279 21.6844 13.5371 22.7762 13.5371H27.6009C28.6807 13.5371 29.6039 14.3038 29.8046 15.3635L30.1177 17.1577L37.419 12.2527C38.0813 11.7268 38.3944 10.8759 38.2218 10.045L38.2258 10.049Z" fill="#005339"/>
<path d="M34.9379 35.2564L36.2665 42.2447C36.3669 42.7826 36.8365 43.1679 37.3824 43.1679H44.8644C45.5829 43.1679 46.1207 42.5096 45.9762 41.8072L40.0396 13.3965L21.3146 25.5868C21.3146 25.5868 20.7125 28.8622 20.3633 31.391C25.6376 26.5582 33.9585 28.6294 34.9379 35.2604V35.2564Z" fill="#D30A21"/>
</svg>
