<svg width="32" height="32" viewBox="0 0 32 32" fill="none" xmlns="http://www.w3.org/2000/svg">
<path fill-rule="evenodd" clip-rule="evenodd" d="M2 8.63203C2 6.62611 3.62612 5 5.63204 5H26.4073C28.4132 5 30.0393 6.62612 30.0393 8.63203V21.2715C30.0393 23.2774 28.4132 24.9036 26.4073 24.9036H25.3905V25.9205C25.3905 26.5624 24.8701 27.0827 24.2282 27.0827H7.66616C7.02426 27.0827 6.50391 26.5624 6.50391 25.9205V24.9036H5.63203C3.62612 24.9036 2 23.2774 2 21.2715V8.63203ZM5.48658 6.88837C4.36326 6.88837 3.45264 7.79899 3.45264 8.92231V14.2861H7.90424L8.50532 12.0224L9.23733 12.055L9.3885 12.9334L10.0732 8.86029L10.8146 8.87213L11.6547 15.0753L11.7221 14.6076L11.7684 14.2861H12.0933H19.8984L20.5049 11.7412L21.2387 11.7618L21.4575 12.9801L22.1501 8.86029L22.8915 8.87213L23.7316 15.0753L23.799 14.6076L23.8453 14.2861H24.1702H28.1505V8.92231C28.1505 7.79899 27.2398 6.88837 26.1165 6.88837H5.48658ZM28.1505 15.0361H24.495L24.0913 17.8381L23.3485 17.8349L22.48 11.422L21.8395 15.2317L21.1006 15.2358L20.818 13.6623L20.5593 14.748L20.4907 15.0361H20.1945H12.4181L12.0144 17.8381L11.2716 17.8349L10.4031 11.422L9.76266 15.2317L9.02328 15.2332L8.78947 13.8747L8.5551 14.7573L8.48108 15.0361H8.19266H3.45264V18.6562C3.45264 19.7795 4.36326 20.6901 5.48658 20.6901H26.1165C27.2398 20.6901 28.1505 19.7795 28.1505 18.6562V15.0361ZM9.32811 22.2143C9.32811 22.7359 8.90532 23.1586 8.38378 23.1586C7.86224 23.1586 7.43945 22.7359 7.43945 22.2143C7.43945 21.6928 7.86224 21.27 8.38378 21.27C8.90532 21.27 9.32811 21.6928 9.32811 22.2143ZM12.1611 23.1586C12.6827 23.1586 13.1055 22.7359 13.1055 22.2143C13.1055 21.6928 12.6827 21.27 12.1611 21.27C11.6396 21.27 11.2168 21.6928 11.2168 22.2143C11.2168 22.7359 11.6396 23.1586 12.1611 23.1586ZM16.8826 22.2143C16.8826 22.7359 16.4598 23.1586 15.9382 23.1586C15.4167 23.1586 14.9939 22.7359 14.9939 22.2143C14.9939 21.6928 15.4167 21.27 15.9382 21.27C16.4598 21.27 16.8826 21.6928 16.8826 22.2143ZM19.7158 23.1586C20.2374 23.1586 20.6601 22.7359 20.6601 22.2143C20.6601 21.6928 20.2374 21.27 19.7158 21.27C19.1943 21.27 18.7715 21.6928 18.7715 22.2143C18.7715 22.7359 19.1943 23.1586 19.7158 23.1586ZM24.4372 22.2143C24.4372 22.7359 24.0145 23.1586 23.4929 23.1586C22.9714 23.1586 22.5486 22.7359 22.5486 22.2143C22.5486 21.6928 22.9714 21.27 23.4929 21.27C24.0145 21.27 24.4372 21.6928 24.4372 22.2143Z" fill="#81AA9D"/>
</svg>
