<svg width="32" height="32" viewBox="0 0 32 32" fill="none" xmlns="http://www.w3.org/2000/svg">
<circle cx="12.856" cy="26.4736" r="1.11378" fill="#81AA9D"/>
<circle cx="10.7099" cy="26.4736" r="0.342701" fill="#81AA9D"/>
<circle cx="9.76848" cy="26.4736" r="0.342701" fill="#81AA9D"/>
<circle cx="15.5094" cy="26.4737" r="0.771078" fill="#81AA9D"/>
<mask id="path-5-inside-1_4413_18395" fill="white">
<path fill-rule="evenodd" clip-rule="evenodd" d="M8.31323 5.91162C7.03567 5.91162 6 6.94729 6 8.22485V14.9075C6 15.2517 6.07515 15.5783 6.20994 15.8718C6.51352 16.5329 6.94944 17.1738 6.98292 17.9005C7.01963 18.6972 7.04198 19.4717 7.04198 20.1762C7.04198 22.3779 6.82374 25.2616 6.63112 27.378C6.49199 28.9067 7.68811 30.2431 9.22308 30.2431H16.4851C18.0201 30.2431 19.2162 28.9067 19.0771 27.378C18.8845 25.2616 18.6662 22.3779 18.6662 20.1762C18.6662 19.4716 18.6886 18.6971 18.7253 17.9002C18.7588 17.1736 19.1946 16.5328 19.4981 15.8717C19.6329 15.5782 19.7081 15.2517 19.7081 14.9075V8.22485C19.7081 6.94729 18.6724 5.91162 17.3948 5.91162H8.31323Z"/>
</mask>
<path d="M6.63112 27.378L5.35128 27.2616L6.63112 27.378ZM19.0771 27.378L20.3569 27.2616L19.0771 27.378ZM18.7253 17.9002L20.0091 17.9594L18.7253 17.9002ZM6.20994 15.8718L5.04207 16.4081L6.20994 15.8718ZM7.28513 8.22485C7.28513 7.65705 7.74543 7.19675 8.31323 7.19675V4.62649C6.32591 4.62649 4.71487 6.23753 4.71487 8.22485H7.28513ZM7.28513 14.9075V8.22485H4.71487V14.9075H7.28513ZM7.37782 15.3355C7.31872 15.2068 7.28513 15.0628 7.28513 14.9075H4.71487C4.71487 15.4405 4.83158 15.9497 5.04207 16.4081L7.37782 15.3355ZM8.32711 20.1762C8.32711 19.4462 8.30399 18.651 8.26669 17.8413L5.69915 17.9596C5.73526 18.7435 5.75685 19.4972 5.75685 20.1762H8.32711ZM7.91096 27.4945C8.10399 25.3736 8.32711 22.4404 8.32711 20.1762H5.75685C5.75685 22.3154 5.5435 25.1495 5.35128 27.2616L7.91096 27.4945ZM9.22308 28.9579C8.45984 28.9579 7.83887 28.2865 7.91096 27.4945L5.35128 27.2616C5.14511 29.5268 6.91638 31.5282 9.22308 31.5282V28.9579ZM16.4851 28.9579H9.22308V31.5282H16.4851V28.9579ZM17.7972 27.4945C17.8693 28.2866 17.2484 28.9579 16.4851 28.9579V31.5282C18.7918 31.5282 20.5631 29.5268 20.3569 27.2616L17.7972 27.4945ZM17.3811 20.1762C17.3811 22.4404 17.6042 25.3736 17.7972 27.4945L20.3569 27.2616C20.1647 25.1495 19.9514 22.3154 19.9514 20.1762H17.3811ZM17.4415 17.8411C17.4042 18.6509 17.3811 19.4461 17.3811 20.1762H19.9514C19.9514 19.4971 19.9729 18.7433 20.0091 17.9594L17.4415 17.8411ZM18.4229 14.9075C18.4229 15.0628 18.3893 15.2068 18.3302 15.3355L20.666 16.408C20.8765 15.9497 20.9932 15.4405 20.9932 14.9075H18.4229ZM18.4229 8.22485V14.9075H20.9932V8.22485H18.4229ZM17.3948 7.19675C17.9626 7.19675 18.4229 7.65705 18.4229 8.22485H20.9932C20.9932 6.23753 19.3821 4.62649 17.3948 4.62649V7.19675ZM8.31323 7.19675H17.3948V4.62649H8.31323V7.19675ZM20.0091 17.9594C20.0149 17.832 20.0584 17.6626 20.1812 17.3915C20.2422 17.2566 20.3126 17.1181 20.3982 16.9505C20.4793 16.792 20.5766 16.6027 20.666 16.408L18.3302 15.3355C18.2679 15.4713 18.1969 15.61 18.1098 15.7803C18.0274 15.9415 17.9298 16.1325 17.8397 16.3313C17.6603 16.7275 17.4691 17.2419 17.4415 17.8411L20.0091 17.9594ZM5.04207 16.4081C5.13146 16.6028 5.22884 16.7921 5.30991 16.9506C5.3956 17.1182 5.46595 17.2568 5.52703 17.3917C5.64982 17.6628 5.69328 17.8323 5.69915 17.9596L8.26669 17.8413C8.23908 17.242 8.04784 16.7276 7.86841 16.3314C7.77837 16.1326 7.68073 15.9416 7.59826 15.7803C7.51116 15.61 7.44022 15.4714 7.37782 15.3355L5.04207 16.4081Z" fill="#81AA9D" mask="url(#path-5-inside-1_4413_18395)"/>
<rect x="19.1094" y="9.85254" width="1.88486" height="2.91296" rx="0.428377" fill="#81AA9D"/>
<path fill-rule="evenodd" clip-rule="evenodd" d="M8.82524 8.396C8.30475 8.396 7.88281 8.81794 7.88281 9.33843V13.3652C7.88281 13.8857 8.30475 14.3076 8.82524 14.3076H16.9644C17.4849 14.3076 17.9068 13.8857 17.9068 13.3652V9.33842C17.9068 8.81794 17.4849 8.396 16.9644 8.396H8.82524ZM8.9967 8.91064C8.66548 8.91064 8.39697 9.17915 8.39697 9.51037V13.1944C8.39697 13.5256 8.66548 13.7941 8.9967 13.7941H16.7932C17.1244 13.7941 17.3929 13.5256 17.3929 13.1944V9.51037C17.3929 9.17915 17.1244 8.91064 16.7932 8.91064H8.9967Z" fill="#81AA9D"/>
<path d="M11.6181 11.4291L11.4886 11.5562H10.9273L10.8001 11.4291L10.9273 11.2995H11.4886L11.6181 11.4291ZM11.6589 11.3835L11.5294 11.254V10.6494L11.6589 10.5223L11.7861 10.6494V11.254L11.6589 11.3835ZM11.6157 10.4791L11.4862 10.6063H10.7545L10.625 10.4767L10.7521 10.352H11.4862L11.6157 10.4791ZM10.625 11.5994L10.7521 11.4723L10.8793 11.5994V12.2087L10.7521 12.3359L10.625 12.2087V11.5994ZM11.7885 12.379L11.6589 12.5086H10.9273L10.8001 12.379L10.9273 12.2519H11.6589L11.7885 12.379Z" fill="#81AA9D"/>
<path d="M13.0448 11.4291L12.9153 11.5562H12.354L12.2268 11.4291L12.354 11.2995H12.9153L13.0448 11.4291ZM13.0856 11.3835L12.9561 11.254V10.6494L13.0856 10.5223L13.2128 10.6494V11.254L13.0856 11.3835ZM13.0424 10.4791L12.9129 10.6063H12.1812L12.0517 10.4767L12.1788 10.352H12.9129L13.0424 10.4791ZM12.0517 11.5994L12.1788 11.4723L12.306 11.5994V12.2087L12.1788 12.3359L12.0517 12.2087V11.5994ZM13.2152 12.379L13.0856 12.5086H12.354L12.2268 12.379L12.354 12.2519H13.0856L13.2152 12.379Z" fill="#81AA9D"/>
<path d="M14.1381 10.3472L14.2652 10.4743V11.2612L14.1381 11.3883L14.0085 11.2612V10.4719L14.1381 10.3472ZM14.0085 11.6042L14.1381 11.4747L14.2652 11.6042V12.3838L14.1381 12.511L14.0085 12.3838V11.6042Z" fill="#81AA9D"/>
<path d="M15.041 12.0672L15.2041 11.9041L15.3672 12.0672V12.1272L15.041 12.5062V12.0672Z" fill="#81AA9D"/>
<path d="M16.6901 11.4291L16.5605 11.5562H15.9992L15.872 11.4291L15.9992 11.2995H16.5605L16.6901 11.4291ZM16.8676 10.4791L16.738 10.6063H15.9992L15.8696 10.4767L15.9968 10.352H16.738L16.8676 10.4791ZM15.8241 10.5223L15.9512 10.6494V11.2564L15.8241 11.3859L15.6969 11.2564V10.647L15.8241 10.5223ZM16.6013 11.5994L16.7308 11.4723L16.858 11.5994V12.2087L16.7308 12.3359L16.6013 12.2087V11.5994ZM16.6877 12.379L16.5581 12.5086H15.8193L15.6921 12.379L15.8193 12.2519H16.5581L16.6877 12.379Z" fill="#81AA9D"/>
<path fill-rule="evenodd" clip-rule="evenodd" d="M12.8105 23.9891C14.5849 23.9891 16.0233 22.5507 16.0233 20.7763C16.0233 19.0019 14.5849 17.5635 12.8105 17.5635C11.0361 17.5635 9.59766 19.0019 9.59766 20.7763C9.59766 22.5507 11.0361 23.9891 12.8105 23.9891ZM10.4545 20.7334H9.94043V20.8191H10.4545V20.7334ZM15.167 20.7334H15.681V20.8191H15.167V20.7334ZM12.7681 23.1319V23.646H12.8537V23.1319H12.7681ZM12.7681 18.4199V17.9059H12.8537V18.4199H12.7681ZM13.8625 19.0681C14.0644 19.1623 14.1605 19.3952 14.0807 19.6032C13.931 19.9934 13.6867 20.6132 13.4796 21.0578C13.2709 21.5056 12.9508 22.0958 12.747 22.4631C12.6389 22.658 12.3989 22.7341 12.1969 22.6399L11.7433 22.4284C11.5428 22.335 11.4465 22.1047 11.5239 21.8975C11.6684 21.5107 11.9048 20.8971 12.1086 20.458C12.3208 20.0009 12.6521 19.4002 12.8612 19.0302C12.9701 18.8376 13.2085 18.7632 13.4091 18.8567L13.8625 19.0681Z" fill="#81AA9D"/>
<path fill-rule="evenodd" clip-rule="evenodd" d="M7.90625 6.5C8.14265 3.97563 10.2674 2 12.8536 2C15.4397 2 17.5645 3.97563 17.8009 6.5H15.9142C15.6882 5.01297 14.4041 3.87354 12.854 3.87354C11.3038 3.87354 10.0198 5.01297 9.79373 6.5H7.90625Z" fill="#81AA9D"/>
<path fill-rule="evenodd" clip-rule="evenodd" d="M24.06 2.97314C24.0356 2.97314 24.014 2.9889 24.0066 3.01212L23.6582 4.10234C23.6543 4.11443 23.6634 4.12677 23.676 4.12677H23.8745L23.8745 4.29521L23.761 4.29521L23.7612 7.10449H23.6559C23.33 7.10449 23.0659 7.36862 23.0659 7.69444V10.644H22.8425C22.6253 10.644 22.4492 10.8201 22.4492 11.0373C22.4492 11.2546 22.6253 11.4306 22.8425 11.4306H23.0659V17.8219V25.2676H23.1723C23.2668 25.2676 23.3434 25.3442 23.3434 25.4386C23.3434 25.5331 23.2668 25.6097 23.1723 25.6097H23.0659V26.6191H23.1723C23.2668 26.6191 23.3434 26.6957 23.3434 26.7902C23.3434 26.8847 23.2668 26.9613 23.1723 26.9613H23.0659V27.9494C23.0659 28.2752 23.33 28.5394 23.6559 28.5394H24.4425C24.7683 28.5394 25.0324 28.2752 25.0324 27.9494V26.9613H24.9098C24.8154 26.9613 24.7388 26.8847 24.7388 26.7902C24.7388 26.6957 24.8154 26.6191 24.9098 26.6191H25.0324V25.6097H24.9098C24.8154 25.6097 24.7388 25.5331 24.7388 25.4386C24.7388 25.3442 24.8154 25.2676 24.9098 25.2676H25.0324V11.4306H25.2288C25.446 11.4306 25.6221 11.2546 25.6221 11.0373C25.6221 10.8201 25.446 10.644 25.2287 10.644H25.0324V7.69444C25.0324 7.36862 24.7683 7.10449 24.4425 7.10449H24.3096L24.3094 4.29518L24.2055 4.29518L24.2055 4.12677H24.4336C24.446 4.12677 24.4549 4.11469 24.4513 4.10278L24.1135 3.01259C24.1062 2.98913 24.0845 2.97314 24.06 2.97314Z" fill="#81AA9D"/>
<path d="M12.5 26.5C12.5 29.534 14.9195 30.5212 17.1443 30.4851C19.9254 30.4399 23.7369 30.987 24 28.1412" stroke="#81AA9D" stroke-width="0.342701"/>
</svg>
