<svg width="32" height="32" viewBox="0 0 32 32" fill="none" xmlns="http://www.w3.org/2000/svg">
<path d="M15.7222 25.3525C12.1634 25.1516 9.53788 23.4905 7.93183 20.2715C7.72959 19.8845 7.57538 19.4743 7.47263 19.05C7.46135 18.9684 7.42314 18.8929 7.36408 18.8355C7.30501 18.7781 7.22847 18.7421 7.14659 18.7331C6.76771 18.6372 6.43129 18.4184 6.18993 18.111C5.94858 17.8036 5.81589 17.4249 5.81261 17.0341C5.81261 16.5622 5.8459 16.0881 5.88494 15.6174C5.90133 15.5425 5.88733 15.4642 5.846 15.3996C5.80467 15.3351 5.7394 15.2895 5.66452 15.273C4.34891 14.7496 3.03789 14.2146 1.72342 13.6865C1.11842 13.4431 0.845199 12.9059 1.08858 12.3916C1.247 12.0575 1.50415 11.8348 1.89218 11.8991C3.04018 12.0885 4.18819 12.2561 5.33619 12.449C6.17768 12.5913 7.02835 12.7256 7.88246 12.8094C8.11206 12.8312 8.11206 12.6682 8.17176 12.5557C9.07524 10.9485 10.3277 9.69833 11.9912 8.8821C12.5539 8.59745 13.1507 8.38603 13.7671 8.253C13.9279 8.22085 13.9692 8.14853 13.9967 7.9924C14.0648 7.5802 14.2754 7.205 14.5919 6.93228C14.9084 6.65955 15.3106 6.50664 15.7283 6.50021C16.1461 6.49379 16.5528 6.63426 16.8775 6.89713C17.2022 7.15999 17.4243 7.52854 17.505 7.93844C17.5406 8.1072 17.5854 8.20937 17.7725 8.25874C20.2235 8.89703 22.0649 10.3343 23.3082 12.5328C23.4505 12.783 23.5952 12.8243 23.8523 12.783C25.696 12.488 27.542 12.209 29.388 11.9186C29.9276 11.8336 30.3064 12.0334 30.4568 12.4926C30.6072 12.9518 30.3868 13.411 29.8943 13.6142C28.5879 14.1606 27.2768 14.6979 25.9566 15.2111C25.6754 15.3201 25.5858 15.4407 25.6226 15.7368C25.6742 16.1462 25.7018 16.5583 25.7052 16.9709C25.7086 17.3804 25.5724 17.7789 25.3191 18.1006C25.0657 18.4224 24.7104 18.6483 24.3115 18.7412C24.0819 18.7894 24.0659 18.9237 24.0142 19.0856C22.9795 22.2854 20.8323 24.3002 17.5728 25.1298C16.9671 25.2781 16.3457 25.3529 15.7222 25.3525ZM23.9017 16.677C23.8925 12.1631 20.2189 8.46882 15.7509 8.48145C11.2404 8.49408 7.58857 12.1734 7.58398 16.7092C7.58398 21.0946 11.3345 24.8761 15.69 24.8704C20.2005 24.8658 23.9109 21.1612 23.9017 16.677ZM24.2955 15.3178C24.342 15.3076 24.388 15.295 24.4332 15.2799L29.6934 13.1929C29.9379 13.0953 30.0722 12.9139 30.0045 12.651C29.9287 12.3594 29.6945 12.3594 29.4477 12.3973C27.6155 12.6797 25.7825 12.9598 23.9488 13.2376C23.7651 13.2652 23.6951 13.3168 23.7685 13.5154C23.8969 13.8536 24.0069 14.1986 24.098 14.5487C24.1531 14.7668 24.2209 14.7645 24.416 14.6967C25.8533 14.1893 27.2964 13.7003 28.7394 13.2043C28.876 13.1573 29.0161 13.0895 29.225 13.1756C29.1613 13.2136 29.0953 13.2477 29.0275 13.2778C27.5225 13.8139 26.0209 14.3546 24.5113 14.8758C24.2645 14.9654 24.1703 15.063 24.2955 15.3178ZM2.37549 13.1665C2.53047 13.0907 2.63609 13.1665 2.744 13.2078C4.18704 13.7037 5.63008 14.1962 7.06623 14.7071C7.27058 14.7794 7.33601 14.7518 7.39112 14.5521C7.46475 14.2337 7.56656 13.9225 7.69534 13.6222C7.82162 13.3582 7.78488 13.2847 7.49444 13.2411C5.67294 12.9648 3.85335 12.6774 2.03568 12.3789C1.78197 12.3387 1.59599 12.395 1.51219 12.6418C1.42035 12.9139 1.57533 13.0884 1.79919 13.1952C1.9955 13.2881 2.20903 13.3421 2.41108 13.4248C3.92989 14.0309 5.44525 14.6416 6.96636 15.2409C7.04327 15.2707 7.17874 15.4407 7.25221 15.2168C7.31191 15.0366 7.2304 14.9872 7.06049 14.9263C5.83595 14.5039 4.61563 14.0699 3.39951 13.6245C3.0574 13.4959 2.6843 13.4293 2.37549 13.1665ZM14.4536 8.11524C15.2376 7.97749 16.0389 7.96973 16.8254 8.09228C17.0826 8.1382 17.047 8.01306 16.9988 7.85005C16.9083 7.56625 16.7235 7.32196 16.4749 7.15779C16.2264 6.99363 15.9292 6.9195 15.6326 6.94772C15.0311 6.98216 14.5604 7.43562 14.4536 8.1095V8.11524ZM24.3529 16.6736C24.3617 17.1336 24.3232 17.5933 24.2381 18.0455C24.2036 18.2544 24.276 18.2751 24.4528 18.2108C24.8821 18.0638 25.2495 17.5518 25.2472 17.0146C25.2472 16.5921 25.1944 16.1708 25.1668 15.7518C25.1576 15.6037 25.1289 15.5428 24.9475 15.5991C24.9383 15.602 24.9291 15.6049 24.9201 15.6077C24.331 15.793 24.3292 15.7935 24.3563 16.4233C24.3563 16.498 24.3529 16.5829 24.3529 16.6679V16.6736ZM7.13282 16.4796C7.16611 16.2064 7.26828 15.7116 6.58981 15.614C6.57833 15.614 6.56915 15.6025 6.55767 15.5968C6.39465 15.5026 6.34414 15.5819 6.3361 15.738C6.31544 16.1616 6.26263 16.5852 6.27526 17.0077C6.27412 17.2518 6.34095 17.4913 6.46829 17.6996C6.59562 17.9078 6.77842 18.0765 6.9962 18.1867C7.07082 18.2269 7.16037 18.2877 7.23269 18.2383C7.30502 18.189 7.2591 18.0845 7.24532 18.0087C7.15232 17.5027 7.11421 16.9881 7.13167 16.4739L7.13282 16.4796Z" fill="#81AA9D"/>
<path d="M2.37549 13.1665C2.53047 13.0907 2.63609 13.1665 2.744 13.2078C4.18704 13.7037 5.63008 14.1962 7.06623 14.7071C7.27058 14.7794 7.33601 14.7518 7.39112 14.5521C7.46475 14.2337 7.56656 13.9225 7.69534 13.6222C7.82162 13.3582 7.78488 13.2847 7.49444 13.2411C5.67294 12.9648 3.85335 12.6774 2.03568 12.3789C1.78197 12.3387 1.59599 12.395 1.51219 12.6418C1.42035 12.9139 1.57533 13.0884 1.79919 13.1952C1.9955 13.2881 2.20903 13.3421 2.41108 13.4248C3.92989 14.0309 5.44525 14.6416 6.96636 15.2409C7.04327 15.2707 7.17874 15.4407 7.25221 15.2168C7.31191 15.0366 7.2304 14.9872 7.06049 14.9263C5.83595 14.5039 4.61563 14.0699 3.39951 13.6245C3.0574 13.4959 2.6843 13.4293 2.37549 13.1665Z" fill="#81AA9D"/>
<path d="M24.2955 15.3178C24.342 15.3076 24.388 15.295 24.4332 15.2799L29.6934 13.1929C29.9379 13.0953 30.0722 12.9139 30.0045 12.651C29.9287 12.3594 29.6945 12.3594 29.4477 12.3973C27.6155 12.6797 25.7825 12.9598 23.9488 13.2376C23.7651 13.2652 23.6951 13.3168 23.7685 13.5154C23.8969 13.8536 24.0069 14.1986 24.098 14.5487C24.1531 14.7668 24.2209 14.7645 24.416 14.6967C25.8533 14.1893 27.2964 13.7003 28.7394 13.2043C28.876 13.1573 29.0161 13.0895 29.225 13.1756C29.1613 13.2136 29.0953 13.2477 29.0275 13.2778C27.5225 13.8139 26.0209 14.3546 24.5113 14.8758C24.2645 14.9654 24.1703 15.063 24.2955 15.3178Z" fill="#81AA9D"/>
<path d="M24.3529 16.6736C24.3617 17.1336 24.3232 17.5933 24.2381 18.0455C24.2036 18.2544 24.276 18.2751 24.4528 18.2108C24.8821 18.0638 25.2495 17.5518 25.2472 17.0146C25.2472 16.5921 25.1944 16.1708 25.1668 15.7518C25.1576 15.6037 25.1289 15.5428 24.9475 15.5991L24.9201 15.6077C24.331 15.793 24.3292 15.7935 24.3563 16.4233C24.3563 16.498 24.3529 16.5829 24.3529 16.6679V16.6736Z" fill="#81AA9D"/>
<path d="M14.4536 8.11524C15.2376 7.97749 16.0389 7.96973 16.8254 8.09228C17.0826 8.1382 17.047 8.01306 16.9988 7.85005C16.9083 7.56625 16.7235 7.32196 16.4749 7.15779C16.2264 6.99363 15.9292 6.9195 15.6326 6.94772C15.0311 6.98216 14.5604 7.43562 14.4536 8.1095V8.11524Z" fill="#81AA9D"/>
<path d="M7.13282 16.4796C7.16611 16.2064 7.26828 15.7116 6.58981 15.614C6.57833 15.614 6.56915 15.6025 6.55767 15.5968C6.39465 15.5026 6.34414 15.5819 6.3361 15.738C6.31544 16.1616 6.26263 16.5852 6.27526 17.0077C6.27412 17.2518 6.34095 17.4913 6.46829 17.6996C6.59562 17.9078 6.77842 18.0765 6.9962 18.1867C7.07082 18.2269 7.16037 18.2877 7.23269 18.2383C7.30502 18.189 7.2591 18.0845 7.24532 18.0087C7.15232 17.5027 7.11421 16.9881 7.13167 16.4739L7.13282 16.4796Z" fill="#81AA9D"/>
<path d="M15.6972 9.11305C19.5602 9.10502 23.1454 12.2597 23.2143 16.6049C23.2797 20.7584 19.8851 24.2013 15.8143 24.2185C11.7021 24.2357 8.30058 20.8583 8.2891 16.7324C8.27761 12.7958 11.306 9.24048 15.6972 9.11305ZM15.7637 9.85122C12.151 9.76971 8.9492 12.7637 8.94805 16.6692C8.94141 17.5789 9.11633 18.4808 9.46259 19.322C9.80884 20.1633 10.3195 20.927 10.9645 21.5685C11.6096 22.2099 12.3762 22.7162 13.2194 23.0577C14.0626 23.3992 14.9655 23.569 15.8751 23.5572C19.6716 23.5056 22.5037 20.3991 22.5553 16.7128C22.6081 12.9554 19.4775 9.83974 15.7637 9.85122Z" fill="#81AA9D"/>
<path d="M15.7821 10.3652C19.1744 10.3514 22.0479 13.2352 22.0628 16.6643C22.0777 20.0933 19.202 23.0414 15.8487 23.0495C12.353 23.0598 9.45773 20.2254 9.45314 16.7905C9.44625 13.2053 12.2302 10.3789 15.7821 10.3652ZM13.9694 16.631C13.9721 17.0963 14.1534 17.5428 14.4757 17.8784C14.798 18.214 15.2369 18.413 15.7017 18.4345C16.666 18.4551 17.5133 17.6228 17.5282 16.6413C17.5265 16.17 17.3431 15.7176 17.0161 15.3782C16.6891 15.0388 16.2438 14.8386 15.7729 14.8194C14.8109 14.8068 13.982 15.6345 13.9671 16.631H13.9694ZM19.4798 20.8591C19.6149 20.8384 19.7424 20.783 19.8497 20.6983C19.9569 20.6136 20.0403 20.5024 20.0917 20.3758C20.1498 20.2528 20.1613 20.1129 20.1239 19.9822C20.0865 19.8514 20.0028 19.7388 19.8885 19.6651C19.2869 19.2369 18.6773 18.8179 18.0666 18.4023C18.0063 18.3489 17.9276 18.321 17.8471 18.3244C17.7666 18.3278 17.6905 18.3623 17.635 18.4207C17.4983 18.5619 17.5466 18.7169 17.635 18.8535C18.0536 19.4921 18.5219 20.0966 19.0355 20.6616C19.091 20.7231 19.1586 20.7724 19.2341 20.8064C19.3096 20.8403 19.3913 20.8583 19.4741 20.8591H19.4798ZM15.7557 10.8967C15.6611 10.892 15.5666 10.9086 15.4793 10.9454C15.3921 10.9822 15.3142 11.0382 15.2515 11.1093C15.1889 11.1803 15.1431 11.2645 15.1174 11.3557C15.0918 11.4469 15.0871 11.5427 15.1036 11.636C15.1989 12.3317 15.3183 13.0228 15.4331 13.7162C15.4641 13.8987 15.518 14.0973 15.7557 14.0847C15.9749 14.0721 16.0461 13.8838 16.0783 13.699C16.1931 13.0193 16.3079 12.3397 16.4054 11.6567C16.4709 11.1998 16.208 10.9036 15.7557 10.8967ZM20.6588 17.4403C21.2638 17.4575 21.5485 17.2004 21.5439 16.7859C21.5439 16.3956 21.2661 16.0971 20.8654 16.1488C20.1089 16.2372 19.357 16.3692 18.6039 16.4932C18.4432 16.5185 18.2859 16.5988 18.2939 16.7917C18.3008 16.9593 18.4455 17.042 18.5912 17.0695C19.3294 17.2107 20.0687 17.3381 20.6588 17.4472V17.4403ZM11.2038 13.4751C11.1901 13.7047 11.3186 13.8631 11.4863 13.9963C12.0534 14.4555 12.694 14.7942 13.3047 15.181C13.3731 15.2331 13.4589 15.2569 13.5444 15.2475C13.6298 15.2381 13.7084 15.1962 13.7639 15.1305C13.9074 14.9721 13.8351 14.8102 13.7214 14.6713C13.2519 14.1042 12.803 13.5233 12.2784 12.9998C12.0947 12.815 11.8835 12.722 11.624 12.8529C11.5013 12.9048 11.3963 12.9913 11.3217 13.1017C11.2471 13.2122 11.2062 13.3419 11.2038 13.4751ZM19.7083 12.7863C19.6535 12.78 19.5981 12.7848 19.5452 12.8004C19.4924 12.816 19.4432 12.842 19.4006 12.877C18.7508 13.4326 18.2526 14.1191 17.7394 14.7953C17.6998 14.8508 17.6827 14.9192 17.6917 14.9868C17.7006 15.0544 17.7349 15.116 17.7876 15.1592C17.8232 15.2013 17.8726 15.2292 17.927 15.2378C17.9814 15.2464 18.037 15.2353 18.0838 15.2063C18.797 14.8435 19.4783 14.421 20.1204 13.9435C20.3592 13.7667 20.3948 13.4774 20.288 13.2134C20.2436 13.0937 20.1649 12.9897 20.0618 12.9144C19.9587 12.8391 19.8358 12.7957 19.7083 12.7897V12.7863ZM12.1854 20.8912C12.3484 20.913 12.4885 20.7534 12.6274 20.6019C13.0866 20.1014 13.4528 19.5308 13.8546 18.9878C13.9694 18.8386 14.1301 18.6687 13.9487 18.477C13.7846 18.3048 13.5779 18.3794 13.4172 18.4907C12.8225 18.9052 12.2302 19.3219 11.6539 19.7604C11.5484 19.8365 11.4743 19.9484 11.4453 20.0752C11.4164 20.2019 11.4346 20.3349 11.4966 20.4492C11.6137 20.711 11.8134 20.8637 12.1854 20.8912ZM15.0003 21.6386C14.9842 22.1379 15.2689 22.4491 15.6547 22.464C15.7429 22.4645 15.8302 22.4465 15.9111 22.4114C15.992 22.3762 16.0647 22.3246 16.1245 22.2598C16.1844 22.195 16.23 22.1184 16.2586 22.035C16.2872 21.9515 16.2981 21.8631 16.2906 21.7752C16.2091 21.0175 16.0897 20.2633 15.9818 19.5079C15.9804 19.4337 15.9505 19.3629 15.8984 19.3102C15.8463 19.2574 15.7759 19.2266 15.7017 19.2243C15.5215 19.2163 15.4388 19.3448 15.409 19.4952C15.262 20.2391 15.1231 20.9888 15.0003 21.6363V21.6386ZM10.7527 17.4575C11.4013 17.3427 12.1624 17.2153 12.9236 17.0787C12.997 17.0706 13.0647 17.0352 13.1132 16.9795C13.1617 16.9237 13.1875 16.8518 13.1853 16.7779C13.1908 16.7163 13.1723 16.655 13.1335 16.6068C13.0948 16.5587 13.0388 16.5274 12.9775 16.5196C12.1934 16.3715 11.4128 16.2005 10.6172 16.1477C10.532 16.1451 10.4472 16.1601 10.368 16.1917C10.2889 16.2234 10.2171 16.271 10.1572 16.3317C10.0973 16.3923 10.0505 16.4647 10.0199 16.5443C9.98919 16.6238 9.97525 16.7088 9.97892 16.794C9.97548 17.1855 10.2407 17.4472 10.7492 17.4552L10.7527 17.4575Z" fill="#81AA9D"/>
<path d="M15.7419 17.9513C15.4 17.9443 15.0737 17.8069 14.8298 17.5672C14.5859 17.3276 14.4428 17.0038 14.4297 16.6621C14.4297 15.9538 15.037 15.296 15.7109 15.2845C16.0647 15.2804 16.4056 15.417 16.6587 15.6643C16.9117 15.9115 17.0562 16.2492 17.0603 16.603C17.0644 16.9568 16.9278 17.2977 16.6806 17.5508C16.4333 17.8039 16.0956 17.9484 15.7419 17.9525V17.9513ZM16.6867 16.5622C16.6896 16.4414 16.6684 16.3212 16.6244 16.2086C16.5804 16.096 16.5144 15.9933 16.4303 15.9064C16.3463 15.8196 16.2457 15.7503 16.1346 15.7027C16.0235 15.655 15.9041 15.6299 15.7832 15.6289C15.5302 15.6161 15.2824 15.7044 15.0945 15.8742C14.9065 16.0441 14.7938 16.2817 14.781 16.5347C14.7682 16.7877 14.8564 17.0354 15.0263 17.2234C15.1962 17.4113 15.4337 17.5241 15.6868 17.5369C15.8168 17.54 15.9461 17.517 16.0671 17.4694C16.1882 17.4219 16.2985 17.3506 16.3916 17.2598C16.4848 17.169 16.5588 17.0606 16.6095 16.9408C16.6602 16.821 16.6864 16.6923 16.6867 16.5622Z" fill="#81AA9D"/>
</svg>
