<?xml version="1.0" encoding="utf-8"?><svg xmlns="http://www.w3.org/2000/svg" xmlns:xlink="http://www.w3.org/1999/xlink"><symbol viewBox="0 0 24 24" id="arrow-down-check" xmlns="http://www.w3.org/2000/svg">
    <path d="M6 9L12 15L18 9" stroke-width="2" stroke-linecap="round" stroke-linejoin="round"/>
</symbol><symbol viewBox="0 0 24 24" id="arrow-left" xmlns="http://www.w3.org/2000/svg">
    <path d="M20 12H4" stroke-width="2" stroke-linecap="round" stroke-linejoin="round"/>
    <path d="M10 18L4 12L10 6" stroke-width="2" stroke-linecap="round" stroke-linejoin="round"/>
</symbol><symbol viewBox="0 0 24 24" id="arrow-left-check" xmlns="http://www.w3.org/2000/svg">
    <path d="M15 6L9 12L15 18" stroke-width="2" stroke-linecap="round" stroke-linejoin="round"/>
</symbol><symbol viewBox="0 0 24 24" id="arrow-right" xmlns="http://www.w3.org/2000/svg">
    <path d="M4 12H20" stroke-width="2" stroke-linecap="round" stroke-linejoin="round"/>
    <path d="M14 6L20 12L14 18" stroke-width="2" stroke-linecap="round" stroke-linejoin="round"/>
</symbol><symbol viewBox="0 0 24 24" id="arrow-right-check" xmlns="http://www.w3.org/2000/svg">
    <path d="M9 18L15 12L9 6" stroke-width="2" stroke-linecap="round" stroke-linejoin="round"/>
</symbol><symbol viewBox="0 0 24 24" id="arrow-up-check" xmlns="http://www.w3.org/2000/svg">
    <path d="M18 15L12 9L6 15" stroke-width="2" stroke-linecap="round" stroke-linejoin="round"/>
</symbol><symbol viewBox="0 0 24 24" id="bus" xmlns="http://www.w3.org/2000/svg">
    <g clip-path="url(#gclip0_1361_24732)">
        <path d="M19.9289 19.7002H21.3039C22.2505 19.7002 23.0182 18.9327 23.0182 17.9859V13.6405C23.0182 12.6937 22.2505 11.9262 21.3039 11.9262H20.3574V5.7857C20.3574 4.83893 19.5899 4.07141 18.6431 4.07141H2.88811C1.94135 4.07141 1.17383 4.83893 1.17383 5.7857V18.2299C1.17383 19.0419 1.8321 19.7002 2.64412 19.7002H3.42885" stroke-width="2" stroke-linecap="round" stroke-linejoin="round"/>
        <path d="M20.3571 7.2146H1.1748" stroke-width="2" stroke-linecap="round" stroke-linejoin="round"/>
        <path d="M20.3571 11.9259H1.1748" stroke-width="2" stroke-linecap="round" stroke-linejoin="round"/>
        <path d="M7.65332 7.2146V11.9196" stroke-width="2" stroke-linecap="round" stroke-linejoin="round"/>
        <path d="M13.7686 7.2146V11.9196" stroke-width="2" stroke-linecap="round" stroke-linejoin="round"/>
        <path d="M5.81209 22.0697C7.13378 22.0697 8.20523 20.9983 8.20523 19.6766C8.20523 18.3549 7.13378 17.2834 5.81209 17.2834C4.49039 17.2834 3.41895 18.3549 3.41895 19.6766C3.41895 20.9983 4.49039 22.0697 5.81209 22.0697Z" stroke-width="2" stroke-linecap="round" stroke-linejoin="round"/>
        <path d="M17.5377 22.0697C18.8594 22.0697 19.9308 20.9983 19.9308 19.6766C19.9308 18.3549 18.8594 17.2834 17.5377 17.2834C16.216 17.2834 15.1445 18.3549 15.1445 19.6766C15.1445 20.9983 16.216 22.0697 17.5377 22.0697Z" stroke-width="2" stroke-linecap="round" stroke-linejoin="round"/>
        <path d="M8.20508 19.6764H11.6651H15.1438" stroke-width="1.5" stroke-linecap="round" stroke-linejoin="round"/>
    </g>
    <defs>
        <clipPath id="gclip0_1361_24732">
            <rect width="24" height="24"/>
        </clipPath>
    </defs>
</symbol><symbol viewBox="0 0 24 24" id="car" xmlns="http://www.w3.org/2000/svg">
    <g clip-path="url(#hclip0_1361_24742)">
        <path d="M3.42885 18.8572H2.57171C2.11704 18.8572 1.68102 18.6766 1.35952 18.355C1.03803 18.0336 0.857422 17.5975 0.857422 17.1429V13.7143C0.857422 13.2597 1.03803 12.8236 1.35952 12.5021C1.68102 12.1806 2.11704 12 2.57171 12H5.14314L6.46314 8.0229C6.58242 7.66808 6.81456 7.36205 7.12411 7.15155C7.43366 6.94105 7.80359 6.83768 8.17742 6.85719H15.0517C15.4255 6.83768 15.7955 6.94105 16.105 7.15155C16.4146 7.36205 16.6467 7.66808 16.766 8.0229L18.0003 12H21.4289C21.8835 12 22.3196 12.1806 22.641 12.5021C22.9625 12.8236 23.1431 13.2597 23.1431 13.7143V17.1429C23.1431 17.5975 22.9625 18.0336 22.641 18.355C22.3196 18.6766 21.8835 18.8572 21.4289 18.8572H20.5717" stroke-width="2" stroke-linecap="round" stroke-linejoin="round"/>
        <path d="M17.998 21.4284C16.5769 21.4284 15.4248 20.2764 15.4248 18.8553C15.4248 17.434 16.5769 16.282 17.998 16.282C19.4193 16.282 20.5713 17.434 20.5713 18.8553C20.5713 20.2764 19.4193 21.4284 17.998 21.4284Z" stroke-width="2" stroke-linecap="round" stroke-linejoin="round"/>
        <path d="M5.99805 21.4284C4.57689 21.4284 3.4248 20.2764 3.4248 18.8553C3.4248 17.4342 4.57689 16.282 5.99805 16.282C7.41921 16.282 8.5713 17.4342 8.5713 18.8553C8.5713 20.2764 7.41921 21.4284 5.99805 21.4284Z" stroke-width="2" stroke-linecap="round" stroke-linejoin="round"/>
        <path d="M15.4248 18.8572H8.57129" stroke-width="1.5" stroke-linecap="round" stroke-linejoin="round"/>
    </g>
    <defs>
        <clipPath id="hclip0_1361_24742">
            <rect width="24" height="24"/>
        </clipPath>
    </defs>
</symbol><symbol viewBox="0 0 24 24" id="check" xmlns="http://www.w3.org/2000/svg">
    <path d="M20 7L9 18L4 13" stroke-width="2" stroke-linecap="round" stroke-linejoin="round"/>
</symbol><symbol viewBox="0 0 24 24" id="close" xmlns="http://www.w3.org/2000/svg">
    <path d="M18 6L6 18" stroke-width="2" stroke-linecap="round" stroke-linejoin="round"/>
    <path d="M6 6L18 18" stroke-width="2" stroke-linecap="round" stroke-linejoin="round"/>
</symbol><symbol viewBox="0 0 24 24" id="download" xmlns="http://www.w3.org/2000/svg">
    <path d="M4 12V20C4 21.1046 4.89543 22 6 22H18C19.1046 22 20 21.1046 20 20V12" stroke-width="2" stroke-linecap="round" stroke-linejoin="round"/>
    <path d="M16 6L12 2L8 6" stroke-width="2" stroke-linecap="round" stroke-linejoin="round"/>
    <path d="M12 2V15" stroke-width="2" stroke-linecap="round" stroke-linejoin="round"/>
</symbol><symbol viewBox="0 0 24 24" id="file" xmlns="http://www.w3.org/2000/svg">
    <path fill-rule="evenodd" clip-rule="evenodd" d="M12.9998 1.93787H5.99976C4.89519 1.93787 3.99976 2.8333 3.99976 3.93787V19.9379C3.99976 21.0424 4.89519 21.9379 5.99976 21.9379H17.9998C19.1043 21.9379 19.9998 21.0424 19.9998 19.9379V8.93787L12.9998 1.93787Z" stroke-width="2" stroke-linecap="round" stroke-linejoin="round"/>
    <path d="M13.0908 2.18182V8.72728H19.6363" stroke-width="2" stroke-linecap="round" stroke-linejoin="round"/>
</symbol><symbol viewBox="0 0 24 24" id="home" xmlns="http://www.w3.org/2000/svg">
    <path fill-rule="evenodd" clip-rule="evenodd" d="M3 9L12 2L21 9V20C21 21.1046 20.1046 22 19 22H5C3.89543 22 3 21.1046 3 20V9Z" stroke-width="2" stroke-linecap="round" stroke-linejoin="round"/>
    <path d="M9 22V12H15V22" stroke-width="2" stroke-linecap="round" stroke-linejoin="round"/>
</symbol><symbol viewBox="0 0 24 17" id="icon-arrow-left" xmlns="http://www.w3.org/2000/svg">
    <g opacity="0.5">
        <path d="M21.5 8.5H2.5" stroke-width="1.5" stroke-linecap="square" stroke-linejoin="round"/>
        <path d="M6 12.5L2 8.5L6 4.5" stroke-width="1.5" stroke-linecap="square" stroke-linejoin="round"/>
    </g>
</symbol><symbol viewBox="0 0 25 17" id="icon-arrow-right" xmlns="http://www.w3.org/2000/svg">
    <path d="M2.75195 8.5H21.752" stroke-width="1.5" stroke-linecap="square" stroke-linejoin="round"/>
    <path d="M18.252 12.5L22.252 8.5L18.252 4.5" stroke-width="1.5" stroke-linecap="square" stroke-linejoin="round"/>
</symbol><symbol viewBox="0 0 25 17" id="icon-arrow-right1" xmlns="http://www.w3.org/2000/svg">
    <g opacity="0.5">
        <path d="M2.75195 8.5H21.752" stroke-width="1.5" stroke-linecap="square" stroke-linejoin="round"/>
        <path d="M18.252 12.5L22.252 8.5L18.252 4.5" stroke-width="1.5" stroke-linecap="square" stroke-linejoin="round"/>
    </g>
</symbol><symbol viewBox="0 0 24 24" id="info" xmlns="http://www.w3.org/2000/svg">
    <path fill-rule="evenodd" clip-rule="evenodd" d="M12 22C17.5228 22 22 17.5228 22 12C22 6.47715 17.5228 2 12 2C6.47715 2 2 6.47715 2 12C2 17.5228 6.47715 22 12 22Z" stroke-width="2" stroke-linecap="round" stroke-linejoin="round"/>
    <path d="M12 16V12" stroke-width="2" stroke-linecap="round" stroke-linejoin="round"/>
    <circle cx="12" cy="8" r="1"/>
</symbol><symbol viewBox="0 0 24 24" id="mail" xmlns="http://www.w3.org/2000/svg">
    <path fill-rule="evenodd" clip-rule="evenodd" d="M4 4H20C21.1 4 22 4.9 22 6V18C22 19.1 21.1 20 20 20H4C2.9 20 2 19.1 2 18V6C2 4.9 2.9 4 4 4Z" stroke-width="2" stroke-linecap="round" stroke-linejoin="round"/>
    <path d="M22 6L12 13L2 6" stroke-width="2" stroke-linecap="round" stroke-linejoin="round"/>
</symbol><symbol viewBox="0 0 24 24" id="map" xmlns="http://www.w3.org/2000/svg">
    <path fill-rule="evenodd" clip-rule="evenodd" d="M1 6V22L8 18L16 22L23 18V2L16 6L8 2L1 6V6Z" stroke-width="2" stroke-linecap="round" stroke-linejoin="round"/>
    <path d="M8 2V18" stroke-width="2" stroke-linecap="round" stroke-linejoin="round"/>
    <path d="M16 6V22" stroke-width="2" stroke-linecap="round" stroke-linejoin="round"/>
</symbol><symbol viewBox="0 0 24 24" id="map-pin" xmlns="http://www.w3.org/2000/svg">
    <path fill-rule="evenodd" clip-rule="evenodd" d="M21 10C21 17 12 23 12 23C12 23 3 17 3 10C3 5.02944 7.02944 1 12 1C16.9706 1 21 5.02944 21 10V10Z" stroke-width="2" stroke-linecap="round" stroke-linejoin="round"/>
    <path fill-rule="evenodd" clip-rule="evenodd" d="M12 13C13.6569 13 15 11.6569 15 10C15 8.34315 13.6569 7 12 7C10.3431 7 9 8.34315 9 10C9 11.6569 10.3431 13 12 13Z" stroke-width="2" stroke-linecap="round" stroke-linejoin="round"/>
</symbol><symbol viewBox="0 0 24 24" id="paperclip" xmlns="http://www.w3.org/2000/svg">
    <path d="M21.4383 11.6622L12.2483 20.8522C9.90389 23.1967 6.10279 23.1967 3.75834 20.8522C1.41389 18.5078 1.41389 14.7067 3.75834 12.3622L12.9483 3.17222C14.5113 1.60926 17.0454 1.60926 18.6083 3.17222C20.1713 4.73519 20.1713 7.26926 18.6083 8.83222L9.40834 18.0222C8.62685 18.8037 7.35982 18.8037 6.57834 18.0222C5.79685 17.2407 5.79685 15.9737 6.57834 15.1922L15.0683 6.71222" stroke-width="2" stroke-linecap="round" stroke-linejoin="round"/>
</symbol><symbol viewBox="0 0 24 24" id="phone" xmlns="http://www.w3.org/2000/svg">
    <path fill-rule="evenodd" clip-rule="evenodd" d="M21.0004 16.9201V19.9201C21.0027 20.4832 20.7675 21.0213 20.3525 21.402C19.9375 21.7827 19.3813 21.9708 18.8204 21.9201C15.7433 21.5857 12.7874 20.5342 10.1904 18.8501C7.77426 17.3148 5.72576 15.2663 4.19043 12.8501C2.50041 10.2413 1.44867 7.27109 1.12043 4.1801C1.0699 3.62097 1.2567 3.06635 1.63519 2.65172C2.01369 2.23709 2.54902 2.00063 3.11043 2.0001H6.11043C7.11429 1.99022 7.96993 2.72607 8.11043 3.7201C8.23705 4.68016 8.47188 5.62283 8.81043 6.5301C9.08516 7.26097 8.90944 8.0849 8.36043 8.6401L7.09043 9.9101C8.51398 12.4136 10.5869 14.4865 13.0904 15.9101L14.3604 14.6401C14.9156 14.0911 15.7396 13.9154 16.4704 14.1901C17.3777 14.5286 18.3204 14.7635 19.2804 14.8901C20.286 15.032 21.0256 15.9049 21.0004 16.9201Z" stroke-width="2" stroke-linecap="round" stroke-linejoin="round"/>
</symbol><symbol viewBox="0 0 24 25" id="search" xmlns="http://www.w3.org/2000/svg">
    <path fill-rule="evenodd" clip-rule="evenodd" d="M14.95 10.788C14.95 12.9971 13.1591 14.788 10.95 14.788C8.74081 14.788 6.94995 12.9971 6.94995 10.788C6.94995 8.57882 8.74081 6.78796 10.95 6.78796C13.1591 6.78796 14.95 8.57882 14.95 10.788ZM13.7031 16.1204C12.8785 16.547 11.9424 16.788 10.95 16.788C7.63624 16.788 4.94995 14.1017 4.94995 10.788C4.94995 7.47426 7.63624 4.78796 10.95 4.78796C14.2637 4.78796 16.95 7.47426 16.95 10.788C16.95 12.3904 16.3218 13.8461 15.2983 14.9223L18.8569 18.4809C19.2474 18.8714 19.2474 19.5045 18.8569 19.8951C18.4663 20.2856 17.8332 20.2856 17.4426 19.8951L13.8426 16.2951C13.7887 16.2411 13.7421 16.1824 13.7031 16.1204Z"/>
</symbol></svg>