<svg width="32" height="32" viewBox="0 0 32 32" fill="none" xmlns="http://www.w3.org/2000/svg">
<path d="M5.08684 28.9853V26.636C6.56386 26.5059 8.03538 26.6654 9.56554 26.5481C9.40794 26.242 9.18437 26.1962 9.00112 26.0991C5.38738 24.2079 2.9721 21.362 2.14747 17.3158C1.72316 15.2348 1.88947 13.0766 2.62759 11.0852C3.35276 9.05562 4.60662 7.25644 6.25966 5.87349C10.0951 2.63908 15.721 1.98487 20.1869 4.68235C23.3278 6.57902 25.2392 9.37729 25.9392 12.969C26.1481 14.0447 26.0949 15.1461 26.018 16.2566C25.9054 18.0745 25.3621 19.8395 24.4328 21.406C23.4242 23.1192 21.9982 24.549 20.2877 25.5622C19.945 25.7674 19.9431 25.7619 20.0604 26.275C20.5496 26.1056 21.0105 25.8634 21.4275 25.5567C21.5254 25.4784 21.6396 25.4232 21.7617 25.3949C21.8838 25.3667 22.0107 25.3662 22.133 25.3936C22.6535 25.52 23.0786 25.3294 23.4359 24.93C23.6594 24.7097 23.8962 24.5034 24.1451 24.3124C24.2954 24.9923 24.4493 25.6043 24.5593 26.2237C24.6106 26.5206 24.7425 26.6122 25.0284 26.6031C25.6167 26.5829 26.2067 26.6031 26.8298 26.6031V29L5.08684 28.9853ZM13.7437 24.919C19.2706 24.9574 23.5862 20.3651 23.6687 15.2395C23.7475 10.31 19.6371 5.54364 14.1689 5.56746C8.52833 5.59128 4.5041 9.48907 4.1156 14.5688C3.63914 20.8068 8.63645 24.9171 13.7437 24.919Z" fill="#81AA9D"/>
<path d="M26.5835 10.603C27.0819 10.4913 27.3989 10.603 27.683 11.0245C29.4495 13.5901 29.6603 16.2985 28.5791 19.1719C28.3427 19.8023 27.9579 20.3319 27.5987 20.8854C27.3421 21.2794 27.0233 21.5231 26.5138 21.4351C26.2973 21.4178 26.0798 21.4178 25.8633 21.4351C27.7251 17.9277 28.066 14.3377 26.5835 10.603Z" fill="#81AA9D"/>
<path d="M22.3672 24.8149C27.9619 19.9258 27.7567 11.9781 24.4324 7.57635C24.8851 7.54703 24.8796 7.55253 25.1435 7.89888C26.2825 9.39668 27.0426 11.1476 27.359 13.0025C27.6941 14.838 27.5981 16.7263 27.0786 18.5184C26.5142 20.503 25.5979 22.2292 24.1814 23.6989C23.7727 24.1204 23.2944 24.4759 22.8473 24.8589C22.6915 24.9927 22.5413 24.9615 22.3672 24.8149Z" fill="#81AA9D"/>
<path d="M28.1692 11.8917C29.2046 12.9253 29.6554 14.2154 29.6957 15.6576C29.747 17.4993 29.2944 19.1595 27.832 20.4221C28.5897 19.1432 29.0108 17.6931 29.0562 16.2073C29.1138 14.7182 28.8094 13.2374 28.1692 11.8917Z" fill="#81AA9D"/>
<path d="M28.5906 12.4125C29.811 13.5835 30.1537 15.0678 29.987 16.7043C29.9457 17.2842 29.7887 17.8501 29.5253 18.3685C29.2618 18.8868 28.8973 19.3472 28.4531 19.7224C29.8367 17.2998 29.9118 14.8827 28.5906 12.4125Z" fill="#81AA9D"/>
<path d="M4.46636 15.1788C4.37473 10.504 8.44661 5.87318 13.8123 6.00329C18.8755 6.12607 22.9291 10.2016 22.8613 15.2154C22.7935 20.2292 18.5603 24.4165 13.5777 24.3469C8.5419 24.2791 4.41138 20.1211 4.46636 15.1788ZM12.7476 18.2556C13.1965 18.2556 13.6455 18.3069 14.078 18.1859C14.5543 19.8208 15.5318 21.2649 16.8726 22.3146C17.01 22.4154 17.1346 22.5217 17.327 22.4062C17.6936 22.1863 18.0729 21.9848 18.531 21.7282C16.682 20.9549 15.3882 19.7344 14.5966 18.0027C15.0364 17.8359 15.3864 17.4529 15.7987 17.1652C15.8446 17.2611 15.8972 17.3536 15.9563 17.4419C16.0237 17.5169 16.0973 17.5862 16.1762 17.649C17.0223 18.3832 18.0362 18.8974 19.1284 19.1462C20.7612 19.531 20.2976 19.6355 21.1937 18.2794C21.1937 18.2794 21.1937 18.2482 21.168 18.1878C19.3447 18.2556 17.6019 17.9349 16.0369 16.8262C16.5739 15.9374 16.8084 14.9937 16.4584 13.9839C18.2103 13.4342 19.5371 12.3805 20.6238 10.9969C20.7026 10.898 20.763 10.7899 20.6934 10.6726C20.4735 10.3061 20.3397 9.89191 19.9714 9.5529C19.2915 11.2945 17.9719 12.7104 16.2825 13.5112C16.1909 13.1447 15.8317 12.8973 15.6063 12.5729C16.7748 11.3779 17.5344 9.84329 17.776 8.1895C17.7992 8.11619 17.7964 8.03711 17.768 7.96565C17.7397 7.89419 17.6874 7.83473 17.6202 7.79733C17.2537 7.59759 16.9294 7.32638 16.4474 7.1981C16.6197 9.05995 16.2752 10.7605 15.183 12.2595C14.9063 11.9407 14.4262 11.9095 14.0835 11.6383C14.3984 10.0651 14.1912 8.43209 13.4934 6.98736C13.4183 6.83892 13.3633 6.68499 13.1269 6.70332C12.6726 6.72033 12.2206 6.77736 11.7763 6.87374C12.958 8.15937 13.6157 9.84078 13.6198 11.587L12.3371 11.7703C11.7087 10.3108 10.6705 9.06507 9.34822 8.184C9.16496 8.06855 9.0092 7.97142 8.79846 8.13819C8.47227 8.40207 8.13142 8.6458 7.69894 8.96466C9.60294 9.34582 10.8454 10.482 11.8258 12.0067C11.4919 12.2179 11.1812 12.4636 10.8985 12.7397C10.7501 12.6499 10.6163 12.5766 10.4917 12.4923C9.35897 11.7196 8.0201 11.3052 6.6489 11.303C6.4913 11.303 6.2824 11.2132 6.18527 11.4019C5.92246 11.8721 5.72283 12.3749 5.59153 12.8973C7.66596 12.3145 8.91208 12.3897 10.5394 13.1776C10.3008 13.6396 10.1292 14.1333 10.0299 14.6437C8.36415 14.5355 6.96959 15.1733 5.65934 16.0639C5.5164 16.1628 5.3643 16.2343 5.41928 16.4524C5.55305 16.9783 5.68133 17.5061 5.83892 18.142C6.40151 17.3356 6.92561 16.6466 7.65496 16.1665C8.38431 15.6864 9.13931 15.2704 10.0666 15.1916C10.0953 15.7456 10.2623 16.2836 10.5522 16.7566C9.30253 17.685 8.39942 19.0048 7.98665 20.5059C7.92984 20.7075 7.8034 20.9311 8.0233 21.1198C8.36781 21.4313 8.71783 21.7392 9.14481 22.1185C9.14481 20.1944 9.62126 18.5543 10.9352 17.2055C11.2742 17.605 11.7342 17.7956 12.1153 18.0723C11.6179 19.6405 11.623 21.3249 12.13 22.89C12.1758 23.0311 12.1923 23.1997 12.392 23.2199C12.8887 23.2712 13.3779 23.4325 13.8819 23.3628C13.8819 23.3262 13.9002 23.3042 13.8929 23.2932C13.8086 23.1301 13.7206 22.967 13.6345 22.8057C12.885 21.391 12.3627 19.9305 12.6889 18.2922L12.7476 18.2556ZM21.8222 13.458C20.383 14.5827 18.6018 15.1803 16.7755 15.1513C16.7516 15.2814 16.7278 15.3767 16.7186 15.4738C16.7203 15.526 16.7289 15.5778 16.7443 15.6277C16.8037 15.6527 16.865 15.6729 16.9276 15.6882C18.5347 15.9484 20.0758 15.6754 21.5767 15.0945C21.6573 15.0723 21.7285 15.0246 21.7797 14.9585C21.8309 14.8924 21.8594 14.8115 21.8607 14.728C21.9106 14.3051 21.8977 13.8771 21.8222 13.458Z" fill="#81AA9D"/>
<path d="M12.697 18.3018L12.6641 18.2358L12.7447 18.256L12.697 18.3018Z" fill="#81AA9D"/>
<path d="M11.966 15.4108L11.9531 15.4859L11.966 15.4016V15.4108Z" fill="#81AA9D"/>
<circle cx="13.4288" cy="15.0475" r="2.70228" stroke="#81AA9D" stroke-width="0.274896" stroke-linecap="round"/>
<circle cx="13.4269" cy="15.0475" r="1.66125" stroke="#81AA9D" stroke-width="0.274896" stroke-linecap="round"/>
<path d="M13.9408 13.0228C13.7764 12.9824 13.6046 12.9611 13.4277 12.9611C12.2423 12.9611 11.2812 13.9221 11.2812 15.1076C11.2812 16.293 12.2423 17.2541 13.4277 17.2541C14.6132 17.2541 15.5742 16.293 15.5742 15.1076C15.5742 14.6637 15.4395 14.2513 15.2087 13.909" stroke="#81AA9D" stroke-width="0.274896" stroke-linecap="round"/>
</svg>
