<svg width="29" height="28" viewBox="0 0 29 28" fill="none" xmlns="http://www.w3.org/2000/svg">
<mask id="mask0_1829_689" style="mask-type:luminance" maskUnits="userSpaceOnUse" x="0" y="0" width="29" height="28">
<path d="M28.8408 14C28.8408 6.26801 22.5728 0 14.8408 0C7.10883 0 0.84082 6.26801 0.84082 14C0.84082 21.732 7.10883 28 14.8408 28C22.5728 28 28.8408 21.732 28.8408 14Z" fill="white"/>
</mask>
<g mask="url(#mask0_1829_689)">
<path d="M28.8408 0H0.84082V28H28.8408V0Z" fill="#100943"/>
<path d="M28.8408 14C36.5729 14 42.8408 7.73199 42.8408 5.72205e-06C42.8408 -7.73199 36.5729 -14 28.8408 -14C21.1088 -14 14.8408 -7.73199 14.8408 5.72205e-06C14.8408 7.73199 21.1088 14 28.8408 14Z" fill="#ED143B"/>
<path d="M18.1363 13.3608H9.86415V10.0874H18.1363C18.6195 10.0874 18.9555 10.1716 19.1241 10.3187C19.2927 10.4657 19.3972 10.7385 19.3972 11.137V12.3124C19.3972 12.7322 19.2927 13.005 19.1241 13.1521C18.9555 13.2992 18.6195 13.362 18.1363 13.362V13.3608ZM18.7039 7.00125H6.35596V21H9.86415V16.4456H16.3294L19.3972 21H23.3257L19.9433 16.4243C21.1903 16.2395 21.7502 15.8573 22.212 15.2275C22.6738 14.5977 22.9054 13.5908 22.9054 12.247V11.1974C22.9054 10.4004 22.821 9.77058 22.6738 9.28788C22.5266 8.80515 22.275 8.3853 21.9176 8.00817C21.5401 7.65117 21.1198 7.39974 20.6152 7.2313C20.1106 7.08423 19.4802 7 18.7039 7V7.00125Z" fill="white"/>
</g>
</svg>
