<svg width="1273" height="915" viewBox="0 0 1273 915" fill="none" xmlns="http://www.w3.org/2000/svg">
<path d="M7 7H685.88C761.5 7 794.826 54.4534 794.826 112.994C794.826 113.905 794.815 114.817 794.794 115.728C792.972 187.592 716.066 232.587 651.799 200.439L577.647 163.351C513.38 131.203 436.474 176.187 434.651 248.062C434.63 248.973 434.62 249.885 434.62 250.796C434.62 251.708 434.63 252.619 434.651 253.531C436.474 325.395 513.38 370.389 577.647 338.241L651.799 301.154C716.066 269.006 792.972 313.99 794.794 385.864C794.815 386.776 794.826 387.687 794.826 388.599C794.826 389.51 794.815 390.422 794.794 391.333C792.972 463.197 716.066 508.192 651.799 476.044L577.647 438.956C513.38 406.808 436.474 451.792 434.651 523.667C434.63 524.578 434.62 525.49 434.62 526.401C434.62 527.313 434.63 528.224 434.651 529.136C436.463 600.523 512.088 645.867 576.609 615.341L661.313 575.264C725.844 544.728 801.469 590.072 803.27 661.469C803.291 662.381 803.302 663.292 803.302 664.204C803.302 665.115 803.291 666.027 803.27 666.938C801.448 738.802 724.541 783.796 660.274 751.649L586.123 714.561C521.856 682.413 444.949 727.397 443.127 799.272C443.106 800.183 443.095 801.095 443.095 802.006C443.095 860.547 490.527 908 549.042 908H1266" stroke="#DDDDE1" stroke-width="13" stroke-linecap="round"/>
</svg>
