<svg width="115" height="116" viewBox="0 0 115 116" fill="none" xmlns="http://www.w3.org/2000/svg">
<rect y="0.5" width="115" height="115" rx="57.5" fill="white"/>
<path d="M74.7268 58.625C75.5989 59.5783 76.2916 60.6801 76.7718 61.8777C77.3677 64.1488 76.7644 66.2147 75.3374 66.5663C75.1983 66.6043 75.0549 66.624 74.9107 66.625C73.8882 66.6323 72.8437 65.6799 72.2037 64.2513C72.1112 64.4495 71.9694 64.6208 71.7918 64.749C71.6141 64.8772 71.4065 64.9581 71.1886 64.9839C70.974 64.9739 70.7677 64.8981 70.5979 64.767C70.4281 64.6359 70.303 64.4558 70.2397 64.2513C69.9974 63.4885 69.9378 62.6797 70.0655 61.8897C70.1932 61.0997 70.5048 60.3505 70.9753 59.7019L74.7268 58.625Z" fill="#4C8674"/>
<path d="M60.4745 99.6251C57.9927 99.6251 55.9927 100.801 56 102.217C56.0094 102.488 56.0795 102.755 56.2055 102.998C56.3207 103.22 56.4803 103.418 56.6748 103.581C56.71 103.61 56.7549 103.625 56.8007 103.625L64.2006 103.583C64.2457 103.583 64.2896 103.568 64.3242 103.539C64.5192 103.377 64.6791 103.178 64.7946 102.956C64.9205 102.712 64.9906 102.446 65 102.174C64.9781 100.752 62.9635 99.611 60.4745 99.6251Z" fill="#D1493F"/>
<path d="M42.5602 100.728C42.5476 100.729 42.5349 100.73 42.5227 100.733C41.5138 100.966 40.5363 101.295 39.6074 101.714C39.2015 101.912 38.7662 102.059 38.3142 102.15C38.2553 102.161 38.2033 102.197 38.1762 102.251C38.0506 102.499 37.9905 102.77 38.0012 103.042C38.0012 103.208 38.038 103.307 38.0687 103.357C38.0874 103.388 38.1228 103.399 38.1588 103.399L49.5817 103.501C49.683 103.502 49.7699 103.428 49.7851 103.328C49.916 102.46 49.9873 101.586 49.9985 100.71C49.9999 100.596 49.9067 100.503 49.7923 100.505C48.7083 100.522 46.2857 100.571 42.5602 100.728Z" fill="#D1493F"/>
<path d="M50.1084 26.4896C50.0571 26.4195 49.9662 26.3941 49.8842 26.4226L46.1176 27.7342L49.067 41.9789C49.1655 42.4546 49.5846 42.7958 50.0704 42.7958H57.8684C58.3318 42.7958 58.7375 42.4847 58.8578 42.0372L62.5779 28.2046L58.7476 27.182C58.6882 27.1661 58.6249 27.1775 58.5756 27.2141C57.7125 27.8541 56.3816 29.1145 53.945 29.0693C51.5526 29.025 50.7058 27.3047 50.1084 26.4896Z" fill="#C9CBC8"/>
<path d="M74.7146 58.697L75.8154 58.3828C75.9192 58.3531 75.9861 58.2659 75.9631 58.1604C75.4653 55.8752 70.0602 31.2537 68.0715 30.2847C65.986 29.2685 65.4592 29.1275 65.4592 29.1275L61.2002 47.4439C61.0888 47.9229 61.3334 48.4135 61.783 48.6128L65.8213 50.4026L66.0713 48.3734C66.0987 48.1505 66.413 48.1278 66.4723 48.3444L69.6462 59.9352C69.6764 60.0452 69.7905 60.1094 69.9002 60.0781L70.8811 59.798L74.7146 58.697Z" fill="#C9CBC8"/>
<path d="M58.0226 55.4977C58.0226 55.5751 58.0572 55.6484 58.1169 55.6976L64.3147 60.8025L64.4005 60.106L58.4443 55.2962C58.2749 55.1594 58.0226 55.28 58.0226 55.4977Z" fill="#005339"/>
<path d="M42.4558 99.9933C42.4501 100.114 42.5505 100.213 42.671 100.208C46.5838 100.033 49.0652 99.9774 50.0451 99.9589C50.1481 99.957 50.2336 99.879 50.2451 99.7766L53.5844 69.8394C53.6115 69.5964 53.9646 69.5964 53.9917 69.8394L57.3484 99.9256C57.3642 100.067 57.5165 100.15 57.6463 100.091C58.687 99.6179 59.8202 99.3769 60.9665 99.3864C62.2282 99.3515 63.4763 99.6337 64.5967 100.204C64.7381 100.276 64.9098 100.174 64.9074 100.016L64.3147 60.8025L58.1169 55.6976C58.0572 55.6484 58.0226 55.5751 58.0226 55.4977C58.0226 55.28 58.2749 55.1594 58.4443 55.2962L64.4005 60.106L65.8213 50.4026L61.783 48.6128C61.3334 48.4135 61.0888 47.9229 61.2002 47.4439L65.4592 29.1275L62.5779 28.2046L58.8578 42.0372C58.7375 42.4847 58.3318 42.7958 57.8684 42.7958H50.0704C49.5846 42.7958 49.1655 42.4546 49.067 41.9789L46.1176 27.7342L43.2428 28.7208L44.9332 37.8018L46.7668 47.6519C46.8373 48.0308 46.6893 48.4172 46.3837 48.652L43.554 50.8258L44.3277 60.106L48.9909 55.3614C49.1369 55.2128 49.3897 55.3162 49.3897 55.5246C49.3897 55.5857 49.3657 55.6443 49.3229 55.6878L46.8424 58.2112L44.2951 60.8025L42.4558 99.9933Z" fill="#4C8674"/>
<path d="M44.3277 60.106L44.2951 60.8025L46.8424 58.2112L49.3229 55.6878C49.3657 55.6443 49.3897 55.5857 49.3897 55.5246C49.3897 55.3162 49.1369 55.2128 48.9909 55.3614L44.3277 60.106Z" fill="#005339"/>
<path fill-rule="evenodd" clip-rule="evenodd" d="M44.9332 37.8018L42.9339 38.4684L43.554 50.8258L46.3837 48.652C46.6893 48.4172 46.8373 48.0308 46.7668 47.6519L44.9332 37.8018Z" fill="#C9CBC8"/>
<path fill-rule="evenodd" clip-rule="evenodd" d="M42.2273 29.0693L42.9339 38.4684L44.9332 37.8018L43.2428 28.7208L42.2273 29.0693Z" fill="#C9CBC8"/>
<path d="M42.2273 29.0693C42.2273 29.0693 37.5802 31.6049 34.3197 31.773C30.4019 31.975 25.0162 28.9378 23.8148 28.2276C23.6934 28.1558 23.5323 28.2231 23.4798 28.3541C23.2935 28.8191 22.8809 29.5838 22.4438 30.3939C21.8449 31.5038 21.2001 32.699 21.0279 33.3258C21.0082 33.3976 21.0343 33.4719 21.0919 33.5192C21.9732 34.2429 29.0182 39.8902 34.5301 40.1086C37.8717 40.2409 42.9339 38.4684 42.9339 38.4684L42.2273 29.0693Z" fill="#C9CBC8"/>
<path d="M55.6452 31.1547C56.1366 31.7225 57.0516 31.5863 57.3564 30.9001L58.69 27.8976C58.775 27.706 58.5612 27.5372 58.3952 27.6652C57.4953 28.3593 56.1846 29.2553 54.0909 29.2161C52.1492 29.1797 51.1841 28.0723 50.558 27.1779C50.4307 26.9961 50.1922 27.1065 50.2486 27.3212L51.1684 30.8224C51.3587 31.5465 52.2361 31.8288 52.8129 31.3513L54.4076 30.031C54.4934 29.9599 54.6203 29.9705 54.6932 30.0548L55.6452 31.1547Z" fill="#D1493F"/>
<path d="M54.0111 29.3749C55.9628 29.3749 58.1763 27.8052 59.7074 25.8981C60.3396 25.08 60.6184 24.7443 60.953 23.7693C60.953 23.7693 59.5802 25.8655 58.3895 26.8643C56.9107 28.1048 55.7408 29.0134 54.0111 29.1106C52.8159 29.1777 51.0861 28.1946 51.0861 28.1946C51.8566 28.9379 52.82 29.3843 54.0111 29.3749Z" fill="#E7D5AE"/>
<path d="M48.7985 23.3663C49.2044 25.2869 49.9271 27.0766 51.0861 28.1946C51.0861 28.1946 52.8159 29.1777 54.0111 29.1106C55.7408 29.0134 56.9107 28.1048 58.3895 26.8643C59.5802 25.8655 60.953 23.7693 60.953 23.7693C60.953 23.7693 56.5263 21.7795 56.3917 21.7531C56.3418 21.7433 56.0663 21.9423 55.8756 22.0353C55.5517 22.1932 54.3039 22.2904 53.6905 22.2904C51.6689 22.2904 48.5335 20.4028 48.5335 20.4028C48.5164 20.9399 48.5794 22.3295 48.7985 23.3663Z" fill="#EFDDB8"/>
<path d="M50.9968 21.1253C50.542 20.9684 50.3009 20.8065 49.8482 20.6799C49.846 20.6793 49.8429 20.6783 49.8389 20.677C49.708 20.6327 48.5647 20.1786 48.5647 20.1786C48.5492 20.17 48.5382 20.2534 48.5335 20.4028C48.5335 20.4028 51.6689 22.2904 53.6905 22.2904C54.3039 22.2904 55.5517 22.1932 55.8756 22.0353C56.0663 21.9423 56.3418 21.7433 56.3917 21.7531C56.5263 21.7795 60.953 23.7693 60.953 23.7693L60.4771 23.5383L60.4449 23.5233L59.8833 23.2501L56.3917 21.4392C55.9376 21.7794 55.3725 21.9415 54.8049 21.8944C53.8213 21.8608 53.0031 21.7544 51.9012 21.4314C51.5434 21.3265 51.304 21.2312 50.9968 21.1253Z" fill="#E7D5AE"/>
<path fill-rule="evenodd" clip-rule="evenodd" d="M48.5647 20.1786C48.5647 20.1786 49.708 20.6327 49.8389 20.677L48.5647 20.1786ZM56.3917 21.4392L59.8833 23.2501L60.4771 23.5383C60.4771 23.5383 60.9513 23.7585 60.953 23.7693C61.5701 24.0233 61.9176 24.2301 62.3714 24.5001C62.6599 24.6718 63.0306 24.5413 63.1527 24.2286L63.1908 24.1312C64.2618 21.3843 64.2777 18.8414 63.1908 16.7695C62.6835 15.8221 61.9909 14.9838 61.1533 14.3034C60.3157 13.623 59.3497 13.1141 58.3116 12.8062C56.4562 12.1957 54.4451 12.2345 52.6151 12.916C50.7852 13.5976 49.2475 14.8804 48.2597 16.5498C48.2597 16.5498 48.3859 17.503 50.7282 19.0435C53.0704 20.5841 56.3917 21.4392 56.3917 21.4392Z" fill="#4C8674"/>
<path d="M49.8482 20.6799C50.3009 20.8065 50.542 20.9684 50.9968 21.1253C51.304 21.2312 51.5434 21.3265 51.9012 21.4314C53.0031 21.7544 53.8213 21.8608 54.8049 21.8944C55.3725 21.9415 55.9376 21.7794 56.3917 21.4392C56.3917 21.4392 53.0704 20.5841 50.7282 19.0435C48.3859 17.503 48.2597 16.5498 48.2597 16.5498C47.0379 16.4948 46.3081 16.7774 46.078 17.3895C45.6496 18.6374 47.0573 19.4801 48.5647 20.1786L49.8389 20.677L49.8482 20.6799Z" fill="#447F6D"/>
<g style="mix-blend-mode:hard-light">
<path d="M53.4451 16.6236L53.0408 17.1745C53.012 17.2165 53.0137 17.2621 53.0519 17.2834L53.5596 17.5675C53.6087 17.595 53.6896 17.5688 53.7326 17.5125L55.3402 15.2499L53.2018 15.4111C53.2018 15.4111 52.9278 15.6241 52.7243 15.7915C53.4284 15.6451 53.8485 16.1079 53.4451 16.6236Z" fill="#D30A21"/>
<path d="M55.1806 15.403L55.4248 15.0603C55.4851 14.9764 55.4732 14.8838 55.395 14.8401L53.9122 14.0104C53.834 13.9667 53.7128 13.9847 53.6206 14.0553L51.3858 15.7852C51.3627 15.804 51.3339 15.815 51.3021 15.8199L50.6841 15.8947C50.6495 15.8979 50.612 15.9176 50.5861 15.9439L50.2725 16.2613C50.2265 16.308 50.2267 16.3669 50.2731 16.3928L50.4642 16.4998L50.6872 16.6245C50.9971 16.7979 51.4157 16.7155 51.744 16.4605L53.5238 15.082C53.613 15.0098 53.7401 14.9905 53.8183 15.0342L54.1658 15.2287C54.244 15.2724 54.2559 15.365 54.1927 15.4518L54.0864 15.5958L54.9645 15.5354C55.0482 15.5189 55.1347 15.4678 55.1806 15.403Z" fill="#005339"/>
<path d="M52.2143 17.6549C52.2143 17.6549 51.5413 17.4748 51.5086 17.1896C51.4823 16.9672 51.692 16.7508 51.9835 16.6802C52.3441 16.5927 52.7974 16.8686 52.5497 17.201C52.3162 17.519 52.2143 17.6549 52.2143 17.6549Z" fill="#D30A21"/>
</g>
<g style="mix-blend-mode:hard-light">
<path d="M56.5347 51.9947L56.6937 53.4071C56.7098 53.5128 56.79 53.5964 56.8994 53.6002L58.353 53.6506C58.4937 53.6555 58.6043 53.5299 58.5911 53.3839L57.837 47.6329L54.0147 49.9586C54.0147 49.9586 53.8509 50.616 53.7447 51.1217C54.8451 50.1815 56.4337 50.6489 56.5347 51.9947Z" fill="#D30A21"/>
<path d="M56.9009 46.9755L56.7995 46.104C56.7757 45.8903 56.6087 45.729 56.3997 45.7217L52.4376 45.5845C52.2287 45.5772 52.0398 45.7262 51.9855 45.9454L50.7007 51.2968C50.689 51.3537 50.6546 51.4017 50.6053 51.4409L49.6154 52.1681C49.5583 52.2071 49.5222 52.2795 49.517 52.353L49.4542 53.2433C49.445 53.374 49.5382 53.4837 49.662 53.488L50.1727 53.5057L50.7686 53.5263C51.5966 53.555 52.2173 53.0034 52.4047 52.2156L53.4266 47.9523C53.4731 47.7328 53.6703 47.5759 53.8793 47.5832L54.8079 47.6153C55.0168 47.6226 55.1839 47.7839 55.207 48.0058L55.243 48.3755L56.7217 47.4278C56.8458 47.3175 56.9204 47.1399 56.9009 46.9755Z" fill="#005339"/>
<path d="M55.8665 53.4731C55.8665 53.4731 53.9589 53.7628 53.297 53.2565C52.7792 52.8626 52.8128 52.2595 53.3332 51.8546C53.9767 51.3532 55.5798 51.449 55.6983 52.3058C55.8196 53.1223 55.8665 53.4731 55.8665 53.4731Z" fill="#D30A21"/>
</g>
<path d="M19.0152 29.0697C18.5585 28.5115 19.0083 27.3532 20.0025 26.5255L20.0855 26.4615C20.5694 26.054 21.1595 25.7838 21.7932 25.6798C21.987 25.6368 22.1896 25.6422 22.3825 25.6955C22.5753 25.7488 22.7523 25.8482 22.8971 25.9848C23.3628 26.5375 22.9114 27.7029 21.9187 28.5235L21.8341 28.5946C21.3385 29.0041 20.7353 29.2716 20.0898 29.3682C19.8982 29.4053 19.6996 29.3973 19.5103 29.3448C19.324 29.2932 19.1519 29.2001 19.0077 29.0728C19.0053 29.0707 19.0029 29.0686 19.0005 29.0665L19.0152 29.0697Z" fill="#4C8674"/>
<path fill-rule="evenodd" clip-rule="evenodd" d="M22.478 29.1419L22.3771 29.2169C21.7706 29.7216 21.0314 30.0522 20.2395 30.1728L20.0393 30.1733L12.2059 36.0956L12.753 33.5585L18.2719 29.3765L19.0077 29.0728C19.1519 29.2001 19.324 29.2932 19.5103 29.3448C19.6996 29.3973 19.8982 29.4053 20.0898 29.3682C20.7353 29.2716 21.3385 29.0041 21.8341 28.5946L21.9187 28.5235C22.9114 27.7029 23.3628 26.5375 22.8971 25.9848L23.4841 25.4036L24.2551 24.8259C24.0844 24.3344 24.0489 23.8098 24.1521 23.3052C24.274 22.7398 24.5655 22.2253 24.9896 21.8269C25.4138 21.4284 25.9515 21.1638 26.535 21.0666C27.1184 20.9694 27.7212 21.0439 28.2673 21.2807C28.8133 21.5175 29.278 21.9059 29.6026 22.3969C29.9272 22.8879 30.0972 23.4594 30.0909 24.0391C30.0847 24.6188 29.9026 25.1807 29.5676 25.6537C29.2326 26.1267 28.7599 26.4896 28.209 26.6965C27.6582 26.9034 27.0542 26.945 26.4732 26.816C26.0215 26.714 25.5989 26.5099 25.2396 26.2202L23.776 27.3332C23.5182 28.0412 23.0701 28.6657 22.478 29.1419ZM26.0396 22.8921C25.8275 23.0913 25.6818 23.3485 25.6208 23.6313C25.5391 24.0103 25.6154 24.4083 25.8331 24.7375C26.0507 25.0667 26.3918 25.3002 26.7814 25.3867C27.0719 25.4512 27.3739 25.4304 27.6493 25.3269C27.9247 25.2235 28.1611 25.042 28.3286 24.8055C28.4961 24.569 28.5871 24.2881 28.5903 23.9982C28.5934 23.7084 28.5084 23.4226 28.3461 23.1771C28.1838 22.9316 27.9514 22.7374 27.6784 22.619C27.4054 22.5006 27.104 22.4633 26.8123 22.512C26.5206 22.5606 26.2517 22.6928 26.0396 22.8921Z" fill="#005339"/>
<path d="M23.4841 25.4036C23.253 25.1816 22.9707 25.0174 22.6618 24.9253C22.353 24.8333 22.0271 24.8162 21.7126 24.8756C20.9213 24.992 20.1809 25.3169 19.5707 25.8155L19.4684 25.8977C18.1938 26.9552 17.7175 28.4147 18.2719 29.3765L19.0077 29.0728L19.0005 29.0665L19.0152 29.0697C18.5585 28.5115 19.0083 27.3532 20.0025 26.5255L20.0855 26.4615C20.5694 26.054 21.1595 25.7838 21.7932 25.6798C21.987 25.6368 22.1896 25.6422 22.3825 25.6955C22.5753 25.7488 22.7523 25.8482 22.8971 25.9848L23.4841 25.4036Z" fill="#4C8674"/>
<path d="M12.6862 17.0941C12.6862 16.2137 11.9725 15.5 11.0921 15.5H8.59409C7.7137 15.5 7 16.2137 7 17.0941V68.9059C7 69.7863 7.7137 70.5 8.59409 70.5H11.0921C11.9725 70.5 12.6862 69.7863 12.6862 68.9059V17.0941Z" fill="#5A5F61"/>
<path d="M16.5147 60.4719L19.9153 58.0078C19.9685 57.9692 20 57.9075 20 57.8418V56.3173C20 56.15 19.8103 56.0532 19.6748 56.1514L16.5147 58.4412V60.4719Z" fill="#D1493F"/>
<path d="M12.6862 41.5392V67.9024C13.0853 67.9286 15.6478 67.8134 15.9561 67.5494C16.2644 67.2855 16.4641 66.9098 16.5147 66.4986V42.9774C16.4641 42.5663 16.2644 42.1906 15.9561 41.9266C15.6478 41.6626 13.0853 41.5131 12.6862 41.5392Z" fill="#C9CBC8"/>
<path d="M16.5147 50.8405L19.9455 48.3545C19.9797 48.3298 20 48.2893 20 48.2462V46.5383C20 46.4313 19.8838 46.3686 19.7992 46.4299L16.5147 48.8099V50.8405Z" fill="#D1493F"/>
<path fill-rule="evenodd" clip-rule="evenodd" d="M98.4187 84.2722C98.3687 84.864 98.6969 85.4356 99.2552 85.638L99.6087 85.7661C100.249 85.9984 100.58 86.7066 100.347 87.3469L99.6095 89.3682C99.3754 90.0103 98.6636 90.3392 98.0229 90.1015L97.7498 90.0001C97.1823 89.7895 96.5512 90.0262 96.2118 90.5275C96.0551 90.7589 95.8911 90.9847 95.72 91.2048C95.3578 91.6706 95.319 92.3234 95.6707 92.7972L95.8593 93.0513C96.2643 93.5968 96.1514 94.3672 95.6069 94.7735L93.8968 96.0499C93.3494 96.4584 92.5742 96.3439 92.1684 95.7945L92.0296 95.6066C91.6703 95.1202 91.0134 94.9728 90.4561 95.2077C89.93 95.4294 89.388 95.617 88.8327 95.7625C88.247 95.9159 87.8048 96.4249 87.8048 97.0304V97.2676C87.8048 97.9482 87.2531 98.5 86.5724 98.5H84.4276C83.7469 98.5 83.1952 97.9482 83.1952 97.2676V97.015C83.1952 96.4163 82.7628 95.9108 82.1834 95.7599C81.5709 95.6005 80.9748 95.3955 80.4011 95.1449C79.8421 94.9008 79.1752 95.0337 78.804 95.5176L78.6513 95.7167C78.2342 96.2603 77.4538 96.3594 76.9142 95.9373L75.2256 94.6167C74.693 94.2001 74.5955 93.4322 75.0071 92.8958L75.204 92.639C75.5619 92.1725 75.5352 91.5216 75.1833 91.0505C74.803 90.5415 74.458 90.0022 74.1514 89.4391C73.8634 88.9103 73.261 88.6168 72.6786 88.7699L72.3513 88.8559C71.6903 89.0297 71.0142 88.6323 70.8443 87.9703L70.3054 85.8705C70.1366 85.2126 70.5318 84.5422 71.1892 84.3713L71.7503 84.2255C72.2225 84.1028 72.5353 83.6617 72.5353 83.1738C72.5353 82.7026 72.56 82.2376 72.6095 81.7788C72.6744 81.1769 72.3476 80.5873 71.7791 80.3794L71.3869 80.2359C70.748 80.0023 70.4193 79.2954 70.6523 78.6563L71.3913 76.6293C71.6251 75.9882 72.3353 75.6591 72.9756 75.8952L73.4685 76.077C74.0159 76.2788 74.6249 76.0655 74.9626 75.5898C75.1041 75.3906 75.2503 75.1949 75.4017 75.0037C75.7734 74.5346 75.8195 73.8705 75.4636 73.3893L75.1375 72.9482C74.7341 72.4027 74.8475 71.6337 75.3913 71.2278L77.1118 69.9437C77.6558 69.5377 78.4257 69.6481 78.8338 70.1906L79.1836 70.6556C79.5388 71.1278 80.1769 71.2752 80.7242 71.0525C81.1955 70.8607 81.6788 70.6947 82.1764 70.5613C82.7579 70.4054 83.1952 69.8982 83.1952 69.2962V68.7324C83.1952 68.0518 83.7469 67.5 84.4276 67.5H86.5724C87.2531 67.5 87.8048 68.0518 87.8048 68.7324V69.3118C87.8048 69.9069 88.2321 70.4107 88.8076 70.5623C89.3667 70.7096 89.9108 70.8926 90.4344 71.1113C90.9899 71.3433 91.6452 71.2059 92.011 70.7277L92.352 70.2819C92.7675 69.7387 93.546 69.6377 94.0864 70.057L95.7937 71.3819C96.3304 71.7984 96.4288 72.5708 96.0137 73.1086L95.6946 73.522C95.3302 73.994 95.3612 74.6555 95.7259 75.1273C96.0924 75.6014 96.4259 76.0991 96.7234 76.6173C97.0188 77.1319 97.6131 77.4152 98.187 77.2646L98.6491 77.1434C99.31 76.97 99.9857 77.3673 100.156 78.0291L100.694 80.1263C100.863 80.7854 100.466 81.4569 99.8068 81.6263L99.4313 81.7228C98.8421 81.8742 98.4577 82.4333 98.464 83.0416C98.4645 83.0856 98.4647 83.1296 98.4647 83.1738C98.4647 83.5425 98.4494 83.9087 98.4187 84.2722ZM94.3448 83C94.3448 78.1037 90.369 74.1346 85.5 74.1346C80.631 74.1346 76.684 78.1037 76.684 83C76.684 87.8963 80.631 91.8654 85.5 91.8654C90.369 91.8654 94.3448 87.8963 94.3448 83Z" fill="#D1493F"/>
<path fill-rule="evenodd" clip-rule="evenodd" d="M105.669 38.6474C105.624 39.1829 105.92 39.7001 106.426 39.8833L106.741 39.9978C107.321 40.2079 107.62 40.8488 107.409 41.4282L106.745 43.25C106.533 43.831 105.889 44.1287 105.309 43.9135L105.066 43.8233C104.552 43.6327 103.981 43.8469 103.674 44.3004C103.533 44.5085 103.386 44.7115 103.232 44.9095C102.904 45.331 102.869 45.9217 103.187 46.3504L103.356 46.577C103.722 47.0706 103.62 47.7677 103.127 48.1354L101.586 49.2858C101.091 49.6554 100.389 49.5518 100.022 49.0547L99.8988 48.888C99.5736 48.4478 98.9792 48.3145 98.4749 48.527C98.0007 48.7268 97.5123 48.8958 97.0118 49.027C96.4819 49.1659 96.0818 49.6264 96.0818 50.1743V50.3848C96.0818 51.0007 95.5825 51.5 94.9666 51.5H93.0334C92.4175 51.5 91.9182 51.0007 91.9182 50.3848V50.1604C91.9182 49.6187 91.527 49.1612 91.0027 49.0247C90.4507 48.8809 89.9133 48.6961 89.3961 48.4703C88.8903 48.2495 88.2869 48.3697 87.9509 48.8076L87.8153 48.9844C87.4379 49.4763 86.7318 49.566 86.2434 49.1841L84.7215 47.9937C84.2396 47.6168 84.1513 46.922 84.5237 46.4365L84.6994 46.2075C85.0232 45.7854 84.9991 45.1964 84.6807 44.7701C84.338 44.3111 84.0269 43.825 83.7505 43.3175C83.4898 42.839 82.9447 42.5735 82.4177 42.712L82.1257 42.7887C81.5276 42.9459 80.9158 42.5864 80.7621 41.9874L80.2764 40.0946C80.1236 39.4994 80.4812 38.8927 81.076 38.7381L81.5809 38.6069C82.0074 38.4961 82.29 38.0976 82.29 37.657C82.29 37.232 82.3122 36.8125 82.3568 36.3987C82.4154 35.8541 82.1197 35.3205 81.6053 35.1324L81.2545 35.0041C80.6765 34.7927 80.379 34.153 80.5898 33.5748L81.256 31.7478C81.4675 31.1676 82.1102 30.8698 82.6895 31.0835L83.1313 31.2464C83.6266 31.429 84.1776 31.236 84.4833 30.8056C84.6104 30.6266 84.7418 30.4507 84.8779 30.2788C85.2142 29.8543 85.2559 29.2534 84.9339 28.818L84.6415 28.4226C84.2765 27.9289 84.3791 27.2331 84.8711 26.8659L86.4219 25.7084C86.9142 25.341 87.6109 25.4409 87.9801 25.9318L88.2938 26.3489C88.6153 26.7762 89.1926 26.9095 89.6879 26.7081C90.1126 26.5353 90.5481 26.3858 90.9964 26.2655C91.5225 26.1243 91.9182 25.6654 91.9182 25.1207V24.6152C91.9182 23.9993 92.4175 23.5 93.0334 23.5H94.9666C95.5825 23.5 96.0818 23.9993 96.0818 24.6152V25.1347C96.0818 25.6733 96.4684 26.1292 96.9891 26.2664C97.493 26.3992 97.9833 26.5641 98.4553 26.7612C98.958 26.971 99.551 26.8467 99.8819 26.414L100.188 26.0143C100.564 25.5227 101.268 25.4314 101.757 25.8108L103.296 27.005C103.782 27.3819 103.871 28.0808 103.495 28.5674L103.209 28.9379C102.879 29.365 102.907 29.9636 103.237 30.3905C103.568 30.8179 103.868 31.2664 104.136 31.7336C104.404 32.1992 104.942 32.4554 105.461 32.3192L105.875 32.2106C106.473 32.0538 107.084 32.4133 107.238 33.0121L107.723 34.9024C107.876 35.4989 107.517 36.1064 106.92 36.2597L106.585 36.3459C106.052 36.483 105.704 36.9889 105.709 37.5393C105.71 37.5785 105.71 37.6177 105.71 37.657C105.71 37.9895 105.696 38.3196 105.669 38.6474ZM101.989 37.5C101.989 33.0776 98.3978 29.4925 94 29.4925C89.6022 29.4925 86.0372 33.0776 86.0372 37.5C86.0372 41.9224 89.6022 45.5075 94 45.5075C98.3978 45.5075 101.989 41.9224 101.989 37.5Z" fill="#D1493F"/>
</svg>
