<svg width="115" height="115" viewBox="0 0 115 115" fill="none" xmlns="http://www.w3.org/2000/svg">
<rect width="115" height="115" rx="57.5" fill="white"/>
<g clip-path="url(#clip0_1283_9195)">
<path fill-rule="evenodd" clip-rule="evenodd" d="M70.8908 52.7829L74.0668 56.1141C74.3653 56.4365 71.5594 61.9287 70.7834 60.1378L69.6371 57.4752L66.0433 55.2186C65.6373 54.9679 64.6941 52.1382 64.8254 51.6725C64.9568 51.2188 65.4463 50.9442 65.9119 51.0875C66.8432 51.3621 70.2341 52.1143 70.8908 52.7948V52.7829Z" fill="#FFD58A"/>
<path fill-rule="evenodd" clip-rule="evenodd" d="M65.4459 49.6904L70.389 51.159C70.389 51.159 70.4964 51.1948 70.5323 51.2187C70.7114 51.2664 70.9502 51.4216 71.177 51.6604L74.8306 55.4931C75.2126 55.8871 74.9738 56.5557 74.4843 56.8184C73.6008 57.2721 73.2426 59.0034 71.965 56.8542L69.6965 53.0574L64.8609 51.6246C63.5833 51.2425 64.1564 49.3202 65.434 49.7023L65.4459 49.6904Z" fill="#FFDBA7"/>
<path fill-rule="evenodd" clip-rule="evenodd" d="M68.0274 47.7322C67.9868 48.2145 68.2541 48.6802 68.7091 48.8452L68.9971 48.9496C69.5193 49.1388 69.7886 49.716 69.5984 50.2377L68.9978 51.8848C68.8071 52.408 68.227 52.676 67.7049 52.4823L67.4824 52.3997C67.02 52.2281 66.5057 52.421 66.2291 52.8294C66.1014 53.018 65.9678 53.202 65.8284 53.3814C65.5333 53.7609 65.5016 54.2928 65.7882 54.6789L65.9419 54.886C66.2719 55.3305 66.1799 55.9582 65.7362 56.2894L64.3427 57.3294C63.8967 57.6623 63.265 57.569 62.9343 57.1213L62.8212 56.9682C62.5284 56.5718 61.9932 56.4517 61.5391 56.6431C61.1103 56.8239 60.6687 56.9767 60.2162 57.0952C59.7389 57.2203 59.3786 57.635 59.3786 58.1284V58.3217C59.3786 58.8763 58.929 59.3259 58.3744 59.3259H56.6266C56.072 59.3259 55.6224 58.8763 55.6224 58.3217V58.1159C55.6224 57.628 55.2701 57.2161 54.7979 57.0932C54.2988 56.9633 53.8131 56.7962 53.3456 56.592C52.8901 56.393 52.3467 56.5013 52.0442 56.8957L51.9197 57.0579C51.5799 57.5009 50.944 57.5817 50.5042 57.2377L49.1283 56.1615C48.6943 55.8221 48.6148 55.1964 48.9502 54.7593L49.1107 54.5501C49.4023 54.1699 49.3805 53.6395 49.0938 53.2556C48.7839 52.8408 48.5028 52.4014 48.253 51.9426C48.0183 51.5116 47.5274 51.2725 47.0528 51.3972L46.7861 51.4673C46.2475 51.6089 45.6965 51.2851 45.5581 50.7457L45.119 49.0346C44.9814 48.4985 45.3035 47.9522 45.8391 47.813L46.2964 47.6942C46.6811 47.5942 46.936 47.2347 46.936 46.8372C46.936 46.4532 46.9562 46.0743 46.9965 45.7004C47.0494 45.21 46.7831 44.7295 46.3198 44.5601L46.0002 44.4432C45.4797 44.2529 45.2118 43.6768 45.4016 43.156L46.0039 41.5043C46.1944 40.9819 46.7731 40.7138 47.2948 40.9061L47.6964 41.0542C48.1425 41.2187 48.6387 41.0449 48.914 40.6573C49.0292 40.4949 49.1484 40.3354 49.2718 40.1796C49.5746 39.7974 49.6122 39.2563 49.3222 38.8641L49.0565 38.5047C48.7277 38.0602 48.8202 37.4335 49.2633 37.1028L50.6652 36.0565C51.1085 35.7256 51.7359 35.8156 52.0684 36.2576L52.3535 36.6365C52.6429 37.0214 53.1629 37.1415 53.6089 36.96C53.9929 36.8037 54.3867 36.6684 54.7922 36.5597C55.2661 36.4327 55.6224 36.0194 55.6224 35.5289V35.0694C55.6224 34.5148 56.072 34.0652 56.6266 34.0652H58.3744C58.929 34.0652 59.3786 34.5148 59.3786 35.0694V35.5415C59.3786 36.0265 59.7268 36.437 60.1957 36.5605C60.6513 36.6805 61.0947 36.8296 61.5214 37.0079C61.974 37.197 62.508 37.0849 62.806 36.6953L63.0839 36.3321C63.4225 35.8894 64.0569 35.8071 64.4972 36.1488L65.8884 37.2284C66.3258 37.5678 66.406 38.1972 66.0677 38.6354L65.8077 38.9723C65.5107 39.3569 65.536 39.8959 65.8332 40.2804C66.1319 40.6667 66.4036 41.0722 66.646 41.4946C66.8867 41.9139 67.371 42.1447 67.8387 42.022L68.2152 41.9232C68.7537 41.7819 69.3044 42.1057 69.4428 42.645L69.8813 44.3539C70.0192 44.891 69.6956 45.4381 69.1586 45.5761L68.8526 45.6548C68.3725 45.7782 68.0592 46.2338 68.0644 46.7295C68.0647 46.7653 68.0649 46.8012 68.0649 46.8372C68.0649 47.1376 68.0524 47.436 68.0274 47.7322ZM64.7078 46.6956C64.7078 42.7058 61.468 39.4715 57.5005 39.4715C53.533 39.4715 50.3167 42.7058 50.3167 46.6956C50.3167 50.6853 53.533 53.9197 57.5005 53.9197C61.468 53.9197 64.7078 50.6853 64.7078 46.6956Z" fill="#D1493F"/>
<path fill-rule="evenodd" clip-rule="evenodd" d="M66.6402 59.2065L68.5745 58.4781C68.873 58.3707 71.9773 60.6034 71.8579 56.6394C71.834 55.9589 74.5443 54.9082 74.8548 55.5171C75.4876 56.7349 76.1562 58.108 76.3592 59.1945C76.6816 60.9138 76.1204 62.1317 75.3204 64.4241L70.1505 67.1225C69.5535 67.4329 68.5028 66.8718 68.1446 65.9524L66.3656 61.3556C66.1149 60.7228 65.9955 59.4453 66.6402 59.2065Z" fill="#FFDBA7"/>
<path fill-rule="evenodd" clip-rule="evenodd" d="M65.959 63.7795H76.2272L89.0863 85.8203H78.8181L65.959 63.7795Z" fill="#B5B7B4"/>
<path fill-rule="evenodd" clip-rule="evenodd" d="M70.8184 63.7795H76.2271L89.0862 85.8203H83.6775L70.8184 63.7795Z" fill="#C9CBC8"/>
<path fill-rule="evenodd" clip-rule="evenodd" d="M62.5091 83.1456L60.0853 87.0499C59.8585 87.42 53.8289 86.0828 55.3691 84.8769L57.6616 83.1098L58.9511 79.0622C59.0943 78.6085 61.6017 76.9847 62.0793 76.9966C62.5569 77.0086 62.9389 77.4145 62.915 77.9041C62.8792 78.8831 63.0106 82.3457 62.5091 83.1456Z" fill="#FCD082"/>
<path fill-rule="evenodd" clip-rule="evenodd" d="M55.2378 80.6384L56.4199 82.3339C56.6109 82.5965 55.2139 86.1546 59.0227 85.0561C59.6794 84.8651 61.3629 87.2172 60.8614 87.6709C59.8466 88.5903 58.6765 89.5813 57.6735 90.0589C56.0975 90.7991 54.7722 90.5604 52.3484 90.3574L48.4441 86.0232C47.9904 85.5218 48.277 84.3636 49.0769 83.7905L53.0887 80.913C53.6379 80.519 54.8558 80.0773 55.2378 80.6384Z" fill="#FFDBA7"/>
<path fill-rule="evenodd" clip-rule="evenodd" d="M100.823 44.7832C99.9996 49.7263 100.238 52.95 101.42 56.1618C104.31 63.9704 108.023 66.3583 108.537 70.5014C108.763 72.364 103.952 81.6651 102.555 87.8379H78.5439L81.6483 69.8925C82.9975 68.1493 88.1435 61.5466 88.1793 61.3795C88.5375 59.7795 87.845 59.9348 87.6778 57.1528C87.5823 55.5887 88.2271 54.8484 87.6778 53.9529C86.854 52.6515 83.9407 53.0097 82.0303 52.6276L96.3103 38.7537L100.835 44.7832H100.823Z" fill="#FFDBA7"/>
<path fill-rule="evenodd" clip-rule="evenodd" d="M101.42 56.1616C104.31 63.9702 108.023 66.3582 108.536 70.5012C108.763 72.3638 103.952 81.6649 102.555 87.8377H77.1349L76.2054 80.7014C77.0427 78.8563 77.5823 75.0535 79.9408 71.2783C83.0308 66.332 87.988 61.4605 88.1911 61.3793L101.432 56.1736L101.42 56.1616Z" fill="#C9CBC8"/>
<path fill-rule="evenodd" clip-rule="evenodd" d="M101.42 56.1616C104.31 63.9702 108.023 66.3582 108.536 70.5012C108.763 72.3638 103.952 81.6649 102.555 87.8377H77.1349L76.2054 80.7014C77.0427 78.8563 77.5823 75.0535 79.9408 71.2783C83.0308 66.332 87.988 61.4605 88.1911 61.3793L101.432 56.1736L101.42 56.1616Z" fill="black" fill-opacity="0.1"/>
<path fill-rule="evenodd" clip-rule="evenodd" d="M88.0238 59.3258C87.8925 58.8602 87.7492 58.2154 87.6895 57.1408C87.594 55.5767 88.2387 54.8365 87.6895 53.941C86.8656 52.6396 83.9523 52.9977 82.042 52.6157L96.3219 38.7417L97.492 40.3058C96.5846 47.1712 92.3221 54.4663 88.0357 59.3258H88.0238Z" fill="#FFD58A"/>
<path fill-rule="evenodd" clip-rule="evenodd" d="M80.5378 44.3652C80.5855 45.0577 80.3291 45.3017 80.2548 45.9108C80.1984 46.373 80.2019 46.6356 80.1641 47.0997C80.1178 47.6685 80.1115 47.9897 80.0363 48.5553C79.9594 49.1333 79.809 49.4429 79.7722 50.0248C79.7154 50.9241 79.2244 51.0514 80.0363 52.3171C81.0273 53.8453 87.6538 51.6245 90.7343 50.5977C93.2894 49.75 92.7282 47.9949 92.8118 45.3801C94.1491 45.7502 95.2594 45.4756 95.6176 43.3623C97.7429 41.0937 98.6265 39.1356 100.143 36.4372C100.143 36.4372 97.2295 24.4736 96.9668 24.3661C96.6922 24.2587 87.7016 24.199 87.7016 24.199C86.4002 25.7511 84.2591 27.2779 83.069 28.9271C81.8788 30.5763 81.106 32.8453 80.903 33.811C80.7 34.7767 80.7018 36.0859 80.4422 37.5237C80.3744 37.8993 80.3455 38.1121 80.2548 38.4828C79.8023 40.3315 77.9827 42.1922 78.0185 42.813C78.0423 43.3145 78.9378 44.3174 80.5258 44.3533L80.5378 44.3652Z" fill="#FFDBA7"/>
<path fill-rule="evenodd" clip-rule="evenodd" d="M81.4568 32.0435C83.1044 30.7063 88.3102 27.9601 90.0056 31.1003C90.3996 31.8286 89.0385 32.0077 89.0982 33.8225C89.146 35.0762 89.7907 35.709 89.9459 36.7836C90.1608 38.2999 89.4564 38.9805 90.0295 41.261L91.2115 40.9386C92.3458 39.8043 95.0919 37.1895 96.7635 37.9656C98.0649 38.5745 97.2411 40.9864 96.071 42.6221C95.4501 43.4937 95.3307 44.4608 95.5098 45.1056C95.9158 46.5264 97.265 45.9772 98.4589 47.4338C99.438 48.6278 99.8678 50.4188 100.31 51.2187C101.48 47.804 101.874 46.61 103.39 44.5802C105.897 41.2132 107.354 33.2255 103.963 30.4794C101.79 25.3931 98.2321 23.4588 94.1487 23.0887C88.2146 22.5395 81.6 25.4647 81.4448 32.0435H81.4568Z" fill="#703100"/>
<path fill-rule="evenodd" clip-rule="evenodd" d="M105.877 64.7126C104.743 62.9648 103.401 60.8954 102.149 57.9766C92.6688 61.1525 77.7107 72.743 77.293 77.5991C76.9982 81.0263 76.2908 87.8298 76.5875 94.3484C76.7111 97.066 76.1547 99.5191 76.2039 101.318H88.2712L91.0753 76.4539L89.3794 101.318H102.555C103.952 95.145 108.764 72.352 108.537 70.4894C108.283 68.4242 107.228 66.7971 105.877 64.7126Z" fill="#C9CBC8"/>
<path d="M89.3794 101.318L91.0753 76.4539L88.2712 101.318H89.3794Z" fill="#B5B7B4"/>
<path fill-rule="evenodd" clip-rule="evenodd" d="M102.925 58.0005C101.862 55.8752 101.385 54.5738 100.609 52.3411C99.9264 52.7266 99.2594 53.1074 98.6016 53.4829C95.1849 55.4335 92.0196 57.2405 88.275 58.8124L90.3111 57.9108C90.2102 59.1637 89.4643 63.1377 86.8184 63.1226C88.6387 63.1226 92.0589 61.8263 95.5566 60.5007C98.1843 59.5047 100.856 58.4922 102.925 58.0005Z" fill="#C9CBC8"/>
<path d="M88.275 58.8124C88.4302 60.6153 87.7138 61.0571 86.8184 63.1226C89.4643 63.1377 90.2102 59.1637 90.3111 57.9108L88.275 58.8124Z" fill="#D1493F"/>
<path fill-rule="evenodd" clip-rule="evenodd" d="M76.2156 101.318C76.0485 95.2046 76.0649 88.3986 76.7352 79.7951C77.1534 74.427 80.5617 69.8208 83.8809 67.2776L87.9285 69.6894C84.7358 83.5509 85.2254 84.0996 89.7267 88.4696C89.2995 91.4572 88.4556 99.944 88.2786 101.318H76.2156Z" fill="#4C8674"/>
<path fill-rule="evenodd" clip-rule="evenodd" d="M102.149 57.9766C102.71 59.2899 103.295 60.4242 103.868 61.451C103.868 61.451 97.1473 63.3888 93.2657 65.5396C91.9467 66.2705 91.1382 66.602 89.9794 67.5669C89.0938 68.3044 88.1232 69.2916 87.9286 69.6889C87.7339 70.0863 81.288 72.1627 77.4673 76.461C77.5867 76.0192 77.7419 75.5894 77.9329 75.1596C83.9315 64.0719 92.6686 61.1525 102.149 57.9766Z" fill="#4C8674"/>
<path fill-rule="evenodd" clip-rule="evenodd" d="M15.8928 44.7832C16.7167 49.7263 16.4779 52.95 15.2958 56.1618C12.4064 63.9704 8.69316 66.3583 8.17975 70.5014C7.95289 72.364 12.7646 81.6651 14.1616 87.8379H38.1724L35.068 69.8925C33.7188 68.1493 28.5728 61.5466 28.537 61.3795C28.1788 59.7795 28.8713 59.9348 29.0385 57.1528C29.134 55.5887 28.4892 54.8484 29.0385 53.9529C29.8623 52.6515 32.7756 53.0097 34.686 52.6276L20.406 38.7537L15.8809 44.7832H15.8928Z" fill="#FFDBA7"/>
<path fill-rule="evenodd" clip-rule="evenodd" d="M15.2959 56.1616C12.4065 63.9702 8.69325 66.3582 8.17984 70.5012C7.95299 72.3638 12.7647 81.6649 14.1617 87.8377H39.5813L39.7783 80.6839C38.9411 78.8388 39.134 75.0535 36.7755 71.2783C33.6855 66.332 28.7283 61.4605 28.5251 61.3793L15.284 56.1736L15.2959 56.1616Z" fill="#DBDBDB"/>
<path fill-rule="evenodd" clip-rule="evenodd" d="M28.6925 59.3258C28.8238 58.8602 28.9671 58.2154 29.0268 57.1408C29.1223 55.5767 28.4776 54.8365 29.0268 53.941C29.8507 52.6396 32.764 52.9977 34.6743 52.6157L20.3944 38.7417L19.2243 40.3058C20.1317 47.1712 24.3942 54.4663 28.6806 59.3258H28.6925Z" fill="#FFD58A"/>
<path fill-rule="evenodd" clip-rule="evenodd" d="M36.1786 44.3652C36.1308 45.0577 36.3872 45.3017 36.4615 45.9108C36.5179 46.373 36.5144 46.6356 36.5522 47.0997C36.5985 47.6685 36.6048 47.9897 36.68 48.5553C36.7569 49.1333 36.9073 49.4429 36.9441 50.0248C37.0009 50.9241 37.4919 51.0514 36.68 52.3171C35.689 53.8453 29.0625 51.6245 25.982 50.5977C23.4269 49.75 23.9881 47.9949 23.9045 45.3801C22.5673 45.7502 21.4569 45.4756 21.0987 43.3623C18.9734 41.0937 18.0899 39.1356 16.5735 36.4372C16.5735 36.4372 19.4868 24.4736 19.7495 24.3661C20.0241 24.2587 29.0147 24.199 29.0147 24.199C30.3161 25.7511 32.4572 27.2779 33.6473 28.9271C34.8375 30.5763 35.6103 32.8453 35.8133 33.811C36.0163 34.7767 36.0145 36.0859 36.2741 37.5237C36.3419 37.8993 36.3708 38.1121 36.4615 38.4828C36.914 40.3315 38.7337 42.1922 38.6978 42.813C38.674 43.3145 37.7785 44.3174 36.1905 44.3533L36.1786 44.3652Z" fill="#FFDBA7"/>
<path fill-rule="evenodd" clip-rule="evenodd" d="M35.2595 32.0435C33.6119 30.7063 28.4061 27.9601 26.7107 31.1003C26.3167 31.8286 27.6778 32.0077 27.6181 33.8225C27.5704 35.0762 26.9256 35.709 26.7704 36.7836C26.5555 38.2999 27.2599 38.9805 26.6868 41.261L25.5048 40.9386C24.3705 39.8043 21.6244 37.1895 19.9528 37.9656C18.6514 38.5745 19.4752 40.9864 20.6453 42.6221C21.2662 43.4937 21.3856 44.4608 21.2065 45.1056C20.8005 46.5264 19.4513 45.9772 18.2574 47.4338C17.2783 48.6278 16.8485 50.4188 16.4067 51.2187C15.2366 47.804 14.8426 46.61 13.3263 44.5802C10.8189 41.2132 9.36226 33.2255 12.7531 30.4794C14.9262 25.3931 18.4842 23.4588 22.5676 23.0887C28.5017 22.5395 35.1163 25.4647 35.2715 32.0435H35.2595Z" fill="#A07B48"/>
<path fill-rule="evenodd" clip-rule="evenodd" d="M10.8396 64.7126C11.973 62.9648 13.3149 60.8954 14.5673 57.9766C24.0475 61.1525 39.0056 72.743 39.4233 77.5991C39.7181 81.0263 40.4255 87.8298 40.1289 94.3484C40.0052 97.066 40.5616 99.5191 40.5124 101.318H28.4451L25.641 76.4539L27.3369 101.318H14.1614C12.7644 95.145 7.95272 72.352 8.17958 70.4894C8.43285 68.4242 9.48796 66.7971 10.8396 64.7126Z" fill="#5A5F61"/>
<path d="M27.3369 101.318L25.641 76.4539L28.4451 101.318H27.3369Z" fill="#5A5F61"/>
<path fill-rule="evenodd" clip-rule="evenodd" d="M13.7912 58.0005C14.8539 55.8752 15.3315 54.5738 16.1075 52.3411C16.7899 52.7266 17.4569 53.1074 18.1147 53.4829C21.5314 55.4335 24.6967 57.2405 28.4413 58.8124L26.4053 57.9108C26.5061 59.1637 27.2521 63.1377 29.8979 63.1226C28.0776 63.1226 24.6574 61.8263 21.1598 60.5007C18.532 59.5047 15.8606 58.4922 13.7912 58.0005Z" fill="#C9CBC8"/>
<path d="M28.4413 58.8124C28.2861 60.6153 29.0025 61.0571 29.8979 63.1226C27.2521 63.1377 26.5061 59.1637 26.4053 57.9108L28.4413 58.8124Z" fill="#C9CBC8"/>
<path fill-rule="evenodd" clip-rule="evenodd" d="M40.5007 101.318C40.6678 95.2046 40.6514 88.3986 39.9811 79.7951C39.5629 74.427 36.1546 69.8208 32.8354 67.2776L28.7878 69.6894C31.9805 83.5509 31.4909 84.0996 26.9896 88.4696C27.4168 91.4572 28.2607 99.944 28.4377 101.318H40.5007Z" fill="#5A5F61"/>
<path fill-rule="evenodd" clip-rule="evenodd" d="M14.5674 57.9766C14.0063 59.2899 13.4212 60.4242 12.8481 61.451C12.8481 61.451 21.9123 65.5315 25.7939 67.6824L27.6439 65.0706L28.7875 69.6889C28.9822 70.0863 35.607 72.2194 39.4277 76.5177C39.3083 76.076 39.1531 75.6461 38.9621 75.2163C35.0576 65.9844 24.0476 61.1525 14.5674 57.9766Z" fill="#A1A2A0"/>
<path fill-rule="evenodd" clip-rule="evenodd" d="M64.1443 77.104L63.9652 82.262C63.9652 82.262 63.9652 82.3694 63.9413 82.4172C63.9413 82.5963 63.8578 82.8709 63.6787 83.1574L60.8848 87.6587C60.5982 88.1244 59.8938 88.0647 59.5236 87.6587C58.855 86.9185 57.0999 87.002 58.855 85.223L61.9594 82.0709L62.1384 77.0204C62.1862 75.6951 64.1921 75.7667 64.1443 77.0921V77.104Z" fill="#FFDBA7"/>
<path fill-rule="evenodd" clip-rule="evenodd" d="M65.6189 73.0594C65.5898 73.4039 65.7809 73.7367 66.1059 73.8545L66.3117 73.9291C66.6847 74.0643 66.8771 74.4766 66.7412 74.8493L66.3121 76.0259C66.1759 76.3997 65.7615 76.5912 65.3885 76.4528L65.2296 76.3938C64.8992 76.2712 64.5318 76.409 64.3342 76.7008C64.243 76.8355 64.1476 76.9669 64.0479 77.0951C63.8371 77.3662 63.8145 77.7462 64.0192 78.022L64.1291 78.17C64.3648 78.4875 64.2991 78.936 63.9821 79.1725L62.9866 79.9155C62.668 80.1533 62.2167 80.0866 61.9805 79.7668L61.8997 79.6575C61.6905 79.3743 61.3081 79.2885 60.9837 79.4252C60.6774 79.5543 60.3619 79.6635 60.0387 79.7482C59.6977 79.8375 59.4403 80.1338 59.4403 80.4863V80.6244C59.4403 81.0206 59.1191 81.3418 58.7229 81.3418H57.4743C57.0781 81.3418 56.7569 81.0206 56.7569 80.6244V80.4773C56.7569 80.1288 56.5052 79.8345 56.1679 79.7467C55.8114 79.6539 55.4644 79.5346 55.1304 79.3887C54.805 79.2466 54.4168 79.3239 54.2007 79.6056L54.1118 79.7216C53.869 80.038 53.4148 80.0957 53.1006 79.85L52.1177 79.0812C51.8076 78.8387 51.7509 78.3917 51.9904 78.0794L52.1051 77.93C52.3134 77.6584 52.2979 77.2795 52.093 77.0053C51.8717 76.7089 51.6708 76.395 51.4923 76.0672C51.3247 75.7594 50.974 75.5885 50.635 75.6777L50.4444 75.7277C50.0597 75.8289 49.6661 75.5976 49.5672 75.2122L49.2535 73.9898C49.1552 73.6069 49.3853 73.2166 49.7679 73.1171L50.0946 73.0322C50.3695 72.9608 50.5516 72.704 50.5516 72.42C50.5516 72.1457 50.566 71.875 50.5947 71.6079C50.6325 71.2576 50.4423 70.9143 50.1113 70.7933L49.883 70.7098C49.5111 70.5738 49.3197 70.1623 49.4554 69.7903L49.8856 68.6103C50.0217 68.2371 50.4351 68.0455 50.8078 68.183L51.0948 68.2888C51.4134 68.4063 51.7679 68.2821 51.9645 68.0052C52.0469 67.8892 52.132 67.7753 52.2202 67.664C52.4365 67.3909 52.4633 67.0043 52.2562 66.7242L52.0663 66.4674C51.8315 66.1499 51.8975 65.7022 52.2141 65.466L53.2156 64.7185C53.5323 64.4821 53.9805 64.5463 54.2181 64.8621L54.4217 65.1328C54.6285 65.4077 54.9999 65.4936 55.3185 65.3639C55.5928 65.2523 55.8742 65.1556 56.1639 65.078C56.5024 64.9872 56.7569 64.692 56.7569 64.3415V64.0133C56.7569 63.6171 57.0781 63.2959 57.4743 63.2959H58.7229C59.1191 63.2959 59.4403 63.6171 59.4403 64.0133V64.3506C59.4403 64.697 59.689 64.9903 60.0241 65.0785C60.3495 65.1643 60.6662 65.2708 60.9711 65.3981C61.2944 65.5332 61.6759 65.4532 61.8888 65.1748L62.0873 64.9153C62.3292 64.5991 62.7824 64.5403 63.097 64.7844L64.0908 65.5556C64.4033 65.7981 64.4606 66.2477 64.2189 66.5608L64.0331 66.8014C63.821 67.0762 63.8391 67.4613 64.0514 67.7359C64.2647 68.0119 64.4589 68.3016 64.632 68.6033C64.804 68.9029 65.15 69.0678 65.484 68.9801L65.7531 68.9095C66.1378 68.8086 66.5311 69.0399 66.63 69.4251L66.9433 70.646C67.0418 71.0297 66.8106 71.4206 66.427 71.5192L66.2084 71.5753C65.8654 71.6635 65.6416 71.9889 65.6453 72.3431C65.6456 72.3687 65.6457 72.3943 65.6457 72.42C65.6457 72.6347 65.6368 72.8478 65.6189 73.0594ZM63.2474 72.3188C63.2474 69.4686 60.933 67.1581 58.0986 67.1581C55.2643 67.1581 52.9666 69.4686 52.9666 72.3188C52.9666 75.1691 55.2643 77.4796 58.0986 77.4796C60.933 77.4796 63.2474 75.1691 63.2474 72.3188Z" fill="#D1493F"/>
<path fill-rule="evenodd" clip-rule="evenodd" d="M61.4581 76.6025C61.8999 77.092 61.8641 77.8561 61.3746 78.2979C59.7746 79.7426 57.8404 81.0441 56.324 82.5843L54.9749 84.0767C54.5331 84.5663 53.7212 84.4827 53.2794 83.9932C52.8376 83.5036 53.4943 82.9425 53.363 82.2977L53.0884 80.9605L59.7627 76.5308C60.3119 76.1607 61.0164 76.1249 61.4581 76.6144V76.6025Z" fill="#FFDBA7"/>
<path fill-rule="evenodd" clip-rule="evenodd" d="M64.2879 52.1618C64.8729 51.8633 65.6013 52.0902 65.8997 52.6752C66.9027 54.5856 67.6788 56.7945 68.7772 58.6332L69.8757 60.3047C70.2339 60.854 69.9473 61.6181 69.3623 61.9166C68.7772 62.2151 68.4071 61.439 67.7504 61.4151L66.3893 61.3435L63.7625 53.7737C63.5476 53.1528 63.6909 52.4603 64.2759 52.1618H64.2879Z" fill="#FFDBA7"/>
<path fill-rule="evenodd" clip-rule="evenodd" d="M8.87577 77.4384L23.0124 97.9031C24.9108 100.649 28.3375 101.533 31.3225 100.04C34.3074 98.5479 35.1671 94.5958 33.4597 91.7303L20.1469 69.3552C18.4514 66.5136 13.5681 64.5077 10.5832 66.024C7.25197 67.7195 6.04606 73.3431 8.87577 77.4384Z" fill="#A1A2A0"/>
<path fill-rule="evenodd" clip-rule="evenodd" d="M52.3598 80.3398L20.0986 92.1124L24.0029 98.5479L30.1519 100.506L52.3598 91.5632V80.3398Z" fill="#A1A2A0"/>
</g>
<defs>
<clipPath id="clip0_1283_9195">
<rect width="102.097" height="78.3008" fill="white" transform="translate(6.45166 23.0171)"/>
</clipPath>
</defs>
</svg>
