<svg width="115" height="115" viewBox="0 0 115 115" fill="none" xmlns="http://www.w3.org/2000/svg">
<rect width="115" height="115" rx="57.5" fill="white"/>
<path d="M73.5088 90.1205L84.9501 35.3648C85.2434 33.7629 84.2167 32.1609 82.6031 31.8697L38.1582 22.5496C36.5447 22.2584 34.9313 23.2778 34.6378 24.8796L23.0499 79.7809C22.7566 81.3827 23.7833 82.9847 25.3969 83.2759L69.9885 92.4504C71.6019 92.7417 73.0687 91.7223 73.5088 90.1205Z" fill="#DDDDDD"/>
<path d="M65.5943 87.9999L79 74.8396V28.9245C79 27.316 77.6886 26 76.0858 26H30.9142C29.3114 26 28 27.316 28 28.9245V85.0753C28 86.6837 29.3114 87.9998 30.9142 87.9998L65.5943 87.9999Z" fill="#ECECEC"/>
<path d="M66 88L79 75H66V88Z" fill="#C9CBC8"/>
<path d="M65.5943 88L79 74.8396V28.9245C79 27.316 77.6885 26 76.0857 26H30.9142C29.3114 26 28 27.316 28 28.9245V85.0754C28 86.6838 29.3114 87.9999 30.9142 87.9999L65.5943 88Z" fill="#ECECEC"/>
<path d="M71 32H35C34.4477 32 34 32.4477 34 33V34C34 34.5523 34.4477 35 35 35H71C71.5523 35 72 34.5523 72 34V33C72 32.4477 71.5523 32 71 32Z" fill="#699E4A"/>
<path d="M71 41H35C34.4477 41 34 41.4477 34 42V43C34 43.5523 34.4477 44 35 44H71C71.5523 44 72 43.5523 72 43V42C72 41.4477 71.5523 41 71 41Z" fill="#C9CBC8"/>
<path d="M71 51H35C34.4477 51 34 51.4477 34 52V53C34 53.5523 34.4477 54 35 54H71C71.5523 54 72 53.5523 72 53V52C72 51.4477 71.5523 51 71 51Z" fill="#C9CBC8"/>
<path d="M51 60H35C34.4477 60 34 60.4477 34 61V62C34 62.5523 34.4477 63 35 63H51C51.5523 63 52 62.5523 52 62V61C52 60.4477 51.5523 60 51 60Z" fill="#C9CBC8"/>
<path d="M66 88L79 75H66V88Z" fill="#C9CBC8"/>
<circle cx="6" cy="6" r="5.75" transform="matrix(0.984583 -0.174917 0.173732 0.984793 50 72)" stroke="#D30A21" stroke-width="0.5"/>
<path d="M58.8799 78.2184L59.2869 79.3369C59.3206 79.4199 59.4001 79.4742 59.4863 79.4589L60.6319 79.2554C60.7427 79.2357 60.8041 79.1153 60.7645 78.9991L59.0241 74.4627L56.5037 76.9911C56.5037 76.9911 56.5073 77.5517 56.5256 77.9796C57.197 77.0322 58.5316 77.1441 58.8799 78.2184Z" fill="#D30A21"/>
<path d="M59.0619 73.8649L58.8116 73.2482C58.7512 73.0968 58.5806 73.0086 58.4042 73.0399L55.0584 73.6343C54.882 73.6657 54.752 73.8073 54.7481 73.9764L54.6866 78.0977C54.6876 78.1412 54.6678 78.1822 54.634 78.2194L53.9425 78.9223C53.9021 78.9606 53.8856 79.0197 53.8952 79.0742L54.0114 79.7334C54.0285 79.8301 54.1273 79.8937 54.2319 79.8751L54.6632 79.7985L55.1664 79.7091C55.8656 79.5849 56.281 79.0744 56.2886 78.4681L56.3362 75.185C56.3335 75.017 56.469 74.8682 56.6454 74.8369L57.4296 74.6976C57.606 74.6662 57.7766 74.7544 57.8381 74.9119L57.9384 75.1748L58.9975 74.2256C59.0806 74.1236 59.1094 73.9812 59.0619 73.8649Z" fill="#005339"/>
<path d="M58.2947 79.4955C58.2947 79.4955 57.1201 80.0656 56.5791 79.6707C56.1563 79.3639 56.0455 78.7699 56.2943 78.2961C56.6018 77.7096 57.6635 77.5619 57.9288 78.3808C58.1872 79.16 58.2947 79.4955 58.2947 79.4955Z" fill="#D30A21"/>
<path d="M34.3983 74C34.25 74 34.1019 73.8585 34.1019 73.717C34.1019 73.5755 34.1019 73.2925 34.2502 73.2925C35.288 72.868 36.0292 72.019 36.3257 71.3115L35.1397 70.4624C34.8432 70.1795 34.5466 70.0379 34.2502 69.6134C33.8054 68.9059 33.9537 67.7738 34.6949 67.3493C35.4362 66.7832 36.6223 66.9248 37.2152 67.6322C37.8083 68.1983 37.9564 69.0473 37.5117 70.3209C37.3634 70.6039 37.3634 70.887 37.2152 71.1699C37.5117 71.3115 37.9564 71.4529 38.1047 71.4529C38.253 71.3113 38.5495 71.1699 38.6978 70.8868C38.9943 70.6039 39.2909 70.1793 39.7356 70.1793C39.8839 70.1793 40.0321 70.1793 40.0321 70.3209C40.1804 70.4624 40.1804 70.6039 40.1804 70.6039C40.1804 70.7454 40.1804 70.7454 40.1804 70.8868C40.3287 71.0284 40.3287 71.0284 40.4769 71.1698C40.7733 71.1698 41.0699 71.1698 41.3664 70.8868C41.5147 70.7453 41.6628 70.7453 41.6628 70.8868C41.8111 70.8868 41.8111 71.0284 41.9593 71.1698C42.1076 71.4528 42.5524 71.7359 42.9971 71.5943C43.4419 71.5943 44.035 71.1698 44.3314 70.8868C44.4797 70.7453 44.6279 70.7453 44.7762 70.8868C45.2209 71.3113 45.814 71.5943 46.5552 71.5943C46.7035 71.5943 47 71.7359 47 71.8773C47 72.0188 46.8517 72.3018 46.7035 72.3018C45.9623 72.3018 45.2209 72.1603 44.628 71.5943C44.1833 71.8773 43.7385 72.1604 43.1454 72.1604C42.5524 72.3019 41.9594 72.0188 41.5147 71.5943C41.0699 71.7359 40.7735 71.8773 40.3287 71.7359C40.0322 71.7359 39.7356 71.4529 39.4392 71.1698V71.0283C39.2909 71.1698 39.2909 71.1698 39.1427 71.3112C38.8462 71.5942 38.6979 71.8773 38.2532 72.0187C37.6601 72.1603 37.2153 72.0187 36.7706 71.7357C36.3255 72.8679 35.436 73.7169 34.3983 74ZM35.8808 67.6322C35.5843 67.6322 35.436 67.6322 35.2877 67.7738C34.843 68.0568 34.6947 68.7644 34.9913 69.1889C35.1396 69.4719 35.436 69.6134 35.7325 69.755L36.7703 70.4624C36.9186 70.1795 36.9186 70.0379 36.9186 69.8964C37.2151 68.9058 37.0669 68.3399 36.7703 67.9153C36.4738 67.7737 36.1774 67.6322 35.8808 67.6322Z" fill="#005339"/>
<path d="M58.3914 66C60.7506 64.6773 63.1096 63.2076 65.3214 61.5911L90.6823 41.3101C92.1569 40.1345 92.4517 37.783 91.2722 36.3133C90.0926 34.8437 87.7334 34.5498 86.2589 35.7254L60.8979 56.0064C58.8337 57.77 56.9169 59.8274 55 61.885L58.3914 66Z" fill="#D1493F"/>
<path d="M55.3851 61C52.9752 63.6256 50.8665 66.5601 49.0591 69.649C48.9084 69.8035 49.0591 70.1124 49.3603 69.9579C52.674 68.7223 55.837 67.3323 59 65.4789L55.3851 61Z" fill="#E8EAE9"/>
<path d="M55.3851 61C52.9752 63.6256 50.8665 66.5601 49.0591 69.649C48.9084 69.8035 49.0591 70.1124 49.3603 69.9579C52.674 68.7223 55.837 67.3323 59 65.4789L55.3851 61Z" fill="#005339"/>
<path d="M64.3846 53L63 54.0888L67.7693 60L69 58.9111L64.3846 53Z" fill="#005339"/>
<path d="M86.6666 45L82 38.9258L84.1875 37L89 43.074L86.6666 45Z" fill="#005339"/>
<path d="M78.207 53.6833C77.91 53.261 77.91 52.6979 78.3556 52.4164L87.862 45.2375L86.0795 43.1261L87.5649 42L89.793 44.6745C90.09 45.0968 90.09 45.6599 89.6444 45.9414L79.3954 53.6834C79.0982 54.1056 78.504 54.1056 78.207 53.6833Z" fill="#005339"/>
</svg>
