<?xml version="1.0" encoding="utf-8"?><svg xmlns="http://www.w3.org/2000/svg" xmlns:xlink="http://www.w3.org/1999/xlink"><symbol fill="none" viewBox="0 0 378 91" id="about-logo" xmlns="http://www.w3.org/2000/svg"><path d="M2 17.1v-14h1.88v11l7.44-11h1.88v14h-1.88v-11l-7.44 11H2Zm23.095.2a6.4 6.4 0 0 1-2.24-.4 5.248 5.248 0 0 1-1.88-1.28c-.546-.587-.98-1.327-1.3-2.22-.32-.894-.48-1.96-.48-3.2v-.4c0-1.2.16-2.234.48-3.1.32-.867.754-1.58 1.3-2.14a5.14 5.14 0 0 1 1.88-1.24c.72-.28 1.467-.42 2.24-.42.76 0 1.454.1 2.08.3.64.2 1.2.486 1.68.86.48.373.867.833 1.16 1.38.307.546.5 1.166.58 1.86h-2c-.186-.92-.58-1.6-1.18-2.04-.586-.454-1.36-.68-2.32-.68-.493 0-.973.093-1.44.28a3.39 3.39 0 0 0-1.26.9c-.36.4-.653.933-.88 1.6-.213.666-.32 1.48-.32 2.44v.4c0 1.013.12 1.866.36 2.56.24.68.547 1.233.92 1.66.374.426.794.733 1.26.92.467.186.92.28 1.36.28 1.04 0 1.854-.254 2.44-.76.587-.507.94-1.16 1.06-1.96h2c-.106.773-.32 1.44-.64 2-.32.546-.726 1-1.22 1.36-.48.36-1.033.626-1.66.8-.613.16-1.273.24-1.98.24Zm14.163-.2V4.74h-4.86V3.1h11.6v1.64h-4.86V17.1h-1.88Zm16.952.2c-.8 0-1.573-.134-2.32-.4a5.506 5.506 0 0 1-1.98-1.28c-.573-.574-1.033-1.307-1.38-2.2-.346-.894-.52-1.967-.52-3.22v-.4c0-1.2.174-2.234.52-3.1.347-.867.807-1.58 1.38-2.14a5.284 5.284 0 0 1 1.98-1.26c.747-.267 1.52-.4 2.32-.4.8 0 1.573.133 2.32.4a5.286 5.286 0 0 1 1.98 1.26c.574.56 1.034 1.273 1.38 2.14.347.866.52 1.9.52 3.1v.4c0 1.253-.173 2.326-.52 3.22-.346.893-.806 1.626-1.38 2.2-.573.573-1.233 1-1.98 1.28-.747.266-1.52.4-2.32.4Zm0-1.68c.547 0 1.073-.1 1.58-.3.507-.2.953-.514 1.34-.94.387-.44.694-1 .92-1.68.24-.694.36-1.527.36-2.5v-.4c0-.92-.12-1.707-.36-2.36-.226-.667-.533-1.207-.92-1.62a3.557 3.557 0 0 0-1.34-.94c-.507-.2-1.033-.3-1.58-.3-.547 0-1.073.1-1.58.3-.507.2-.953.513-1.34.94-.386.413-.7.953-.94 1.62-.227.653-.34 1.44-.34 2.36v.4c0 .973.114 1.806.34 2.5.24.68.553 1.24.94 1.68.387.426.834.74 1.34.94.507.2 1.033.3 1.58.3Zm12.205 1.48v-14h4.8c.92 0 1.72.106 2.4.32.68.213 1.24.513 1.68.9a3.35 3.35 0 0 1 1 1.36c.213.52.32 1.093.32 1.72 0 .626-.107 1.206-.32 1.74-.213.52-.547.973-1 1.36-.44.373-1 .666-1.68.88-.68.213-1.48.32-2.4.32h-2.92v5.4h-1.88Zm1.88-7.04h2.82c1.333 0 2.267-.24 2.8-.72.546-.48.82-1.127.82-1.94 0-.814-.273-1.46-.82-1.94-.534-.48-1.467-.72-2.8-.72h-2.82v5.32ZM84.32 17.1v-14h1.88v11l7.44-11h1.88v14h-1.88v-11l-7.44 11h-1.88Zm16.896 0 3.84-5.88c-1.08-.294-1.894-.787-2.44-1.48-.534-.707-.8-1.52-.8-2.44 0-.6.113-1.154.34-1.66.226-.52.56-.967 1-1.34.44-.374.986-.667 1.64-.88.666-.214 1.44-.32 2.32-.32h4.9v14h-1.88v-5.64h-3.24l-3.56 5.64h-2.12Zm6.1-7.24h2.82V4.74h-2.82c-1.294 0-2.22.24-2.78.72-.56.466-.84 1.08-.84 1.84s.28 1.38.84 1.86c.56.466 1.486.7 2.78.7Zm19.291 7.24v-14h4.8c.92 0 1.72.106 2.4.32.68.213 1.24.513 1.68.9a3.35 3.35 0 0 1 1 1.36c.213.52.32 1.093.32 1.72a4.65 4.65 0 0 1-.32 1.74c-.213.52-.547.973-1 1.36-.44.373-1 .666-1.68.88-.68.213-1.48.32-2.4.32h-2.92v5.4h-1.88Zm1.88-7.04h2.82c1.333 0 2.267-.24 2.8-.72.547-.48.82-1.127.82-1.94 0-.814-.273-1.46-.82-1.94-.533-.48-1.467-.72-2.8-.72h-2.82v5.32Zm10.824 7.04 5.36-14h1.88l5.36 14h-2.04l-1.34-3.48h-5.92l-1.34 3.48h-1.96Zm3.92-5.12h4.68l-2.34-6.48-2.34 6.48Zm17.908 5.32c-.814 0-1.547-.1-2.2-.3a5.072 5.072 0 0 1-1.64-.88 4.261 4.261 0 0 1-1.08-1.32 4.54 4.54 0 0 1-.48-1.7h1.88c.053.373.173.72.36 1.04.186.306.426.573.72.8.306.213.66.38 1.06.5.413.12.873.18 1.38.18 1.253 0 2.153-.214 2.7-.64.546-.44.82-1.04.82-1.8 0-.36-.067-.694-.2-1a1.79 1.79 0 0 0-.6-.78c-.28-.227-.64-.4-1.08-.52-.427-.134-.94-.2-1.54-.2h-1.9V9.12h1.9c1 0 1.733-.214 2.2-.64.48-.44.72-.994.72-1.66 0-.667-.254-1.207-.76-1.62-.507-.414-1.26-.62-2.26-.62-.534 0-.994.053-1.38.16-.387.106-.714.26-.98.46-.254.186-.454.42-.6.7-.134.266-.22.566-.26.9h-1.88c.053-.56.2-1.08.44-1.56s.566-.894.98-1.24c.426-.347.946-.614 1.56-.8.613-.2 1.32-.3 2.12-.3 1.613 0 2.833.36 3.66 1.08.826.72 1.24 1.666 1.24 2.84 0 .733-.214 1.36-.64 1.88-.414.506-.967.873-1.66 1.1.84.2 1.513.586 2.02 1.16.52.56.78 1.3.78 2.22 0 .6-.12 1.153-.36 1.66a3.58 3.58 0 0 1-1.04 1.3c-.454.36-1.014.646-1.68.86-.667.2-1.44.3-2.32.3Zm11.173-.2v-14h5c.84 0 1.56.093 2.16.28.6.186 1.093.446 1.48.78.4.32.693.713.88 1.18.186.453.28.953.28 1.5 0 .72-.2 1.34-.6 1.86-.387.506-.88.873-1.48 1.1.84.186 1.493.56 1.96 1.12.48.56.72 1.3.72 2.22 0 .573-.094 1.1-.28 1.58-.187.48-.48.9-.88 1.26-.4.346-.92.62-1.56.82-.627.2-1.387.3-2.28.3h-5.4Zm1.88-1.64h3.52c.6 0 1.1-.054 1.5-.16.4-.12.72-.28.96-.48.24-.214.406-.467.5-.76.106-.294.16-.62.16-.98s-.054-.687-.16-.98a1.561 1.561 0 0 0-.5-.76c-.24-.214-.567-.374-.98-.48-.4-.12-.9-.18-1.5-.18h-3.5v4.78Zm0-6.34h3.12c.56 0 1.026-.054 1.4-.16.373-.107.673-.26.9-.46.226-.2.386-.434.48-.7.093-.267.14-.56.14-.88 0-.32-.047-.614-.14-.88a1.516 1.516 0 0 0-.48-.7c-.227-.187-.527-.334-.9-.44-.374-.107-.84-.16-1.4-.16h-3.12v4.38Zm14.318 7.98v-14h1.88v11l7.44-11h1.88v14h-1.88v-11l-7.44 11h-1.88Zm21.255 0V4.74h-4.86V3.1h11.6v1.64h-4.86V17.1h-1.88Zm11.943 0v-14h1.88v11l7.44-11h1.88v14h-1.88v-11l-7.44 11h-1.88Zm16.895 0 3.84-5.88c-1.08-.294-1.893-.787-2.44-1.48-.533-.707-.8-1.52-.8-2.44 0-.6.113-1.154.34-1.66.227-.52.56-.967 1-1.34.44-.374.987-.667 1.64-.88.667-.214 1.44-.32 2.32-.32h4.9v14h-1.88v-5.64h-3.24l-3.56 5.64h-2.12Zm6.1-7.24h2.82V4.74h-2.82c-1.293 0-2.22.24-2.78.72-.56.466-.84 1.08-.84 1.84s.28 1.38.84 1.86c.56.466 1.487.7 2.78.7Z" fill="#000"/><path d="M368.238.1h-18.339a2.312 2.312 0 0 0-2.147 3.17l6.865 17.183L347.74 37.8a2.312 2.312 0 0 0 2.149 3.164h18.349l9.029-19.537a2.314 2.314 0 0 0-.003-1.946L368.238.1Z" fill="#D30A21"/><g clip-path="url(#aaa)"><path d="m54.647 76.43 2.248 11.837a1.924 1.924 0 0 0 1.888 1.563h12.648a1.919 1.919 0 0 0 1.882-2.303L63.252 39.493 31.6 60.06s-1.018 5.533-1.604 9.812c8.931-8.155 23-4.651 24.65 6.558Z" fill="#D30A21"/><path d="M59.91 33.878v-.003l-1.42-7.194-.001-.002a3.491 3.491 0 0 0-3.42-2.786H20.35a3.498 3.498 0 0 0-3.438 2.864L8.91 71.494a2.237 2.237 0 0 1-.825 1.365l-.002.001-8.2 6.296h-.002a1.645 1.645 0 0 0-.631 1.304V87.877a1.657 1.657 0 0 0 1.657 1.657h9.665c7.116 0 12.072-4.659 13.203-11.077l6.285-35.608v-.002a4.078 4.078 0 0 1 4.026-3.413m25.823-5.556L34.087 39.73m25.823-5.852a3.487 3.487 0 0 1-1.263 3.453m1.263-3.453-1.09 3.692m-24.733 1.864v.296m0-.295v.295m0-.295h8.162a4.09 4.09 0 0 1 4.013 3.33l.001.004.449 2.587M34.087 39.73h8.162a3.794 3.794 0 0 1 3.722 3.09l.472 2.717.269-.181m0 0 .055.32L58.82 37.57m-12.108 7.786 11.934-8.026M7.905 72.626-.3 78.922a1.942 1.942 0 0 0-.746 1.54v7.415A1.953 1.953 0 0 0 .908 89.83h9.665c7.268 0 12.34-4.77 13.494-11.322L7.904 72.625Zm0 0c.376-.293.63-.714.716-1.183l-.716 1.183Zm50.743-35.294a.427.427 0 0 1-.008.006l.181.233m-.173-.24.008-.005.165.245" fill="#005339" stroke="#005339" stroke-width=".592"/><path d="M51.395 89.434s-14.293 3.551-19.584-1.267c-4.143-3.8-4.208-9.93-.497-14.204 4.592-5.291 16.855-4.865 18.21 3.7 1.303 8.25 1.871 11.77 1.871 11.77Z" fill="#D30A21"/><path d="M90.554 33.432v-5.715h19.466V53.48h-6.238V33.132h-7.33l-.003.293c-.047 4.129-.244 7.419-.696 10.061-.453 2.642-1.158 4.618-2.21 6.132h-.001c-2.734 3.974-7.102 4.117-10.078 4.122v-6.055c1.391-.01 2.368-.084 3.096-.292.804-.23 1.303-.622 1.728-1.231.695-1 1.24-1.957 1.62-3.793.375-1.817.59-4.496.646-8.937ZM133.087 49.249l-.068-.202h-11.511l-.068.202-1.406 4.207h-5.927l8.626-25.74h9.174l8.655 25.74h-6.069l-1.406-4.207Zm-5.558-16.507-.28-.838-.281.838-3.681 10.997-.131.39h8.185l-.13-.39-3.682-10.997ZM128.389 85.098h-.213l-.068.202-1.435 4.29h-5.928l8.626-25.77h9.192l8.626 25.77h-6.081l-1.436-4.29-.068-.202h-11.215Zm1.554-5.296-.13.39h8.137l-.13-.39-3.658-10.955-.281-.841-.28.84-3.658 10.956ZM212.332 85.098h-.212l-.068.201-1.442 4.29h-5.922l8.627-25.768h9.174l8.626 25.769h-6.07l-1.435-4.29-.068-.202H212.332Zm1.554-5.296-.13.39h.412l7.321-.024.41-.002-.13-.388-3.658-10.932-.28-.839-.281.84-3.664 10.955ZM314.098 76.847l.272.559.263-.564 6.069-13.021h6.466L314.729 89.59h-6.869l3.028-5.443.076-.137-.069-.14-7.481-14.956-.082-.163H294.372V89.59h-6.25V68.75h-8.002v-4.93h27.644l6.334 13.026ZM263.198 85.098h-.213l-.068.201-1.441 4.29h-5.922l8.626-25.768h9.174l8.626 25.769h-6.07l-1.435-4.29-.068-.202h-11.209Zm1.554-5.296-.131.39h.412l7.321-.024.41-.002-.13-.388-3.658-10.932-.28-.839-.281.84-3.663 10.955ZM175.274 48.224v.296h13.104v4.936H169.03v-25.74h19.348v4.907h-13.104v5.291h11.796v4.9h-11.796v5.41ZM156.894 68.75h-.295V89.59h-6.244V63.82h22.857v25.77h-6.244V68.75h-10.074ZM185.162 68.75h-.296V89.59h-6.244V63.82h22.857v25.77h-6.244V68.75H185.162ZM92.884 79.357v1.045l.548-.89 9.655-15.691h6.374V89.59h-6.244V73.402l-.546.867-9.655 15.32H86.64V63.822h6.244v15.536ZM200.094 47.928h-.296V53.456h-6.244v-25.74h9.866c4.008 0 6.986 1.279 8.96 3.169a9.571 9.571 0 0 1 2.964 6.937 9.571 9.571 0 0 1-2.964 6.938c-1.974 1.89-4.952 3.168-8.96 3.168h-3.326Zm-.296-5.202v.296h3.622c2.014 0 3.553-.635 4.591-1.613a4.913 4.913 0 0 0 0-7.173c-1.038-.979-2.577-1.613-4.591-1.613h-3.622v10.103ZM359.18 85.098h-.213l-.068.202-1.435 4.29h-5.922l8.626-25.77h9.168l8.626 25.77h-6.069l-1.436-4.29-.067-.202h-11.21Zm1.566-5.296-.13.39h8.161l-.131-.391-3.687-10.955-.282-.837-.279.838-3.652 10.955ZM244.606 53.456v-25.74h6.244v25.74h-6.244ZM226.253 35.044v.296h3.912c7.683 0 11.427 4.573 11.427 9.058 0 4.484-3.744 9.058-11.427 9.058h-10.156v-25.74h6.244v7.328Zm0 13.21v.296h3.912c3.407 0 5.214-2.03 5.214-4.158 0-2.128-1.807-4.158-5.214-4.158h-3.912v8.02ZM148.788 45.572c.039.62.164 1.414.745 2.084.693.799 1.968 1.35 4.271 1.35 2.806 0 4.493-1.538 4.674-3.195.091-.827-.203-1.651-.894-2.26-.687-.603-1.741-.974-3.148-.96h-3.68v-4.143h3.681c1.299 0 2.271-.375 2.899-.977a2.613 2.613 0 0 0 .798-2.214c-.185-1.612-1.749-3.124-4.354-3.124-2.02 0-3.205.497-3.882 1.231-.576.626-.74 1.378-.785 2.002-.981-.053-1.688-.088-2.283-.118-1.276-.065-2.033-.103-3.858-.23.063-1.703.708-3.587 2.271-5.072 1.645-1.565 4.342-2.72 8.537-2.72 5.296 0 8.574 2.21 9.859 4.847 1.284 2.634.622 5.763-2.097 7.752l-.34.249.35.235c3.052 2.052 3.874 5.44 2.585 8.316-1.29 2.877-4.734 5.311-10.357 5.311-4.745 0-7.516-1.14-9.102-2.676-1.505-1.46-1.989-3.32-2.033-5.044a187.04 187.04 0 0 0 5.172-.535l.971-.11ZM240.846 84.032h-.296v5.558h-6.244V63.82h9.848c4.008 0 6.986 1.279 8.961 3.17a9.576 9.576 0 0 1 2.965 6.937 9.569 9.569 0 0 1-2.958 6.937c-1.972 1.89-4.946 3.168-8.95 3.168h-3.326Zm-.314-5.172v.296h3.622c2.014 0 3.553-.635 4.591-1.614a4.917 4.917 0 0 0 0-7.177c-1.038-.98-2.577-1.614-4.591-1.614h-3.622V78.86ZM336.601 84.032h-.295v5.558h-6.244V63.82h9.889c4.003 0 6.976 1.279 8.947 3.169a9.579 9.579 0 0 1 2.96 6.938 9.579 9.579 0 0 1-2.96 6.937c-1.971 1.89-4.944 3.168-8.947 3.168h-3.35Zm-.272-5.172v.296h3.622c2.009 0 3.543-.635 4.578-1.615a4.925 4.925 0 0 0 0-7.176c-1.035-.98-2.569-1.614-4.578-1.614h-3.622V78.86Z" fill="#005339" stroke="#005339" stroke-width=".592"/></g><defs><clipPath id="aaa"><path fill="#fff" transform="translate(0 23.963)" d="M0 0h377.716v66.937H0z"/></clipPath></defs></symbol><symbol fill="none" viewBox="0 0 24 24" id="arrow-down-check" xmlns="http://www.w3.org/2000/svg"><path d="m6 9 6 6 6-6" stroke="#222" stroke-width="2" stroke-linecap="round" stroke-linejoin="round"/></symbol><symbol fill="none" viewBox="0 0 24 24" id="arrow-left" xmlns="http://www.w3.org/2000/svg"><path d="M20 12H4M10 18l-6-6 6-6" stroke="#222" stroke-width="2" stroke-linecap="round" stroke-linejoin="round"/></symbol><symbol fill="none" viewBox="0 0 24 24" id="arrow-left-check" xmlns="http://www.w3.org/2000/svg"><path d="m15 6-6 6 6 6" stroke="#222" stroke-width="2" stroke-linecap="round" stroke-linejoin="round"/></symbol><symbol fill="none" viewBox="0 0 24 24" id="arrow-right" xmlns="http://www.w3.org/2000/svg"><path d="M4 12h16M14 6l6 6-6 6" stroke="#222" stroke-width="2" stroke-linecap="round" stroke-linejoin="round"/></symbol><symbol fill="none" viewBox="0 0 24 24" id="arrow-right-check" xmlns="http://www.w3.org/2000/svg"><path d="m9 18 6-6-6-6" stroke="#222" stroke-width="2" stroke-linecap="round" stroke-linejoin="round"/></symbol><symbol fill="none" viewBox="0 0 24 24" id="arrow-up-check" xmlns="http://www.w3.org/2000/svg"><path d="m18 15-6-6-6 6" stroke="#222" stroke-width="2" stroke-linecap="round" stroke-linejoin="round"/></symbol><symbol fill="none" viewBox="0 0 24 24" id="bus" xmlns="http://www.w3.org/2000/svg"><g clip-path="url(#aha)" stroke="#222" stroke-linecap="round" stroke-linejoin="round"><path d="M19.929 19.7h1.375c.947 0 1.714-.767 1.714-1.714V13.64c0-.946-.768-1.714-1.714-1.714h-.947v-6.14c0-.947-.767-1.715-1.714-1.715H2.888c-.947 0-1.714.768-1.714 1.715V18.23c0 .812.658 1.47 1.47 1.47h.785M20.357 7.215H1.175M20.357 11.926H1.175M7.653 7.215v4.705M13.769 7.215v4.705" stroke-width="2"/><path d="M5.812 22.07a2.393 2.393 0 1 0 0-4.787 2.393 2.393 0 0 0 0 4.787ZM17.538 22.07a2.393 2.393 0 1 0 0-4.786 2.393 2.393 0 0 0 0 4.786Z" stroke-width="2"/><path d="M8.205 19.676h6.939" stroke-width="1.5"/></g><defs><clipPath id="aha"><path fill="#fff" d="M0 0h24v24H0z"/></clipPath></defs></symbol><symbol fill="none" viewBox="0 0 36 36" id="button-contacts-mail" xmlns="http://www.w3.org/2000/svg"><path clip-rule="evenodd" d="M6.615 6.564H29.95a2.925 2.925 0 0 1 2.916 2.917v17.5a2.925 2.925 0 0 1-2.916 2.916H6.615A2.925 2.925 0 0 1 3.7 26.981V9.48a2.925 2.925 0 0 1 2.916-2.917Z" stroke="#fff" stroke-width="2" stroke-linecap="round" stroke-linejoin="round"/><path d="M32.865 9.48 18.282 19.69 3.7 9.48" stroke="#fff" stroke-width="2" stroke-linecap="round" stroke-linejoin="round"/></symbol><symbol fill="none" viewBox="0 0 36 36" id="button-contacts-phone" xmlns="http://www.w3.org/2000/svg"><path clip-rule="evenodd" d="M31.408 25.405v4.375a2.917 2.917 0 0 1-3.18 2.917 28.86 28.86 0 0 1-12.585-4.477 28.437 28.437 0 0 1-8.75-8.75A28.86 28.86 0 0 1 2.416 6.826a2.917 2.917 0 0 1 2.902-3.179h4.375a2.917 2.917 0 0 1 2.917 2.508 18.73 18.73 0 0 0 1.02 4.098 2.917 2.917 0 0 1-.655 3.077l-1.853 1.852a23.333 23.333 0 0 0 8.75 8.75l1.852-1.851a2.916 2.916 0 0 1 3.078-.657c1.323.494 2.697.836 4.098 1.021a2.917 2.917 0 0 1 2.508 2.96Z" stroke="#fff" stroke-width="2" stroke-linecap="round" stroke-linejoin="round"/></symbol><symbol fill="none" viewBox="0 0 24 24" id="car" xmlns="http://www.w3.org/2000/svg"><g clip-path="url(#aka)" stroke="#222" stroke-linecap="round" stroke-linejoin="round"><path d="M3.429 18.857h-.857a1.714 1.714 0 0 1-1.715-1.714v-3.429A1.714 1.714 0 0 1 2.572 12h2.571l1.32-3.977a1.714 1.714 0 0 1 1.714-1.166h6.875a1.714 1.714 0 0 1 1.714 1.166L18 12h3.429a1.714 1.714 0 0 1 1.714 1.714v3.429a1.714 1.714 0 0 1-1.714 1.714h-.857" stroke-width="2"/><path d="M17.998 21.428a2.573 2.573 0 1 1 0-5.146 2.573 2.573 0 0 1 0 5.146ZM5.998 21.428a2.573 2.573 0 1 1 0-5.146 2.573 2.573 0 0 1 0 5.146Z" stroke-width="2"/><path d="M15.425 18.857H8.57" stroke-width="1.5"/></g><defs><clipPath id="aka"><path fill="#fff" d="M0 0h24v24H0z"/></clipPath></defs></symbol><symbol fill="none" viewBox="0 0 24 24" id="check" xmlns="http://www.w3.org/2000/svg"><path d="M20 7 9 18l-5-5" stroke="#222" stroke-width="2" stroke-linecap="round" stroke-linejoin="round"/></symbol><symbol fill="none" viewBox="0 0 24 24" id="close" xmlns="http://www.w3.org/2000/svg"><path d="M18 6 6 18M6 6l12 12" stroke="#222" stroke-width="2" stroke-linecap="round" stroke-linejoin="round"/></symbol><symbol fill="none" viewBox="0 0 24 24" id="download" xmlns="http://www.w3.org/2000/svg"><path d="M4 12v8a2 2 0 0 0 2 2h12a2 2 0 0 0 2-2v-8M16 6l-4-4-4 4M12 2v13" stroke="#222" stroke-width="2" stroke-linecap="round" stroke-linejoin="round"/></symbol><symbol fill="none" viewBox="0 0 24 24" id="file" xmlns="http://www.w3.org/2000/svg"><path clip-rule="evenodd" d="M13 1.938H6a2 2 0 0 0-2 2v16a2 2 0 0 0 2 2h12a2 2 0 0 0 2-2v-11l-7-7Z" stroke="#222" stroke-width="2" stroke-linecap="round" stroke-linejoin="round"/><path d="M13.09 2.182v6.545h6.546" stroke="#222" stroke-width="2" stroke-linecap="round" stroke-linejoin="round"/></symbol><symbol fill="none" viewBox="0 0 24 24" id="home" xmlns="http://www.w3.org/2000/svg"><path clip-rule="evenodd" d="m3 9 9-7 9 7v11a2 2 0 0 1-2 2H5a2 2 0 0 1-2-2V9Z" stroke="#222" stroke-width="2" stroke-linecap="round" stroke-linejoin="round"/><path d="M9 22V12h6v10" stroke="#222" stroke-width="2" stroke-linecap="round" stroke-linejoin="round"/></symbol><symbol fill="none" viewBox="0 0 24 17" id="icon-arrow-left" xmlns="http://www.w3.org/2000/svg"><path d="M21.5 8.5h-19M6 12.5l-4-4 4-4"/></symbol><symbol fill="none" viewBox="0 0 24 17" id="icon-arrow-right" xmlns="http://www.w3.org/2000/svg"><path d="M2.5 8.5h19M18 12.5l4-4-4-4"/></symbol><symbol fill="none" viewBox="0 0 25 17" id="icon-arrow-right1" xmlns="http://www.w3.org/2000/svg"><g opacity=".5" stroke="#5A5F61" stroke-width="1.5" stroke-linecap="square" stroke-linejoin="round"><path d="M2.752 8.5h19M18.252 12.5l4-4-4-4"/></g></symbol><symbol fill="none" viewBox="0 0 24 24" id="info" xmlns="http://www.w3.org/2000/svg"><path clip-rule="evenodd" d="M12 22c5.523 0 10-4.477 10-10S17.523 2 12 2 2 6.477 2 12s4.477 10 10 10Z" stroke="#222" stroke-width="2" stroke-linecap="round" stroke-linejoin="round"/><path d="M12 16v-4" stroke="#222" stroke-width="2" stroke-linecap="round" stroke-linejoin="round"/><circle cx="12" cy="8" r="1" fill="#222"/></symbol><symbol fill="none" viewBox="0 0 260 56" id="logo" xmlns="http://www.w3.org/2000/svg"><g clip-path="url(#aua)"><path class="aulogo__elem-red" d="m44.948 44.29 1.817 9.558c.138.736.78 1.263 1.527 1.263h10.233c.983 0 1.719-.9 1.521-1.861l-8.12-38.86-25.612 16.674s-.823 4.48-1.3 7.938c7.213-6.61 18.595-3.777 19.934 5.293v-.006Z" fill="#D30A21"/><path class="aulogo__word-green" d="m49.444 9.811-1.152-5.825a3.063 3.063 0 0 0-3.004-2.449h-28.11a3.07 3.07 0 0 0-3.014 2.515l-6.45 36.197a1.55 1.55 0 0 1-.582.966L.499 46.299a1.577 1.577 0 0 0-.603 1.246v5.979c0 .873.708 1.581 1.58 1.581h7.819c5.88 0 9.98-3.86 10.914-9.157l5.084-28.808a3.064 3.064 0 0 1 3.02-2.558h6.599a3.066 3.066 0 0 1 3.014 2.498l.428 2.454 9.987-6.709a3.058 3.058 0 0 0 1.098-3.02l.005.006Z" fill="#005339"/><path class="aulogo__elem-red" d="M42.324 54.803s-11.562 2.888-15.845-1.021c-3.36-3.074-3.404-8.038-.4-11.491 3.716-4.277 13.637-3.936 14.735 2.998 1.054 6.665 1.515 9.514 1.515 9.514h-.005Z" fill="#D30A21"/><path class="aulogo__word-green" d="M73.223 14.72v3.875c-.077 5.76-.56 6.874-1.433 8.137-.5.719-1.153.906-3.157.906v4.298c1.9 0 4.963 0 6.879-2.75 1.406-2.026 1.856-5.238 1.927-10.59h4.365v13.176h4.425V14.719H73.223ZM100.756 28.917l.955 2.855h4.332l-5.715-17.053h-6.215l-5.716 17.053h4.239l.955-2.855h7.165Zm-3.58-10.679 2.388 7.121h-4.77l2.388-7.12h-.006ZM98.417 38.097 92.702 55.17h4.239l.971-2.91h7.121l.972 2.91h4.332l-5.716-17.074h-6.215.011Zm.692 10.601 2.372-7.077 2.372 7.077H99.109ZM152.776 38.097l-5.715 17.074h4.238l.972-2.91h7.121l.971 2.91h4.332l-5.715-17.074h-6.215.011Zm.692 10.601 2.371-7.077 2.372 7.077h-4.743ZM218.356 46.64l-4.15-8.543h-18.217v3.58h5.183V55.17h4.425V41.676h5.496l4.848 9.685-2.12 3.81h4.892l8.241-17.074h-4.617l-3.981 8.542ZM185.722 38.097l-5.715 17.074h4.238l.972-2.91h7.121l.972 2.91h4.331l-5.715-17.074h-6.215.011Zm.692 10.601 2.372-7.077 2.371 7.077h-4.743ZM136.953 28.187h-8.482v-3.305h7.636v-3.564h-7.636v-3.041h8.482v-3.558H124.04v17.053h12.913v-3.585ZM111.95 38.097V55.17h4.425V41.676h6.336v13.495h4.425V38.097H111.95ZM130.255 38.097V55.17h4.43V41.676h6.331v13.495h4.425V38.097h-15.186ZM75.111 48.352V38.097h-4.425V55.17h4.425l6.308-10.014v10.014h4.425V38.097H81.42l-6.308 10.255ZM146.506 14.72h-6.583v17.052h4.425v-3.58h2.152c10.552 0 10.552-13.473 0-13.473h.006Zm0 9.909h-2.153v-6.352h2.153c5.051 0 5.056 6.352 0 6.352ZM255.47 55.171h4.332l-5.716-17.074h-6.214l-5.716 17.074h4.239l.971-2.91h7.121l.972 2.91h.011Zm-6.907-6.467 2.372-7.077 2.372 7.077H248.563ZM177.41 14.72h-4.425v17.052h4.425V14.719Z" fill="#005339"/><path class="aulogo__word-green" d="M163.827 31.772c10.124 0 10.124-12.117 0-12.117h-2.338v-4.941h-4.426v17.052h6.77l-.006.006Zm0-3.558h-2.338v-4.996h2.338c4.25 0 4.25 4.996 0 4.996ZM114.372 28.505c-2.932 0-3.036-1.405-3.053-2.245-2.174.247-2.35.274-4.354.455 0 2.389 1.203 5.348 7.407 5.348 7.395 0 9.245-6.418 5.138-9.174 3.668-2.669 1.823-8.505-5.138-8.505-5.507 0-7.193 3.03-7.193 5.42 1.96.136 2.109.125 4.354.246.017-.84.28-2.103 2.839-2.103 3.222 0 3.645 3.706.422 3.706h-2.575V24.7h2.575c3.503 0 3.08 3.805-.422 3.805ZM172.886 38.097h-6.582V55.17h4.425v-3.58h2.152c10.552 0 10.552-13.489 0-13.489l.005-.005Zm0 9.931h-2.152v-6.352h2.152c5.051 0 5.057 6.352 0 6.352ZM234.909 38.097h-6.583V55.17h4.425v-3.58h2.152c10.553 0 10.553-13.489 0-13.489l.006-.005Zm0 9.931h-2.152v-6.352h2.152c5.051 0 5.056 6.352 0 6.352ZM70.697 1.773h1.581v2.34h2.284v-2.34h1.582v6.15h-1.582V5.407h-2.284v2.514h-1.58V1.773ZM81.123 6.748H79.07l-.423 1.174h-1.493l2.24-6.149h1.581l2.24 6.15h-1.669l-.423-1.175Zm-1.608-1.214h1.158l-.582-1.828-.582 1.828h.006ZM84.928 8.038c-.066 0-.127 0-.187-.011s-.115-.017-.165-.028V6.693l.143.016a1.695 1.695 0 0 0 .483-.011.524.524 0 0 0 .203-.077.412.412 0 0 0 .132-.143c.033-.06.066-.131.099-.22l-2.46-4.49h1.598l1.636 3.118 1.285-3.118h1.548L87.19 6.424a7.108 7.108 0 0 1-.396.752c-.126.203-.28.368-.45.494-.17.126-.368.22-.593.274a3.462 3.462 0 0 1-.812.083l-.011.01ZM93.449 5.474a2.734 2.734 0 0 1-.604.269c-.253.077-.55.12-.89.12-.636 0-1.12-.159-1.443-.477-.324-.319-.49-.835-.49-1.543V1.78h1.582v1.8c0 .352.072.599.22.747.148.148.351.22.615.22a1.9 1.9 0 0 0 .609-.082c.16-.055.296-.116.4-.182V1.78h1.582v6.149h-1.581V5.474ZM96.567 1.773h1.581v2.34h2.284v-2.34h1.581v6.15h-1.581V5.407h-2.284v2.514h-1.581V1.773ZM106.318 8.038a3.81 3.81 0 0 1-1.153-.176 2.468 2.468 0 0 1-.955-.56 2.686 2.686 0 0 1-.648-.977c-.159-.396-.236-.873-.236-1.439v-.175c0-.538.077-1 .236-1.39.159-.384.373-.702.648-.95a2.53 2.53 0 0 1 .955-.543 3.78 3.78 0 0 1 1.153-.175c.406 0 .785.06 1.153.175.368.116.681.297.955.544.275.247.489.56.648.95.159.384.236.85.236 1.389v.175c0 .56-.077 1.043-.236 1.439-.159.395-.373.719-.648.977-.274.258-.593.44-.955.56a3.786 3.786 0 0 1-1.153.176Zm0-1.318c.176 0 .346-.027.51-.082a.982.982 0 0 0 .429-.291c.12-.138.225-.324.296-.56.077-.236.115-.533.115-.895v-.176c0-.34-.038-.62-.115-.845a1.528 1.528 0 0 0-.296-.538.973.973 0 0 0-.429-.275 1.592 1.592 0 0 0-.51-.077c-.176 0-.346.028-.511.077a.997.997 0 0 0-.428.275 1.425 1.425 0 0 0-.296.538 2.81 2.81 0 0 0-.116.845v.176c0 .362.039.664.116.895.076.236.175.422.296.56.121.137.269.236.428.29.165.056.335.083.511.083ZM110.227 4.2h2.898v1.301h-2.898v-1.3ZM114.268 1.773h5.358v6.15h-1.581V3.074h-2.196v4.847h-1.581V1.773ZM121.163 1.773h2.504c.856 0 1.487.187 1.894.56.406.374.609.884.609 1.543 0 .659-.203 1.17-.609 1.543-.407.373-1.038.56-1.894.56h-.923v1.949h-1.581V1.773Zm2.328 2.9c.406 0 .686-.067.851-.204.165-.137.247-.335.247-.598 0-.264-.082-.461-.247-.599-.165-.137-.45-.203-.851-.203h-.747v1.598h.747v.005ZM130.123 8.038a3.81 3.81 0 0 1-1.153-.176 2.468 2.468 0 0 1-.955-.56 2.686 2.686 0 0 1-.648-.977c-.159-.396-.236-.873-.236-1.439v-.175c0-.538.077-1 .236-1.39.159-.384.373-.702.648-.95a2.53 2.53 0 0 1 .955-.543 3.78 3.78 0 0 1 1.153-.175c.406 0 .785.06 1.153.175.368.116.681.297.955.544.275.247.489.56.648.95.159.384.236.85.236 1.389v.175c0 .56-.077 1.043-.236 1.439-.159.395-.373.719-.648.977-.274.258-.593.44-.955.56a3.781 3.781 0 0 1-1.153.176Zm0-1.318c.176 0 .346-.027.511-.082a.985.985 0 0 0 .428-.291c.121-.138.225-.324.296-.56.077-.236.116-.533.116-.895v-.176c0-.34-.039-.62-.116-.845a1.512 1.512 0 0 0-.296-.538.976.976 0 0 0-.428-.275 1.602 1.602 0 0 0-.511-.077c-.176 0-.346.028-.511.077a.997.997 0 0 0-.428.275 1.425 1.425 0 0 0-.296.538 2.81 2.81 0 0 0-.116.845v.176c0 .362.039.664.116.895.077.236.175.422.296.56.121.137.269.236.428.29.165.056.335.083.511.083ZM134.427 1.773h1.581v3.69l2.416-3.69h1.45v6.15h-1.582v-3.69l-2.415 3.69h-1.45v-6.15ZM143.739 8.038c-.862 0-1.51-.187-1.944-.566-.433-.379-.664-.9-.691-1.57h1.636c.022.28.109.505.252.664.148.16.395.242.747.242.351 0 .604-.066.763-.192.159-.127.236-.313.236-.544a.981.981 0 0 0-.049-.313.546.546 0 0 0-.165-.247.865.865 0 0 0-.335-.159 2.136 2.136 0 0 0-.538-.055h-.56v-1.07h.56c.165 0 .302-.017.412-.055a.707.707 0 0 0 .269-.154.554.554 0 0 0 .142-.22.773.773 0 0 0 .044-.252.964.964 0 0 0-.033-.253.52.52 0 0 0-.12-.208.605.605 0 0 0-.242-.143 1.262 1.262 0 0 0-.384-.055c-.28 0-.494.06-.632.187-.142.126-.219.318-.236.582h-1.636c.022-.681.236-1.18.643-1.51.406-.33 1.026-.494 1.861-.494.834 0 1.449.148 1.834.45.384.296.581.73.581 1.301 0 .324-.082.598-.241.823-.159.226-.39.39-.692.49.373.087.659.257.857.504.197.247.296.571.296.972 0 .274-.055.527-.159.752a1.528 1.528 0 0 1-.483.582 2.29 2.29 0 0 1-.824.379 4.587 4.587 0 0 1-1.175.132h.006ZM147.587 1.773h2.943c.719 0 1.246.143 1.57.429.33.285.494.691.494 1.219 0 .318-.082.587-.247.812-.164.225-.384.39-.669.489.362.082.647.247.862.494.208.247.318.57.318.972 0 .538-.176.96-.533 1.273-.356.313-.922.467-1.707.467h-3.031V1.773Zm2.559 2.45c.34 0 .571-.056.692-.166.12-.11.181-.263.181-.46 0-.198-.061-.358-.181-.462-.121-.104-.346-.154-.681-.154h-.983v1.241h.977-.005Zm.121 2.486c.378 0 .642-.055.79-.17.148-.115.22-.291.22-.533 0-.241-.077-.417-.225-.538-.149-.115-.418-.175-.802-.175h-1.081v1.416h1.098ZM156.811 8.038a3.81 3.81 0 0 1-1.153-.176 2.468 2.468 0 0 1-.955-.56 2.686 2.686 0 0 1-.648-.977c-.159-.396-.236-.873-.236-1.439v-.175c0-.538.077-1 .236-1.39.159-.384.373-.702.648-.95a2.53 2.53 0 0 1 .955-.543 3.78 3.78 0 0 1 1.153-.175c.406 0 .785.06 1.153.175.368.116.681.297.955.544.275.247.489.56.648.95.159.384.236.85.236 1.389v.175c0 .56-.077 1.043-.236 1.439-.159.395-.373.719-.648.977-.274.258-.593.44-.955.56a3.781 3.781 0 0 1-1.153.176Zm0-1.318c.176 0 .346-.027.511-.082a.985.985 0 0 0 .428-.291c.121-.138.225-.324.296-.56.077-.236.116-.533.116-.895v-.176c0-.34-.039-.62-.116-.845a1.512 1.512 0 0 0-.296-.538.976.976 0 0 0-.428-.275 1.602 1.602 0 0 0-.511-.077c-.176 0-.346.028-.511.077a.997.997 0 0 0-.428.275 1.425 1.425 0 0 0-.296.538 2.81 2.81 0 0 0-.116.845v.176c0 .362.039.664.116.895.077.236.175.422.296.56.121.137.269.236.428.29.165.056.335.083.511.083ZM160.401 6.621h.703c.077-.197.137-.428.187-.691.049-.259.088-.539.121-.835a17.972 17.972 0 0 0 .088-1.828V1.773h4.512v4.848h.626v2.443h-1.372V7.922h-3.497v1.142h-1.373V6.621h.005Zm4.03 0V3.075h-1.46v.367c0 .714-.028 1.33-.082 1.85-.055.517-.143.961-.269 1.33h1.811ZM170.339 8.038c-.423 0-.807-.055-1.159-.17a2.194 2.194 0 0 1-.9-.55 2.558 2.558 0 0 1-.582-.977c-.143-.4-.209-.884-.209-1.46v-.165c0-.538.072-.999.22-1.389.148-.384.346-.703.604-.95s.56-.428.911-.543a3.548 3.548 0 0 1 1.12-.176 4.2 4.2 0 0 1 1.005.121c.313.082.587.209.823.384.236.176.429.407.582.687.149.28.236.625.269 1.026h-1.636a1.253 1.253 0 0 0-.142-.417.91.91 0 0 0-.549-.44 1.28 1.28 0 0 0-.357-.049 1.29 1.29 0 0 0-.489.094.91.91 0 0 0-.384.296 1.58 1.58 0 0 0-.253.538c-.06.225-.093.494-.093.807v.187c0 .34.033.626.099.856.066.231.159.418.269.56a.958.958 0 0 0 .384.308c.148.06.302.093.467.093.296 0 .538-.071.713-.214.182-.143.291-.373.33-.692h1.636c-.022.412-.104.758-.253 1.038-.142.28-.335.51-.571.686a2.398 2.398 0 0 1-.829.385c-.313.082-.658.12-1.026.12v.006ZM175.549 3.075h-1.889V1.773h5.359v1.302h-1.889v4.847h-1.581V3.075ZM180.117 1.773h2.942c.72 0 1.247.143 1.571.429.329.285.494.691.494 1.219 0 .318-.083.587-.247.812-.165.225-.385.39-.67.489.362.082.648.247.862.494.208.247.318.57.318.972 0 .538-.175.96-.532 1.273-.357.313-.923.467-1.708.467h-3.03V1.773Zm2.558 2.45c.341 0 .571-.056.692-.166.121-.11.181-.263.181-.46 0-.198-.06-.358-.181-.462-.121-.104-.346-.154-.681-.154h-.983v1.241h.978-.006Zm.121 2.486c.379 0 .642-.055.791-.17.148-.115.219-.291.219-.533 0-.241-.077-.417-.225-.538-.148-.115-.417-.175-.802-.175h-1.081v1.416h1.098ZM186.617 1.773h4.48v1.214h-2.899v1.202h2.636v1.142h-2.636V6.71h2.899v1.213h-4.48V1.773ZM192.415 1.773h1.581v2.34h2.284v-2.34h1.581v6.15h-1.581V5.407h-2.284v2.514h-1.581V1.773ZM199.398 1.773h1.582v2.34h2.284v-2.34h1.581v6.15h-1.581V5.407h-2.284v2.514h-1.582V1.773ZM206.382 1.773h1.581V3.81h.747c.856 0 1.488.187 1.894.555.406.368.609.867.609 1.504s-.203 1.131-.609 1.504c-.406.368-1.038.555-1.894.555h-2.328V1.773Zm2.152 4.848c.368 0 .637-.071.802-.208a.682.682 0 0 0 .247-.544.682.682 0 0 0-.247-.543c-.165-.143-.429-.209-.802-.209h-.571v1.51h.571V6.62Zm3.118-4.848h1.582v6.15h-1.582v-6.15ZM214.771 1.773h1.581v3.69l2.416-3.69h1.449v6.15h-1.581v-3.69l-2.416 3.69h-1.449v-6.15Zm2.723-.351c-.62 0-1.07-.126-1.345-.379-.274-.252-.412-.626-.412-1.114h1.285c0 .241.038.4.11.488.071.083.192.127.362.127.17 0 .291-.044.362-.127.072-.082.11-.247.11-.488h1.285c0 .494-.137.862-.412 1.114-.274.253-.724.379-1.345.379ZM228.595 7.922h-4.6V1.773h1.581v4.848h2.108V1.773h1.581v4.848h.703v2.443h-1.373V7.922ZM231.11 1.773h4.48v1.214h-2.899v1.202h2.635v1.142h-2.635V6.71h2.899v1.213h-4.48V1.773ZM236.907 1.773h1.581v2.34h2.284v-2.34h1.581v6.15h-1.581V5.407h-2.284v2.514h-1.581V1.773ZM245.34 3.075h-1.888V1.773h5.358v1.302h-1.889v4.847h-1.581V3.075ZM249.908 1.773h2.504c.856 0 1.488.187 1.894.56.406.374.609.884.609 1.543 0 .659-.203 1.17-.609 1.543-.406.373-1.038.56-1.894.56h-.923v1.949h-1.581V1.773Zm2.328 2.9c.406 0 .686-.067.851-.204.165-.137.247-.335.247-.598 0-.264-.082-.461-.247-.599-.165-.137-.45-.203-.851-.203h-.747v1.598h.747v.005Z" fill="#005339"/></g><defs><clipPath id="aua"><path fill="#fff" d="M0 0h259.686v56H0z"/></clipPath></defs></symbol><symbol fill="none" viewBox="0 0 24 24" id="mail" xmlns="http://www.w3.org/2000/svg"><path clip-rule="evenodd" d="M4 4h16c1.1 0 2 .9 2 2v12c0 1.1-.9 2-2 2H4c-1.1 0-2-.9-2-2V6c0-1.1.9-2 2-2Z" stroke="#222" stroke-width="2" stroke-linecap="round" stroke-linejoin="round"/><path d="m22 6-10 7L2 6" stroke="#222" stroke-width="2" stroke-linecap="round" stroke-linejoin="round"/></symbol><symbol fill="none" viewBox="0 0 24 24" id="map" xmlns="http://www.w3.org/2000/svg"><path clip-rule="evenodd" d="M1 6v16l7-4 8 4 7-4V2l-7 4-8-4-7 4v0Z" stroke="#222" stroke-width="2" stroke-linecap="round" stroke-linejoin="round"/><path d="M8 2v16M16 6v16" stroke="#222" stroke-width="2" stroke-linecap="round" stroke-linejoin="round"/></symbol><symbol fill="none" viewBox="0 0 24 24" id="map-pin" xmlns="http://www.w3.org/2000/svg"><path clip-rule="evenodd" d="M21 10c0 7-9 13-9 13s-9-6-9-13a9 9 0 0 1 18 0v0Z" stroke="#222" stroke-width="2" stroke-linecap="round" stroke-linejoin="round"/><path clip-rule="evenodd" d="M12 13a3 3 0 1 0 0-6 3 3 0 0 0 0 6Z" stroke="#222" stroke-width="2" stroke-linecap="round" stroke-linejoin="round"/></symbol><symbol fill="none" viewBox="0 0 38 39" id="message-button" xmlns="http://www.w3.org/2000/svg"><path d="M19.258 20.157a.662.662 0 0 1 0-1.323M19.259 20.157a.662.662 0 0 0 0-1.323M11.98 20.157a.662.662 0 0 1 0-1.323M11.98 20.157a.662.662 0 0 0 0-1.323M26.538 20.157a.662.662 0 0 1 0-1.323M26.538 20.157a.662.662 0 1 0 0-1.323"/><path d="M19.249 2.45A17.046 17.046 0 0 0 5.062 28.937l-2.859 7.605 9.572-1.73A17.046 17.046 0 1 0 19.249 2.45Z"/></symbol><symbol fill="none" viewBox="0 0 24 24" id="paperclip" xmlns="http://www.w3.org/2000/svg"><path d="m21.438 11.662-9.19 9.19a6.003 6.003 0 1 1-8.49-8.49l9.19-9.19a4.002 4.002 0 0 1 5.66 5.66l-9.2 9.19a2.001 2.001 0 1 1-2.83-2.83l8.49-8.48" stroke="#222" stroke-width="2" stroke-linecap="round" stroke-linejoin="round"/></symbol><symbol fill="none" viewBox="0 0 24 24" id="phone" xmlns="http://www.w3.org/2000/svg"><path clip-rule="evenodd" d="M21 16.92v3a2 2 0 0 1-2.18 2 19.791 19.791 0 0 1-8.63-3.07 19.5 19.5 0 0 1-6-6 19.79 19.79 0 0 1-3.07-8.67A2 2 0 0 1 3.11 2h3a2 2 0 0 1 2 1.72c.127.96.362 1.903.7 2.81a2 2 0 0 1-.45 2.11L7.09 9.91a16 16 0 0 0 6 6l1.27-1.27a2 2 0 0 1 2.11-.45c.908.339 1.85.574 2.81.7A2 2 0 0 1 21 16.92Z" stroke="#222" stroke-width="2" stroke-linecap="round" stroke-linejoin="round"/></symbol><symbol fill="none" viewBox="0 0 24 25" id="search" xmlns="http://www.w3.org/2000/svg"><path fill-rule="evenodd" clip-rule="evenodd" d="M14.95 10.788a4 4 0 1 1-8 0 4 4 0 0 1 8 0Zm-1.247 5.332a6 6 0 1 1 1.595-1.198l3.559 3.559a1 1 0 0 1-1.414 1.414l-3.6-3.6a1.005 1.005 0 0 1-.14-.175Z" fill="#222"/></symbol><symbol fill="none" viewBox="0 0 36 23" id="uo-to-top" xmlns="http://www.w3.org/2000/svg"><path d="M0 9.736v10.139C0 21.769 1.995 23 3.688 22.15l14.037-7.04 14.18 7.057c1.693.843 3.681-.389 3.681-2.28V9.737L18.948.666a2.546 2.546 0 0 0-2.445.005L0 9.736Z" fill="#005339"/></symbol></svg>