<svg width="28" height="28" viewBox="0 0 28 28" fill="none" xmlns="http://www.w3.org/2000/svg">
<mask id="mask0_1829_682" style="mask-type:luminance" maskUnits="userSpaceOnUse" x="0" y="0" width="28" height="28">
<path d="M27.8409 0.0795898H0V27.9205H27.8409V0.0795898Z" fill="white"/>
</mask>
<g mask="url(#mask0_1829_682)">
<path d="M13.8617 27.9156H13.9727C19.5005 27.9156 22.709 27.359 24.9819 25.1525C27.2992 22.8119 27.8344 19.5817 27.8344 14.0754V13.9197C27.8344 8.41514 27.2992 5.20649 24.9819 2.84264C22.7107 0.636177 19.4789 0.0795898 13.9743 0.0795898H13.8633C8.33556 0.0795898 5.12523 0.636177 2.85251 2.84264C0.535053 5.18329 0 8.41514 0 13.9197V14.0754C0 19.58 0.535053 22.7887 2.85251 25.1525C5.10371 27.359 8.33556 27.9156 13.8617 27.9156Z" fill="#202022"/>
<path d="M24.5206 13.7865C24.5206 13.6805 24.4345 13.5927 24.3284 13.5878C20.5239 13.4437 18.2085 12.9584 16.5887 11.3385C14.9655 9.71536 14.4818 7.3982 14.3377 3.58543C14.3344 3.47943 14.2466 3.39331 14.139 3.39331H13.6951C13.5891 3.39331 13.5013 3.47943 13.4963 3.58543C13.3522 7.39655 12.8686 9.71536 11.2454 11.3385C9.62393 12.96 7.31009 13.4437 3.5056 13.5878C3.3996 13.5911 3.31348 13.6789 3.31348 13.7865V14.2304C3.31348 14.3364 3.3996 14.4242 3.5056 14.4292C7.31009 14.5732 9.62557 15.0585 11.2454 16.6784C12.8653 18.2983 13.3489 20.6088 13.4947 24.4066C13.498 24.5126 13.5858 24.5988 13.6934 24.5988H14.139C14.245 24.5988 14.3328 24.5126 14.3377 24.4066C14.4835 20.6088 14.9671 18.2983 16.587 16.6784C18.2085 15.0569 20.5223 14.5732 24.3268 14.4292C24.4328 14.4258 24.519 14.3381 24.519 14.2304V13.7865H24.5206Z" fill="white"/>
</g>
</svg>
