<svg width="48" height="49" viewBox="0 0 48 49" fill="none" xmlns="http://www.w3.org/2000/svg">
<path fill-rule="evenodd" clip-rule="evenodd" d="M26 4.68945H12C9.79086 4.68945 8 6.48031 8 8.68945V40.6895C8 42.8986 9.79086 44.6895 12 44.6895H36C38.2091 44.6895 40 42.8986 40 40.6895V18.6895L26 4.68945Z" fill="#D1493F" stroke="#D1493F" stroke-width="2" stroke-linecap="round" stroke-linejoin="round"/>
<path fill-rule="evenodd" clip-rule="evenodd" d="M26 6.89258V18.6896H37.7441" fill="white"/>
<path d="M26 6.89258V18.6896H37.7441" stroke="#D1493F" stroke-width="2" stroke-linecap="round" stroke-linejoin="round"/>
<path d="M11.4727 39.6896V29.8896H14.8327C15.4767 29.8896 16.0367 29.9643 16.5127 30.1136C16.9887 30.263 17.3807 30.473 17.6887 30.7436C18.006 31.005 18.2393 31.3223 18.3887 31.6956C18.538 32.0596 18.6127 32.461 18.6127 32.8996C18.6127 33.3383 18.538 33.7443 18.3887 34.1176C18.2393 34.4816 18.006 34.799 17.6887 35.0696C17.3807 35.331 16.9887 35.5363 16.5127 35.6856C16.0367 35.835 15.4767 35.9096 14.8327 35.9096H12.7887V39.6896H11.4727ZM12.7887 34.7616H14.7627C15.696 34.7616 16.3493 34.5936 16.7227 34.2576C17.1053 33.9216 17.2967 33.469 17.2967 32.8996C17.2967 32.3303 17.1053 31.8776 16.7227 31.5416C16.3493 31.2056 15.696 31.0376 14.7627 31.0376H12.7887V34.7616Z" fill="white"/>
<path d="M20.6465 39.6896V29.8896H23.5165C24.2538 29.8896 24.9118 29.9923 25.4905 30.1976C26.0692 30.3936 26.5592 30.6876 26.9605 31.0796C27.3618 31.4716 27.6698 31.9616 27.8845 32.5496C28.0992 33.1283 28.2065 33.805 28.2065 34.5796V34.8596C28.2065 35.6436 28.0945 36.339 27.8705 36.9456C27.6558 37.543 27.3385 38.047 26.9185 38.4576C26.5078 38.859 26.0038 39.167 25.4065 39.3816C24.8092 39.587 24.1325 39.6896 23.3765 39.6896H20.6465ZM21.9625 38.5416H23.2365C23.7872 38.5416 24.2818 38.4716 24.7205 38.3316C25.1685 38.1916 25.5465 37.977 25.8545 37.6876C26.1625 37.389 26.3958 37.0063 26.5545 36.5396C26.7225 36.073 26.8065 35.513 26.8065 34.8596V34.5796C26.8065 33.9543 26.7272 33.4176 26.5685 32.9696C26.4098 32.5216 26.1812 32.1576 25.8825 31.8776C25.5838 31.5883 25.2198 31.3783 24.7905 31.2476C24.3705 31.1076 23.8992 31.0376 23.3765 31.0376H21.9625V38.5416Z" fill="white"/>
<path d="M30.4492 39.6896V29.8896H36.7492V31.0376H31.7652V34.2156H36.3292V35.3636H31.7652V39.6896H30.4492Z" fill="white"/>
</svg>
