<svg width="30" height="28" viewBox="0 0 30 28" fill="none" xmlns="http://www.w3.org/2000/svg">
<path fill-rule="evenodd" clip-rule="evenodd" d="M29.6247 7.1826C29.3402 4.96606 28.0426 3.57575 25.7396 3.37038C23.1025 3.1353 17.394 3 14.7462 3C9.33018 3 6.90986 3.13054 4.34864 3.39216C1.90786 3.64102 0.839393 4.71135 0.419429 6.92098C0.125293 8.46943 0 9.91969 0 13.3472C0 16.426 0.147339 18.3624 0.375336 19.9915C0.688832 22.2287 2.24504 23.4858 4.52554 23.6731C7.17871 23.8912 12.4936 24 15.1215 24C17.6607 24 23.3751 23.8695 25.9159 23.5861C28.19 23.3324 29.2714 22.1337 29.6247 19.9262C29.6247 19.9262 30 17.508 30 13.3254C30 10.9439 29.8236 8.72893 29.6247 7.1826ZM11.8102 9.15024V17.6609L20.0219 13.3621L11.8102 9.15024Z" fill="#FF0302"/>
<path d="M11.8102 17.6609V9.15024L20.0219 13.3621L11.8102 17.6609Z" fill="#FEFEFE"/>
</svg>
