<svg width="378" height="91" viewBox="0 0 378 91" fill="none" xmlns="http://www.w3.org/2000/svg">
<path d="M2 17.0994V3.09936H3.88V14.0994L11.32 3.09936H13.2V17.0994H11.32V6.09936L3.88 17.0994H2ZM25.0953 17.2994C24.322 17.2994 23.5753 17.166 22.8553 16.8994C22.1486 16.6194 21.522 16.1927 20.9753 15.6194C20.4286 15.0327 19.9953 14.2927 19.6753 13.3994C19.3553 12.506 19.1953 11.4394 19.1953 10.1994V9.79937C19.1953 8.59936 19.3553 7.56603 19.6753 6.69936C19.9953 5.8327 20.4286 5.11936 20.9753 4.55936C21.522 3.99936 22.1486 3.58603 22.8553 3.31937C23.5753 3.03936 24.322 2.89936 25.0953 2.89936C25.8553 2.89936 26.5486 2.99936 27.1753 3.19936C27.8153 3.39936 28.3753 3.68603 28.8553 4.05937C29.3353 4.4327 29.722 4.8927 30.0153 5.43937C30.322 5.98603 30.5153 6.60603 30.5953 7.29937H28.5953C28.4086 6.37936 28.0153 5.69936 27.4153 5.25937C26.8286 4.80603 26.0553 4.57936 25.0953 4.57936C24.602 4.57936 24.122 4.6727 23.6553 4.85936C23.1886 5.04603 22.7686 5.34603 22.3953 5.75936C22.0353 6.15937 21.742 6.6927 21.5153 7.35936C21.302 8.02603 21.1953 8.83937 21.1953 9.79937V10.1994C21.1953 11.2127 21.3153 12.066 21.5553 12.7594C21.7953 13.4394 22.102 13.9927 22.4753 14.4194C22.8486 14.846 23.2686 15.1527 23.7353 15.3394C24.202 15.526 24.6553 15.6194 25.0953 15.6194C26.1353 15.6194 26.9486 15.366 27.5353 14.8594C28.122 14.3527 28.4753 13.6994 28.5953 12.8994H30.5953C30.4886 13.6727 30.2753 14.3394 29.9553 14.8994C29.6353 15.446 29.2286 15.8994 28.7353 16.2594C28.2553 16.6194 27.702 16.886 27.0753 17.0594C26.462 17.2194 25.802 17.2994 25.0953 17.2994ZM39.2584 17.0994V4.73936H34.3984V3.09936H45.9984V4.73936H41.1384V17.0994H39.2584ZM56.2102 17.2994C55.4102 17.2994 54.6368 17.166 53.8902 16.8994C53.1435 16.6194 52.4835 16.1927 51.9102 15.6194C51.3368 15.046 50.8768 14.3127 50.5302 13.4194C50.1835 12.526 50.0102 11.4527 50.0102 10.1994V9.79937C50.0102 8.59936 50.1835 7.56603 50.5302 6.69936C50.8768 5.8327 51.3368 5.11936 51.9102 4.55936C52.4835 3.98603 53.1435 3.56603 53.8902 3.29936C54.6368 3.0327 55.4102 2.89936 56.2102 2.89936C57.0102 2.89936 57.7835 3.0327 58.5302 3.29936C59.2768 3.56603 59.9368 3.98603 60.5102 4.55936C61.0835 5.11936 61.5435 5.8327 61.8902 6.69936C62.2368 7.56603 62.4102 8.59936 62.4102 9.79937V10.1994C62.4102 11.4527 62.2368 12.526 61.8902 13.4194C61.5435 14.3127 61.0835 15.046 60.5102 15.6194C59.9368 16.1927 59.2768 16.6194 58.5302 16.8994C57.7835 17.166 57.0102 17.2994 56.2102 17.2994ZM56.2102 15.6194C56.7568 15.6194 57.2835 15.5194 57.7902 15.3194C58.2968 15.1194 58.7435 14.806 59.1302 14.3794C59.5168 13.9394 59.8235 13.3794 60.0502 12.6994C60.2902 12.006 60.4102 11.1727 60.4102 10.1994V9.79937C60.4102 8.87936 60.2902 8.0927 60.0502 7.43937C59.8235 6.7727 59.5168 6.2327 59.1302 5.81937C58.7435 5.3927 58.2968 5.07937 57.7902 4.87937C57.2835 4.67936 56.7568 4.57936 56.2102 4.57936C55.6635 4.57936 55.1368 4.67936 54.6302 4.87937C54.1235 5.07937 53.6768 5.3927 53.2902 5.81937C52.9035 6.2327 52.5902 6.7727 52.3502 7.43937C52.1235 8.0927 52.0102 8.87936 52.0102 9.79937V10.1994C52.0102 11.1727 52.1235 12.006 52.3502 12.6994C52.5902 13.3794 52.9035 13.9394 53.2902 14.3794C53.6768 14.806 54.1235 15.1194 54.6302 15.3194C55.1368 15.5194 55.6635 15.6194 56.2102 15.6194ZM68.4148 17.0994V3.09936H73.2148C74.1348 3.09936 74.9348 3.20603 75.6148 3.41936C76.2948 3.6327 76.8548 3.9327 77.2948 4.31936C77.7482 4.6927 78.0815 5.14603 78.2948 5.67936C78.5082 6.19936 78.6148 6.7727 78.6148 7.39936C78.6148 8.02603 78.5082 8.60603 78.2948 9.13936C78.0815 9.65936 77.7482 10.1127 77.2948 10.4994C76.8548 10.8727 76.2948 11.166 75.6148 11.3794C74.9348 11.5927 74.1348 11.6994 73.2148 11.6994H70.2948V17.0994H68.4148ZM70.2948 10.0594H73.1148C74.4482 10.0594 75.3815 9.81936 75.9148 9.33937C76.4615 8.85936 76.7348 8.2127 76.7348 7.39936C76.7348 6.58603 76.4615 5.93937 75.9148 5.45936C75.3815 4.97936 74.4482 4.73936 73.1148 4.73936H70.2948V10.0594ZM84.3203 17.0994V3.09936H86.2003V14.0994L93.6403 3.09936H95.5203V17.0994H93.6403V6.09936L86.2003 17.0994H84.3203ZM101.216 17.0994L105.056 11.2194C103.976 10.926 103.162 10.4327 102.616 9.73936C102.082 9.0327 101.816 8.21936 101.816 7.29937C101.816 6.69936 101.929 6.14603 102.156 5.63936C102.382 5.11936 102.716 4.6727 103.156 4.29936C103.596 3.92603 104.142 3.6327 104.796 3.41936C105.462 3.20603 106.236 3.09936 107.116 3.09936H112.016V17.0994H110.136V11.4594H106.896L103.336 17.0994H101.216ZM107.316 9.85936H110.136V4.73936H107.316C106.022 4.73936 105.096 4.97936 104.536 5.45936C103.976 5.92603 103.696 6.53936 103.696 7.29937C103.696 8.05936 103.976 8.67936 104.536 9.15936C105.096 9.62603 106.022 9.85936 107.316 9.85936ZM126.607 17.0994V3.09936H131.407C132.327 3.09936 133.127 3.20603 133.807 3.41936C134.487 3.6327 135.047 3.9327 135.487 4.31936C135.94 4.6927 136.274 5.14603 136.487 5.67936C136.7 6.19936 136.807 6.7727 136.807 7.39936C136.807 8.02603 136.7 8.60603 136.487 9.13936C136.274 9.65936 135.94 10.1127 135.487 10.4994C135.047 10.8727 134.487 11.166 133.807 11.3794C133.127 11.5927 132.327 11.6994 131.407 11.6994H128.487V17.0994H126.607ZM128.487 10.0594H131.307C132.64 10.0594 133.574 9.81936 134.107 9.33937C134.654 8.85936 134.927 8.2127 134.927 7.39936C134.927 6.58603 134.654 5.93937 134.107 5.45936C133.574 4.97936 132.64 4.73936 131.307 4.73936H128.487V10.0594ZM139.311 17.0994L144.671 3.09936H146.551L151.911 17.0994H149.871L148.531 13.6194H142.611L141.271 17.0994H139.311ZM143.231 11.9794H147.911L145.571 5.49936L143.231 11.9794ZM161.139 17.2994C160.325 17.2994 159.592 17.1994 158.939 16.9994C158.299 16.786 157.752 16.4927 157.299 16.1194C156.845 15.746 156.485 15.306 156.219 14.7994C155.952 14.2794 155.792 13.7127 155.739 13.0994H157.619C157.672 13.4727 157.792 13.8194 157.979 14.1394C158.165 14.446 158.405 14.7127 158.699 14.9394C159.005 15.1527 159.359 15.3194 159.759 15.4394C160.172 15.5594 160.632 15.6194 161.139 15.6194C162.392 15.6194 163.292 15.406 163.839 14.9794C164.385 14.5394 164.659 13.9394 164.659 13.1794C164.659 12.8194 164.592 12.486 164.459 12.1794C164.339 11.8727 164.139 11.6127 163.859 11.3994C163.579 11.1727 163.219 10.9994 162.779 10.8794C162.352 10.746 161.839 10.6794 161.239 10.6794H159.339V9.11936H161.239C162.239 9.11936 162.972 8.90603 163.439 8.47936C163.919 8.03936 164.159 7.48603 164.159 6.81937C164.159 6.1527 163.905 5.6127 163.399 5.19936C162.892 4.78603 162.139 4.57936 161.139 4.57936C160.605 4.57936 160.145 4.6327 159.759 4.73936C159.372 4.84603 159.045 4.99936 158.779 5.19936C158.525 5.38603 158.325 5.61936 158.179 5.89937C158.045 6.16603 157.959 6.46603 157.919 6.79936H156.039C156.092 6.23936 156.239 5.71936 156.479 5.23936C156.719 4.75936 157.045 4.34603 157.459 3.99936C157.885 3.6527 158.405 3.38603 159.019 3.19936C159.632 2.99936 160.339 2.89936 161.139 2.89936C162.752 2.89936 163.972 3.25936 164.799 3.97936C165.625 4.69936 166.039 5.64603 166.039 6.81937C166.039 7.5527 165.825 8.17936 165.399 8.69936C164.985 9.20603 164.432 9.5727 163.739 9.79937C164.579 9.99936 165.252 10.386 165.759 10.9594C166.279 11.5194 166.539 12.2594 166.539 13.1794C166.539 13.7794 166.419 14.3327 166.179 14.8394C165.952 15.3327 165.605 15.766 165.139 16.1394C164.685 16.4994 164.125 16.786 163.459 16.9994C162.792 17.1994 162.019 17.2994 161.139 17.2994ZM172.312 17.0994V3.09936H177.312C178.152 3.09936 178.872 3.1927 179.472 3.37936C180.072 3.56603 180.565 3.82603 180.952 4.15936C181.352 4.47936 181.645 4.8727 181.832 5.33937C182.018 5.7927 182.112 6.2927 182.112 6.83937C182.112 7.55936 181.912 8.17936 181.512 8.69936C181.125 9.20603 180.632 9.5727 180.032 9.79937C180.872 9.98603 181.525 10.3594 181.992 10.9194C182.472 11.4794 182.712 12.2194 182.712 13.1394C182.712 13.7127 182.618 14.2394 182.432 14.7194C182.245 15.1994 181.952 15.6194 181.552 15.9794C181.152 16.326 180.632 16.5994 179.992 16.7994C179.365 16.9994 178.605 17.0994 177.712 17.0994H172.312ZM174.192 15.4594H177.712C178.312 15.4594 178.812 15.406 179.212 15.2994C179.612 15.1794 179.932 15.0194 180.172 14.8194C180.412 14.606 180.578 14.3527 180.672 14.0594C180.778 13.766 180.832 13.4394 180.832 13.0794C180.832 12.7194 180.778 12.3927 180.672 12.0994C180.578 11.7927 180.412 11.5394 180.172 11.3394C179.932 11.126 179.605 10.966 179.192 10.8594C178.792 10.7394 178.292 10.6794 177.692 10.6794H174.192V15.4594ZM174.192 9.11936H177.312C177.872 9.11936 178.338 9.06603 178.712 8.95937C179.085 8.8527 179.385 8.69936 179.612 8.49937C179.838 8.29936 179.998 8.06603 180.092 7.79936C180.185 7.5327 180.232 7.23937 180.232 6.91937C180.232 6.59936 180.185 6.30603 180.092 6.03936C179.998 5.75937 179.838 5.52603 179.612 5.33937C179.385 5.1527 179.085 5.00603 178.712 4.89936C178.338 4.7927 177.872 4.73936 177.312 4.73936H174.192V9.11936ZM188.51 17.0994V3.09936H190.39V14.0994L197.83 3.09936H199.71V17.0994H197.83V6.09936L190.39 17.0994H188.51ZM209.765 17.0994V4.73936H204.905V3.09936H216.505V4.73936H211.645V17.0994H209.765ZM221.708 17.0994V3.09936H223.588V14.0994L231.028 3.09936H232.908V17.0994H231.028V6.09936L223.588 17.0994H221.708ZM238.603 17.0994L242.443 11.2194C241.363 10.926 240.55 10.4327 240.003 9.73936C239.47 9.0327 239.203 8.21936 239.203 7.29937C239.203 6.69936 239.316 6.14603 239.543 5.63936C239.77 5.11936 240.103 4.6727 240.543 4.29936C240.983 3.92603 241.53 3.6327 242.183 3.41936C242.85 3.20603 243.623 3.09936 244.503 3.09936H249.403V17.0994H247.523V11.4594H244.283L240.723 17.0994H238.603ZM244.703 9.85936H247.523V4.73936H244.703C243.41 4.73936 242.483 4.97936 241.923 5.45936C241.363 5.92603 241.083 6.53936 241.083 7.29937C241.083 8.05936 241.363 8.67936 241.923 9.15936C242.483 9.62603 243.41 9.85936 244.703 9.85936Z" fill="black"/>
<path d="M368.238 0.0993652L349.899 0.0997572C348.263 0.0997922 347.145 1.75115 347.752 3.26978L354.617 20.4533L347.74 37.799C347.138 39.3168 348.256 40.9634 349.889 40.9633L368.238 40.9629L377.267 21.4265C377.552 20.809 377.551 20.0971 377.264 19.4804L368.238 0.0993652Z" fill="#D30A21"/>
<g clip-path="url(#clip0_1419_37508)">
<path d="M54.6465 76.4301L56.8955 88.267C56.9795 88.7063 57.2139 89.1027 57.5585 89.3879C57.9031 89.673 58.3362 89.8292 58.7835 89.8295H71.4313C71.716 89.83 71.9973 89.7671 72.2547 89.6454C72.5121 89.5236 72.7392 89.346 72.9194 89.1256C73.0996 88.9051 73.2285 88.6473 73.2966 88.3708C73.3648 88.0944 73.3705 87.8062 73.3134 87.5272L63.252 39.4929L31.6 60.0596C31.6 60.0596 30.582 65.5934 29.9961 69.8724C38.9271 61.7168 52.9953 65.2205 54.6465 76.4301Z" fill="#D30A21"/>
<path d="M59.9097 33.878L59.9091 33.8752L58.4891 26.6807C58.4891 26.6803 58.489 26.6799 58.4889 26.6795C58.3267 25.8924 57.8979 25.1854 57.2749 24.6777C56.6517 24.1697 55.8722 23.8924 55.0682 23.8926H55.0681L20.3506 23.8926C19.5331 23.8931 18.7416 24.18 18.1136 24.7033C17.4858 25.2265 17.061 25.953 16.9129 26.7567C16.9129 26.7569 16.9128 26.7572 16.9128 26.7574L8.91126 71.4937L8.91112 71.4945C8.81288 72.0351 8.51911 72.5207 8.08582 72.8586L8.08403 72.86L-0.116928 79.1557C-0.117243 79.1559 -0.117557 79.1562 -0.117871 79.1564C-0.315367 79.311 -0.474908 79.5087 -0.584293 79.7344C-0.693852 79.9605 -0.750189 80.2087 -0.748979 80.4599L-0.748972 80.4613L-0.748976 87.8772C-0.748976 88.3167 -0.574381 88.7382 -0.2636 89.049C0.0471803 89.3597 0.468691 89.5343 0.908197 89.5343H10.5731C17.6892 89.5343 22.6451 84.8753 23.7757 78.4569L23.7757 78.4568L30.0606 42.8486C30.0607 42.848 30.0608 42.8474 30.0609 42.8468C30.2186 41.8934 30.7098 41.027 31.4469 40.402C32.1845 39.7766 33.1204 39.4337 34.0874 39.4345M59.9097 33.878L34.0871 39.7304M59.9097 33.878C60.0421 34.5157 59.9931 35.1777 59.7685 35.7891C59.545 36.3972 59.1564 36.931 58.6465 37.3305M59.9097 33.878L58.8204 37.5702M34.0874 39.4345L34.0871 39.7304M34.0874 39.4345H34.0871V39.7304M34.0874 39.4345H42.2487H42.2491C43.2011 39.4358 44.1228 39.7691 44.8554 40.3771C45.5879 40.985 46.0855 41.8295 46.2622 42.7649L46.263 42.7693L46.263 42.7693L46.7117 45.3558M34.0871 39.7304H42.2487C43.1318 39.7316 43.9868 40.0408 44.6664 40.6048C45.346 41.1688 45.8075 41.9521 45.9714 42.8199L46.4428 45.5367L46.7117 45.3558M46.7117 45.3558L46.7671 45.6752L58.8204 37.5702M46.7117 45.3558L58.6465 37.3305M7.90383 72.6253L-0.299171 78.9225C-0.532701 79.1051 -0.721329 79.3387 -0.850593 79.6054C-0.979858 79.8721 -1.04633 80.1649 -1.0449 80.4613V87.8772C-1.0449 88.3952 -0.839127 88.8919 -0.47285 89.2582C-0.106574 89.6245 0.390204 89.8303 0.908197 89.8303H10.5731C17.8409 89.8303 22.9131 85.06 24.0672 78.5082L7.90383 72.6253ZM7.90383 72.6253C8.27981 72.332 8.53472 71.9107 8.61996 71.4416L7.90383 72.6253ZM58.6465 37.3305C58.6439 37.3326 58.6412 37.3347 58.6386 37.3367L58.8204 37.5702M58.6465 37.3305L58.6553 37.3246L58.8204 37.5702" fill="#005339" stroke="#005339" stroke-width="0.591847"/>
<path d="M51.395 89.4339C51.395 89.4339 37.1019 92.985 31.8108 88.1674C27.6679 84.3677 27.6028 78.2362 31.3137 73.9631C35.9064 68.6719 48.1695 69.0981 49.5248 77.6621C50.8269 85.9124 51.395 89.4339 51.395 89.4339Z" fill="#D30A21"/>
<path d="M90.5542 33.4316L90.5542 33.4317V33.4279V27.7166H110.02V53.4797H103.782V33.4279V33.132H103.486H96.7449H96.4524L96.449 33.4245C96.4017 37.5538 96.2051 40.8437 95.7527 43.486C95.3003 46.1277 94.595 48.1038 93.5427 49.6177L93.5419 49.6188C90.8082 53.5921 86.44 53.7348 83.4639 53.7399V47.6846C84.855 47.6758 85.8318 47.6012 86.56 47.393C87.3638 47.1631 87.8633 46.7709 88.2876 46.162L88.2877 46.1619C88.983 45.1629 89.5277 44.2046 89.9074 42.3693C90.2834 40.5517 90.4979 37.8734 90.5542 33.4316Z" fill="#005339" stroke="#005339" stroke-width="0.591847"/>
<path d="M133.087 49.2489L133.019 49.0467H132.806H121.721H121.508L121.44 49.2489L120.034 53.456H114.107L122.733 27.7166H131.907L140.562 53.456H134.493L133.087 49.2489ZM127.529 32.7421L127.249 31.9039L126.968 32.7421L123.287 43.7386L123.156 44.1285H123.567H130.93H131.341L131.211 43.7386L127.529 32.7421Z" fill="#005339" stroke="#005339" stroke-width="0.591847"/>
<path d="M128.389 85.0977H128.176L128.108 85.2997L126.673 89.5898H120.745L129.371 63.8208H138.563L147.189 89.5898H141.108L139.672 85.2997L139.604 85.0977H139.391H128.389ZM129.943 79.8017L129.813 80.1913H130.224H137.539H137.95L137.82 79.8017L134.162 68.8466L133.881 68.0059L133.601 68.8466L129.943 79.8017Z" fill="#005339" stroke="#005339" stroke-width="0.591847"/>
<path d="M212.332 85.0977H212.12L212.052 85.2994L210.61 89.5898H204.688L213.315 63.8208H222.489L231.115 89.5898H225.045L223.61 85.2997L223.542 85.0977H223.329H212.332ZM213.886 79.8015L213.756 80.1926L214.168 80.1913L221.489 80.1676L221.899 80.1663L221.769 79.7778L218.111 68.8464L217.831 68.0075L217.55 68.8465L213.886 79.8015Z" fill="#005339" stroke="#005339" stroke-width="0.591847"/>
<path d="M314.098 76.8466L314.37 77.4055L314.633 76.8422L320.702 63.8208H327.168L314.729 89.5898H307.86L310.888 84.1467L310.964 84.0101L310.895 83.8704L303.414 68.9144L303.332 68.7509H303.149H294.668H294.372V69.0468V89.5898H288.122V69.0468V68.7509H287.826H280.12V63.8208H307.764L314.098 76.8466Z" fill="#005339" stroke="#005339" stroke-width="0.591847"/>
<path d="M263.198 85.0977H262.985L262.917 85.2994L261.476 89.5898H255.554L264.18 63.8208H273.354L281.98 89.5898H275.91L274.475 85.2997L274.407 85.0977H274.194H263.198ZM264.752 79.8015L264.621 80.1926L265.033 80.1913L272.354 80.1676L272.764 80.1663L272.634 79.7778L268.976 68.8464L268.696 68.0075L268.415 68.8465L264.752 79.8015Z" fill="#005339" stroke="#005339" stroke-width="0.591847"/>
<path d="M175.274 48.2241V48.52H175.57H188.378V53.456H169.03V27.7166H188.378V32.623H175.57H175.274V32.9189V37.6182V37.9141H175.57H187.07V42.8146H175.57H175.274V43.1105V48.2241Z" fill="#005339" stroke="#005339" stroke-width="0.591847"/>
<path d="M156.894 68.7504H156.599V69.0463V89.5894H150.355V63.8203H173.212V89.5894H166.968V69.0463V68.7504H166.672H156.894Z" fill="#005339" stroke="#005339" stroke-width="0.591847"/>
<path d="M185.162 68.7504H184.866V69.0463V89.5894H178.622V63.8203H201.479V89.5894H195.235V69.0463V68.7504H194.939H185.162Z" fill="#005339" stroke="#005339" stroke-width="0.591847"/>
<path d="M92.8837 79.3568V80.4024L93.4316 79.5119L103.087 63.8208H109.461V89.5898H103.217V74.4267V73.4021L102.671 74.269L93.0163 89.5898H86.6397V63.8208H92.8837V79.3568Z" fill="#005339" stroke="#005339" stroke-width="0.591847"/>
<path d="M200.094 47.9282H199.798V48.2241V53.456H193.554V27.7166H203.42C207.428 27.7166 210.406 28.9946 212.38 30.8849C214.356 32.7771 215.344 35.2992 215.344 37.8224C215.344 40.3455 214.356 42.8676 212.38 44.7598C210.406 46.6502 207.428 47.9282 203.42 47.9282H200.094ZM199.798 42.7258V43.0217H200.094H203.42C205.434 43.0217 206.973 42.3874 208.011 41.4088C209.047 40.4317 209.566 39.1271 209.566 37.8224C209.566 36.5177 209.047 35.2131 208.011 34.2359C206.973 33.2573 205.434 32.623 203.42 32.623H200.094H199.798V32.9189V42.7258Z" fill="#005339" stroke="#005339" stroke-width="0.591847"/>
<path d="M359.18 85.0977H358.967L358.899 85.2997L357.464 89.5898H351.542L360.168 63.8208H369.336L377.962 89.5898H371.893L370.457 85.2997L370.39 85.0977H370.176H359.18ZM360.746 79.8018L360.616 80.1913H361.027H368.365H368.777L368.646 79.801L364.959 68.8459L364.677 68.0086L364.398 68.8467L360.746 79.8018Z" fill="#005339" stroke="#005339" stroke-width="0.591847"/>
<path d="M244.606 53.456V27.7166H250.85V53.456H244.606Z" fill="#005339" stroke="#005339" stroke-width="0.591847"/>
<path d="M226.253 35.0436V35.3396H226.549H230.165C237.848 35.3396 241.592 39.9134 241.592 44.3978C241.592 48.8822 237.848 53.456 230.165 53.456H220.009V27.7166H226.253V35.0436ZM226.253 48.2537V48.5496H226.549H230.165C233.572 48.5496 235.379 46.5196 235.379 44.3919C235.379 42.2641 233.572 40.2341 230.165 40.2341H226.549H226.253V40.5301V48.2537Z" fill="#005339" stroke="#005339" stroke-width="0.591847"/>
<path d="M148.788 45.5716C148.827 46.1914 148.952 46.9865 149.533 47.6563C150.226 48.4546 151.501 49.0063 153.804 49.0063C156.61 49.0063 158.297 47.4682 158.478 45.8108C158.569 44.9845 158.275 44.1597 157.584 43.5519C156.897 42.9477 155.843 42.5771 154.436 42.5907H150.756V38.4478H154.437C155.736 38.4478 156.708 38.0734 157.336 37.4713C157.967 36.8676 158.225 36.0592 158.134 35.2567C157.949 33.6446 156.385 32.1328 153.78 32.1328C151.76 32.1328 150.575 32.6301 149.898 33.3645C149.322 33.9897 149.158 34.7416 149.113 35.3662C148.132 35.3132 147.425 35.2775 146.83 35.2475C145.554 35.183 144.797 35.1448 142.972 35.0177C143.035 33.3149 143.68 31.4314 145.243 29.9458C146.888 28.3808 149.585 27.2263 153.78 27.2263C159.076 27.2263 162.354 29.4355 163.639 32.073C164.923 34.7071 164.261 37.8361 161.542 39.8247L161.202 40.0737L161.552 40.3091C164.604 42.3607 165.426 45.7489 164.137 48.6248C162.847 51.5021 159.403 53.9364 153.78 53.9364C149.035 53.9364 146.264 52.7968 144.678 51.2596C143.173 49.8008 142.689 47.9395 142.645 46.2161C145.065 45.9931 145.681 45.9234 147.817 45.6814C148.11 45.6483 148.431 45.612 148.788 45.5716Z" fill="#005339" stroke="#005339" stroke-width="0.591847"/>
<path d="M240.846 84.0324H240.55V84.3283V89.5898H234.306V63.8208H244.154C248.162 63.8208 251.14 65.0988 253.115 66.9892C255.091 68.8814 256.079 71.4036 256.08 73.9267C256.082 76.4499 255.095 78.972 253.122 80.8642C251.15 82.7545 248.176 84.0324 244.172 84.0324H240.846ZM240.532 78.8597V79.1556H240.828H244.154C246.168 79.1556 247.707 78.5209 248.745 77.5416C249.781 76.564 250.3 75.2586 250.3 73.9532C250.3 72.6479 249.781 71.3425 248.745 70.3648C247.707 69.3856 246.168 68.7509 244.154 68.7509H240.828H240.532V69.0468V78.8597Z" fill="#005339" stroke="#005339" stroke-width="0.591847"/>
<path d="M336.601 84.0324H336.306V84.3283V89.5898H330.062V63.8208H339.951C343.954 63.8208 346.927 65.0987 348.898 66.989C350.871 68.8812 351.858 71.4034 351.858 73.9266C351.858 76.4499 350.871 78.972 348.898 80.8642C346.927 82.7545 343.954 84.0324 339.951 84.0324H336.601ZM336.329 78.8597V79.1556H336.625H339.951C341.96 79.1556 343.494 78.5207 344.529 77.5413C345.562 76.5636 346.08 75.2583 346.08 73.9532C346.08 72.6482 345.562 71.3429 344.529 70.3651C343.494 69.3858 341.96 68.7509 339.951 68.7509H336.625H336.329V69.0468V78.8597Z" fill="#005339" stroke="#005339" stroke-width="0.591847"/>
</g>
<defs>
<clipPath id="clip0_1419_37508">
<rect width="377.716" height="66.937" fill="white" transform="translate(0 23.9634)"/>
</clipPath>
</defs>
</svg>
