<svg width="24" height="24" viewBox="0 0 24 24" fill="none" xmlns="http://www.w3.org/2000/svg">
<g clip-path="url(#clip0_1361_24732)">
<path d="M19.9289 19.7002H21.3039C22.2505 19.7002 23.0182 18.9327 23.0182 17.9859V13.6405C23.0182 12.6937 22.2505 11.9262 21.3039 11.9262H20.3574V5.7857C20.3574 4.83893 19.5899 4.07141 18.6431 4.07141H2.88811C1.94135 4.07141 1.17383 4.83893 1.17383 5.7857V18.2299C1.17383 19.0419 1.8321 19.7002 2.64412 19.7002H3.42885" stroke="#222222" stroke-width="2" stroke-linecap="round" stroke-linejoin="round"/>
<path d="M20.3571 7.2146H1.1748" stroke="#222222" stroke-width="2" stroke-linecap="round" stroke-linejoin="round"/>
<path d="M20.3571 11.9259H1.1748" stroke="#222222" stroke-width="2" stroke-linecap="round" stroke-linejoin="round"/>
<path d="M7.65332 7.2146V11.9196" stroke="#222222" stroke-width="2" stroke-linecap="round" stroke-linejoin="round"/>
<path d="M13.7686 7.2146V11.9196" stroke="#222222" stroke-width="2" stroke-linecap="round" stroke-linejoin="round"/>
<path d="M5.81209 22.0697C7.13378 22.0697 8.20523 20.9983 8.20523 19.6766C8.20523 18.3549 7.13378 17.2834 5.81209 17.2834C4.49039 17.2834 3.41895 18.3549 3.41895 19.6766C3.41895 20.9983 4.49039 22.0697 5.81209 22.0697Z" stroke="#222222" stroke-width="2" stroke-linecap="round" stroke-linejoin="round"/>
<path d="M17.5377 22.0697C18.8594 22.0697 19.9308 20.9983 19.9308 19.6766C19.9308 18.3549 18.8594 17.2834 17.5377 17.2834C16.216 17.2834 15.1445 18.3549 15.1445 19.6766C15.1445 20.9983 16.216 22.0697 17.5377 22.0697Z" stroke="#222222" stroke-width="2" stroke-linecap="round" stroke-linejoin="round"/>
<path d="M8.20508 19.6764H11.6651H15.1438" stroke="#222222" stroke-width="1.5" stroke-linecap="round" stroke-linejoin="round"/>
</g>
<defs>
<clipPath id="clip0_1361_24732">
<rect width="24" height="24" fill="white"/>
</clipPath>
</defs>
</svg>
