<svg width="24" height="24" viewBox="0 0 24 24" fill="none" xmlns="http://www.w3.org/2000/svg">
<g clip-path="url(#clip0_1361_24742)">
<path d="M3.42885 18.8572H2.57171C2.11704 18.8572 1.68102 18.6766 1.35952 18.355C1.03803 18.0336 0.857422 17.5975 0.857422 17.1429V13.7143C0.857422 13.2597 1.03803 12.8236 1.35952 12.5021C1.68102 12.1806 2.11704 12 2.57171 12H5.14314L6.46314 8.0229C6.58242 7.66808 6.81456 7.36205 7.12411 7.15155C7.43366 6.94105 7.80359 6.83768 8.17742 6.85719H15.0517C15.4255 6.83768 15.7955 6.94105 16.105 7.15155C16.4146 7.36205 16.6467 7.66808 16.766 8.0229L18.0003 12H21.4289C21.8835 12 22.3196 12.1806 22.641 12.5021C22.9625 12.8236 23.1431 13.2597 23.1431 13.7143V17.1429C23.1431 17.5975 22.9625 18.0336 22.641 18.355C22.3196 18.6766 21.8835 18.8572 21.4289 18.8572H20.5717" stroke="#222222" stroke-width="2" stroke-linecap="round" stroke-linejoin="round"/>
<path d="M17.998 21.4284C16.5769 21.4284 15.4248 20.2764 15.4248 18.8553C15.4248 17.434 16.5769 16.282 17.998 16.282C19.4193 16.282 20.5713 17.434 20.5713 18.8553C20.5713 20.2764 19.4193 21.4284 17.998 21.4284Z" stroke="#222222" stroke-width="2" stroke-linecap="round" stroke-linejoin="round"/>
<path d="M5.99805 21.4284C4.57689 21.4284 3.4248 20.2764 3.4248 18.8553C3.4248 17.4342 4.57689 16.282 5.99805 16.282C7.41921 16.282 8.5713 17.4342 8.5713 18.8553C8.5713 20.2764 7.41921 21.4284 5.99805 21.4284Z" stroke="#222222" stroke-width="2" stroke-linecap="round" stroke-linejoin="round"/>
<path d="M15.4248 18.8572H8.57129" stroke="#222222" stroke-width="1.5" stroke-linecap="round" stroke-linejoin="round"/>
</g>
<defs>
<clipPath id="clip0_1361_24742">
<rect width="24" height="24" fill="white"/>
</clipPath>
</defs>
</svg>
