<svg width="260" height="56" viewBox="0 0 260 56" fill="none" xmlns="http://www.w3.org/2000/svg">
<g clip-path="url(#clip0_1829_575)">
<path d="M44.9481 44.2895L46.7653 53.8479C46.9026 54.5836 47.545 55.1107 48.2916 55.1107H58.5253C59.5081 55.1107 60.2438 54.2103 60.0461 53.2495L51.9261 14.3899L26.3144 31.0636C26.3144 31.0636 25.4908 35.5436 25.0132 39.0024C32.2273 32.3922 43.6085 35.2252 44.9481 44.295V44.2895Z" fill="#D30A21"/>
<path d="M49.4445 9.81108L48.2916 3.98598C48.0006 2.55853 46.7434 1.53735 45.2885 1.53735H17.1786C15.7018 1.53735 14.4335 2.59696 14.1645 4.05186L7.71355 40.2487C7.64767 40.633 7.43904 40.9789 7.13158 41.215L0.499429 46.2989C0.115115 46.6009 -0.104492 47.0566 -0.104492 47.5452V53.524C-0.104492 54.397 0.603742 55.1052 1.47668 55.1052H9.29472C15.1747 55.1052 19.2759 51.2456 20.2092 45.9476L25.2932 17.1405C25.5402 15.6636 26.8194 14.5821 28.3128 14.5821H34.912C36.3888 14.5821 37.6516 15.6307 37.9261 17.0801L38.3543 19.5342L48.341 12.8252C49.2469 12.106 49.6751 10.9421 49.439 9.80559L49.4445 9.81108Z" fill="#005339"/>
<path d="M42.3238 54.8032C42.3238 54.8032 30.7615 57.691 26.4791 53.782C23.1191 50.7075 23.0752 45.7443 26.0783 42.291C29.7952 38.0141 39.716 38.3545 40.814 45.2887C41.8682 51.9537 42.3293 54.8032 42.3293 54.8032H42.3238Z" fill="#D30A21"/>
<path d="M73.2226 14.7192V18.5953C73.1458 24.3545 72.6626 25.469 71.7897 26.7318C71.2901 27.451 70.6367 27.6377 68.6328 27.6377V31.9365C70.5324 31.9365 73.5959 31.9365 75.512 29.1859C76.9175 27.16 77.3677 23.9483 77.4391 18.5953H81.8038V31.7718H86.2289V14.7192H73.2226Z" fill="#005339"/>
<path d="M100.756 28.9169L101.711 31.7718H106.043L100.328 14.7192H94.1128L88.3975 31.7718H92.6359L93.5912 28.9169H100.75H100.756ZM97.1763 18.2385L99.5645 25.3592H94.7935L97.1818 18.2385H97.1763Z" fill="#005339"/>
<path d="M98.4174 38.0967L92.7021 55.1712H96.9406L97.9123 52.2614H105.033L106.005 55.1712H110.337L104.621 38.0967H98.4065H98.4174ZM99.1092 48.6982L101.481 41.6214L103.853 48.6982H99.1147H99.1092Z" fill="#005339"/>
<path d="M152.776 38.0967L147.061 55.1712H151.299L152.271 52.2614H159.392L160.363 55.1712H164.695L158.98 38.0967H152.765H152.776ZM153.468 48.6982L155.839 41.6214L158.211 48.6982H153.473H153.468Z" fill="#005339"/>
<path d="M218.356 46.6394L214.206 38.0967H195.989V41.6763H201.172V55.1712H205.597V41.6763H211.093L215.941 51.361L213.821 55.1712H218.713L226.954 38.0967H222.337L218.356 46.6394Z" fill="#005339"/>
<path d="M185.722 38.0967L180.007 55.1712H184.245L185.217 52.2614H192.338L193.31 55.1712H197.641L191.926 38.0967H185.711H185.722ZM186.414 48.6982L188.786 41.6214L191.157 48.6982H186.419H186.414Z" fill="#005339"/>
<path d="M136.953 28.1867H128.471V24.8816H136.107V21.3185H128.471V18.2769H136.953V14.7192H124.04V31.7718H136.953V28.1867Z" fill="#005339"/>
<path d="M111.95 38.0967V55.1712H116.375V41.6763H122.711V55.1712H127.136V38.0967H111.95Z" fill="#005339"/>
<path d="M130.255 38.0967V55.1712H134.685V41.6763H141.016V55.1712H145.441V38.0967H130.255Z" fill="#005339"/>
<path d="M75.1111 48.3524V38.0967H70.686V55.1712H75.1111L81.4194 45.1571V55.1712H85.8445V38.0967H81.4194L75.1111 48.3524Z" fill="#005339"/>
<path d="M146.506 14.7192H139.923V31.7718H144.348V28.1922H146.5C157.052 28.1922 157.052 14.7192 146.5 14.7192H146.506ZM146.506 24.629H144.353V18.2769H146.506C151.557 18.2769 151.562 24.629 146.506 24.629Z" fill="#005339"/>
<path d="M255.47 55.1712H259.802L254.086 38.0967H247.872L242.156 55.1712H246.395L247.366 52.2614H254.487L255.459 55.1712H255.47ZM248.563 48.7037L250.935 41.6269L253.307 48.7037H248.569H248.563Z" fill="#005339"/>
<path d="M177.41 14.7192H172.985V31.7718H177.41V14.7192Z" fill="#005339"/>
<path d="M163.827 31.7717C173.951 31.7717 173.951 19.6548 163.827 19.6548H161.489V14.7136H157.063V31.7662H163.833L163.827 31.7717ZM163.827 28.214H161.489V23.2179H163.827C168.077 23.2179 168.077 28.214 163.827 28.214Z" fill="#005339"/>
<path d="M114.372 28.5051C111.44 28.5051 111.336 27.0996 111.319 26.2596C109.145 26.5066 108.969 26.5341 106.965 26.7153C106.965 29.1035 108.168 32.0627 114.372 32.0627C121.767 32.0627 123.617 25.6447 119.51 22.8886C123.178 20.2204 121.333 14.3843 114.372 14.3843C108.865 14.3843 107.179 17.4149 107.179 19.8031C109.139 19.9404 109.288 19.9294 111.533 20.0502C111.55 19.2102 111.813 17.9474 114.372 17.9474C117.594 17.9474 118.017 21.6533 114.794 21.6533H112.219V24.7004H114.794C118.297 24.7004 117.874 28.5051 114.372 28.5051Z" fill="#005339"/>
<path d="M172.886 38.0967H166.304V55.1712H170.729V51.5916H172.881C183.433 51.5916 183.433 38.1022 172.881 38.1022L172.886 38.0967ZM172.886 48.0284H170.734V41.6763H172.886C177.937 41.6763 177.943 48.0284 172.886 48.0284Z" fill="#005339"/>
<path d="M234.909 38.0967H228.326V55.1712H232.751V51.5916H234.903C245.456 51.5916 245.456 38.1022 234.903 38.1022L234.909 38.0967ZM234.909 48.0284H232.757V41.6763H234.909C239.96 41.6763 239.965 48.0284 234.909 48.0284Z" fill="#005339"/>
<path d="M70.6973 1.77344H72.2784V4.11226H74.5624V1.77344H76.1435V7.92246H74.5624V5.40795H72.2784V7.92246H70.6973V1.77344Z" fill="#005339"/>
<path d="M81.1232 6.74756H79.0699L78.6471 7.92246H77.1538L79.3938 1.77344H80.975L83.215 7.92246H81.546L81.1232 6.74756ZM79.5146 5.53422H80.673L80.0911 3.70599L79.5091 5.53422H79.5146Z" fill="#005339"/>
<path d="M84.9276 8.03763C84.8618 8.03763 84.8014 8.03763 84.741 8.02665C84.6806 8.01567 84.6257 8.01017 84.5763 7.99919V6.69253C84.6202 6.69802 84.6696 6.70351 84.719 6.709C84.7629 6.71449 84.8233 6.71998 84.8837 6.71998C85.0155 6.71998 85.1198 6.71449 85.2022 6.69802C85.2845 6.68155 85.3504 6.65958 85.4053 6.62115C85.4602 6.58272 85.5041 6.5388 85.5371 6.47841C85.57 6.41802 85.6029 6.34665 85.6359 6.2588L83.1763 1.76782H84.7739L86.41 4.88625L87.6947 1.76782H89.2429L87.1896 6.42351C87.0523 6.71998 86.9206 6.97253 86.7943 7.17566C86.668 7.3788 86.5143 7.54351 86.3441 7.66978C86.1739 7.79606 85.9763 7.88939 85.7512 7.94429C85.5261 7.9992 85.2571 8.02665 84.9386 8.02665L84.9276 8.03763Z" fill="#005339"/>
<path d="M93.4488 5.47371C93.2951 5.57253 93.092 5.66038 92.8449 5.74273C92.5924 5.81959 92.2959 5.86351 91.9555 5.86351C91.3186 5.86351 90.8355 5.7043 90.5116 5.38587C90.1877 5.06744 90.0229 4.55136 90.0229 3.84312V1.77881H91.6041V3.57959C91.6041 3.93096 91.6755 4.17802 91.8237 4.32626C91.972 4.47449 92.1751 4.54587 92.4386 4.54587C92.6857 4.54587 92.8888 4.51842 93.048 4.46351C93.2073 4.40861 93.3445 4.34822 93.4488 4.28234V1.77881H95.03V7.92783H93.4488V5.4792V5.47371Z" fill="#005339"/>
<path d="M96.5669 1.77344H98.1481V4.11226H100.432V1.77344H102.013V7.92246H100.432V5.40795H98.1481V7.92246H96.5669V1.77344Z" fill="#005339"/>
<path d="M106.318 8.03769C105.912 8.03769 105.533 7.97729 105.165 7.862C104.803 7.74671 104.484 7.56004 104.21 7.302C103.935 7.04396 103.721 6.72004 103.562 6.32475C103.403 5.92945 103.326 5.45181 103.326 4.88631V4.71063C103.326 4.17259 103.403 3.71141 103.562 3.32161C103.721 2.93729 103.935 2.61886 104.21 2.3718C104.484 2.12475 104.797 1.94357 105.165 1.82828C105.527 1.71298 105.912 1.65259 106.318 1.65259C106.724 1.65259 107.103 1.71298 107.471 1.82828C107.839 1.94357 108.152 2.12475 108.426 2.3718C108.701 2.61886 108.915 2.9318 109.074 3.32161C109.233 3.70592 109.31 4.17259 109.31 4.71063V4.88631C109.31 5.44631 109.233 5.92945 109.074 6.32475C108.915 6.72004 108.701 7.04396 108.426 7.302C108.152 7.56004 107.833 7.74122 107.471 7.862C107.108 7.97729 106.724 8.03769 106.318 8.03769ZM106.318 6.72004C106.494 6.72004 106.664 6.69259 106.828 6.63768C106.993 6.58278 107.136 6.48396 107.257 6.34671C107.377 6.20945 107.482 6.02279 107.553 5.78671C107.63 5.55063 107.668 5.25416 107.668 4.8918V4.71612C107.668 4.37573 107.63 4.09573 107.553 3.87063C107.476 3.64553 107.377 3.46435 107.257 3.33259C107.136 3.20082 106.988 3.10749 106.828 3.05808C106.664 3.00318 106.494 2.98122 106.318 2.98122C106.142 2.98122 105.972 3.00867 105.807 3.05808C105.643 3.11298 105.5 3.20082 105.379 3.33259C105.258 3.46435 105.154 3.64553 105.083 3.87063C105.011 4.09573 104.967 4.38122 104.967 4.71612V4.8918C104.967 5.25416 105.006 5.55612 105.083 5.78671C105.159 6.02279 105.258 6.20945 105.379 6.34671C105.5 6.48396 105.648 6.58278 105.807 6.63768C105.972 6.69259 106.142 6.72004 106.318 6.72004Z" fill="#005339"/>
<path d="M110.227 4.2002H113.125V5.50137H110.227V4.2002Z" fill="#005339"/>
<path d="M114.268 1.77344H119.626V7.92246H118.045V3.07461H115.849V7.92246H114.268V1.77344Z" fill="#005339"/>
<path d="M121.163 1.77344H123.667C124.523 1.77344 125.154 1.9601 125.561 2.33344C125.967 2.70677 126.17 3.21736 126.17 3.87618C126.17 4.53501 125.967 5.04559 125.561 5.41893C125.154 5.79226 124.523 5.97893 123.667 5.97893H122.744V7.92795H121.163V1.77893V1.77344ZM123.491 4.67226C123.897 4.67226 124.177 4.60638 124.342 4.46912C124.507 4.33187 124.589 4.13422 124.589 3.87069C124.589 3.60716 124.507 3.40952 124.342 3.27226C124.177 3.13501 123.892 3.06912 123.491 3.06912H122.744V4.66677H123.491V4.67226Z" fill="#005339"/>
<path d="M130.123 8.03769C129.717 8.03769 129.338 7.97729 128.97 7.862C128.608 7.74671 128.289 7.56004 128.015 7.302C127.74 7.04396 127.526 6.72004 127.367 6.32475C127.208 5.92945 127.131 5.45181 127.131 4.88631V4.71063C127.131 4.17259 127.208 3.71141 127.367 3.32161C127.526 2.93729 127.74 2.61886 128.015 2.3718C128.289 2.12475 128.602 1.94357 128.97 1.82828C129.332 1.71298 129.717 1.65259 130.123 1.65259C130.529 1.65259 130.908 1.71298 131.276 1.82828C131.644 1.94357 131.957 2.12475 132.231 2.3718C132.506 2.61886 132.72 2.9318 132.879 3.32161C133.038 3.70592 133.115 4.17259 133.115 4.71063V4.88631C133.115 5.44631 133.038 5.92945 132.879 6.32475C132.72 6.72004 132.506 7.04396 132.231 7.302C131.957 7.56004 131.638 7.74122 131.276 7.862C130.914 7.97729 130.529 8.03769 130.123 8.03769ZM130.123 6.72004C130.299 6.72004 130.469 6.69259 130.634 6.63768C130.798 6.58278 130.941 6.48396 131.062 6.34671C131.183 6.20945 131.287 6.02279 131.358 5.78671C131.435 5.55063 131.474 5.25416 131.474 4.8918V4.71612C131.474 4.37573 131.435 4.09573 131.358 3.87063C131.281 3.64553 131.183 3.46435 131.062 3.33259C130.941 3.20082 130.793 3.10749 130.634 3.05808C130.469 3.00318 130.299 2.98122 130.123 2.98122C129.947 2.98122 129.777 3.00867 129.612 3.05808C129.448 3.11298 129.305 3.20082 129.184 3.33259C129.063 3.46435 128.959 3.64553 128.888 3.87063C128.816 4.09573 128.772 4.38122 128.772 4.71612V4.8918C128.772 5.25416 128.811 5.55612 128.888 5.78671C128.965 6.02279 129.063 6.20945 129.184 6.34671C129.305 6.48396 129.453 6.58278 129.612 6.63768C129.777 6.69259 129.947 6.72004 130.123 6.72004Z" fill="#005339"/>
<path d="M134.427 1.77344H136.008V5.46285L138.424 1.77344H139.874V7.92246H138.292V4.23305L135.877 7.92246H134.427V1.77344Z" fill="#005339"/>
<path d="M143.739 8.03769C142.877 8.03769 142.229 7.85102 141.795 7.4722C141.362 7.09337 141.131 6.5718 141.104 5.902H142.74C142.762 6.182 142.849 6.4071 142.992 6.56631C143.14 6.72553 143.387 6.80788 143.739 6.80788C144.09 6.80788 144.343 6.742 144.502 6.61573C144.661 6.48945 144.738 6.30279 144.738 6.0722C144.738 5.96239 144.722 5.85808 144.689 5.75926C144.656 5.66043 144.601 5.57808 144.524 5.5122C144.447 5.44631 144.332 5.39141 144.189 5.35298C144.046 5.31455 143.865 5.29808 143.651 5.29808H143.091V4.22749H143.651C143.816 4.22749 143.953 4.21102 144.063 4.17259C144.173 4.13416 144.266 4.08475 144.332 4.01886C144.398 3.95298 144.447 3.88161 144.474 3.79925C144.502 3.7169 144.518 3.63455 144.518 3.54671C144.518 3.45886 144.507 3.37651 144.485 3.29416C144.464 3.21729 144.42 3.14592 144.365 3.08553C144.31 3.02514 144.227 2.98122 144.123 2.94279C144.019 2.90984 143.893 2.88788 143.739 2.88788C143.459 2.88788 143.245 2.94827 143.107 3.07455C142.965 3.20082 142.888 3.39298 142.871 3.65651H141.235C141.257 2.97573 141.471 2.47612 141.878 2.14671C142.284 1.81729 142.904 1.65259 143.739 1.65259C144.573 1.65259 145.188 1.80083 145.573 2.10279C145.957 2.39926 146.154 2.83298 146.154 3.40396C146.154 3.72788 146.072 4.00239 145.913 4.22749C145.754 4.45259 145.523 4.61729 145.221 4.71612C145.594 4.80396 145.88 4.97416 146.078 5.22122C146.275 5.46827 146.374 5.7922 146.374 6.19298C146.374 6.46749 146.319 6.72004 146.215 6.94514C146.111 7.17024 145.946 7.36788 145.732 7.5271C145.518 7.6918 145.243 7.81808 144.908 7.90592C144.579 7.99377 144.189 8.03769 143.733 8.03769H143.739Z" fill="#005339"/>
<path d="M147.587 1.77344H150.53C151.249 1.77344 151.776 1.91618 152.1 2.20167C152.43 2.48716 152.594 2.89344 152.594 3.4205C152.594 3.73893 152.512 4.00795 152.347 4.23305C152.183 4.45814 151.963 4.62285 151.678 4.72167C152.04 4.80403 152.325 4.96873 152.54 5.21579C152.748 5.46285 152.858 5.78677 152.858 6.18756C152.858 6.72559 152.682 7.14834 152.325 7.46128C151.969 7.77422 151.403 7.92795 150.618 7.92795H147.587V1.77893V1.77344ZM150.146 4.22206C150.486 4.22206 150.717 4.16716 150.838 4.05736C150.958 3.94756 151.019 3.79383 151.019 3.59618C151.019 3.39854 150.958 3.23932 150.838 3.13501C150.717 3.03069 150.492 2.98128 150.157 2.98128H149.174V4.22206H150.151H150.146ZM150.267 6.70913C150.645 6.70913 150.909 6.65422 151.057 6.53893C151.205 6.42363 151.277 6.24795 151.277 6.00638C151.277 5.76481 151.2 5.58912 151.052 5.46834C150.903 5.35305 150.634 5.29265 150.25 5.29265H149.169V6.70913H150.267Z" fill="#005339"/>
<path d="M156.811 8.03769C156.405 8.03769 156.026 7.97729 155.658 7.862C155.296 7.74671 154.977 7.56004 154.703 7.302C154.428 7.04396 154.214 6.72004 154.055 6.32475C153.896 5.92945 153.819 5.45181 153.819 4.88631V4.71063C153.819 4.17259 153.896 3.71141 154.055 3.32161C154.214 2.93729 154.428 2.61886 154.703 2.3718C154.977 2.12475 155.29 1.94357 155.658 1.82828C156.02 1.71298 156.405 1.65259 156.811 1.65259C157.217 1.65259 157.596 1.71298 157.964 1.82828C158.332 1.94357 158.645 2.12475 158.919 2.3718C159.194 2.61886 159.408 2.9318 159.567 3.32161C159.726 3.70592 159.803 4.17259 159.803 4.71063V4.88631C159.803 5.44631 159.726 5.92945 159.567 6.32475C159.408 6.72004 159.194 7.04396 158.919 7.302C158.645 7.56004 158.326 7.74122 157.964 7.862C157.602 7.97729 157.217 8.03769 156.811 8.03769ZM156.811 6.72004C156.987 6.72004 157.157 6.69259 157.322 6.63768C157.486 6.58278 157.629 6.48396 157.75 6.34671C157.871 6.20945 157.975 6.02279 158.046 5.78671C158.123 5.55063 158.162 5.25416 158.162 4.8918V4.71612C158.162 4.37573 158.123 4.09573 158.046 3.87063C157.969 3.64553 157.871 3.46435 157.75 3.33259C157.629 3.20082 157.481 3.10749 157.322 3.05808C157.157 3.00318 156.987 2.98122 156.811 2.98122C156.635 2.98122 156.465 3.00867 156.3 3.05808C156.136 3.11298 155.993 3.20082 155.872 3.33259C155.751 3.46435 155.647 3.64553 155.576 3.87063C155.504 4.09573 155.46 4.38122 155.46 4.71612V4.8918C155.46 5.25416 155.499 5.55612 155.576 5.78671C155.653 6.02279 155.751 6.20945 155.872 6.34671C155.993 6.48396 156.141 6.58278 156.3 6.63768C156.465 6.69259 156.635 6.72004 156.811 6.72004Z" fill="#005339"/>
<path d="M160.401 6.62128H161.104C161.181 6.42363 161.241 6.19305 161.291 5.92952C161.34 5.67148 161.379 5.39148 161.412 5.09501C161.439 4.79853 161.461 4.49657 161.478 4.18363C161.494 3.87069 161.5 3.56324 161.5 3.26677V1.77344H166.012V6.62128H166.638V9.06442H165.266V7.92246H161.769V9.06442H160.396V6.62128H160.401ZM164.431 6.62128V3.07461H162.971V3.44246C162.971 4.15618 162.943 4.77108 162.889 5.29265C162.834 5.80873 162.746 6.25344 162.62 6.62128H164.431Z" fill="#005339"/>
<path d="M170.339 8.03781C169.916 8.03781 169.532 7.98291 169.18 7.86762C168.829 7.75232 168.527 7.57114 168.28 7.3186C168.033 7.06605 167.835 6.74212 167.698 6.34134C167.555 5.94056 167.489 5.45742 167.489 4.88095V4.71624C167.489 4.1782 167.561 3.71703 167.709 3.32722C167.857 2.94291 168.055 2.62448 168.313 2.37742C168.571 2.13036 168.873 1.94918 169.224 1.83389C169.576 1.7186 169.943 1.6582 170.344 1.6582C170.701 1.6582 171.036 1.70213 171.349 1.77899C171.662 1.86134 171.936 1.98761 172.172 2.1633C172.408 2.33899 172.601 2.56957 172.754 2.84957C172.903 3.12957 172.99 3.47546 173.023 3.87624H171.387C171.36 3.71154 171.31 3.57428 171.245 3.45899C171.179 3.34369 171.102 3.25036 171.008 3.17899C170.915 3.10762 170.811 3.05271 170.696 3.01977C170.58 2.98683 170.465 2.97036 170.339 2.97036C170.163 2.97036 169.998 3.0033 169.85 3.06369C169.702 3.12409 169.57 3.22291 169.466 3.36016C169.361 3.49742 169.274 3.67859 169.213 3.8982C169.153 4.1233 169.12 4.39232 169.12 4.70526V4.89193C169.12 5.23232 169.153 5.51781 169.219 5.7484C169.285 5.97899 169.378 6.16565 169.488 6.3084C169.597 6.45114 169.729 6.55546 169.872 6.61585C170.02 6.67624 170.174 6.70918 170.339 6.70918C170.635 6.70918 170.877 6.63781 171.052 6.49507C171.234 6.35232 171.343 6.12173 171.382 5.8033H173.018C172.996 6.21507 172.914 6.56095 172.765 6.84095C172.623 7.12095 172.43 7.35154 172.194 7.52722C171.958 7.70291 171.678 7.82919 171.365 7.91154C171.052 7.99389 170.707 8.03232 170.339 8.03232V8.03781Z" fill="#005339"/>
<path d="M175.549 3.07461H173.66V1.77344H179.019V3.07461H177.13V7.92246H175.549V3.07461Z" fill="#005339"/>
<path d="M180.117 1.77344H183.059C183.779 1.77344 184.306 1.91618 184.63 2.20167C184.959 2.48716 185.124 2.89344 185.124 3.4205C185.124 3.73893 185.041 4.00795 184.877 4.23305C184.712 4.45814 184.492 4.62285 184.207 4.72167C184.569 4.80403 184.855 4.96873 185.069 5.21579C185.277 5.46285 185.387 5.78677 185.387 6.18756C185.387 6.72559 185.212 7.14834 184.855 7.46128C184.498 7.77422 183.932 7.92795 183.147 7.92795H180.117V1.77893V1.77344ZM182.675 4.22206C183.016 4.22206 183.246 4.16716 183.367 4.05736C183.488 3.94756 183.548 3.79383 183.548 3.59618C183.548 3.39854 183.488 3.23932 183.367 3.13501C183.246 3.03069 183.021 2.98128 182.686 2.98128H181.703V4.22206H182.681H182.675ZM182.796 6.70913C183.175 6.70913 183.438 6.65422 183.587 6.53893C183.735 6.42363 183.806 6.24795 183.806 6.00638C183.806 5.76481 183.729 5.58912 183.581 5.46834C183.433 5.35305 183.164 5.29265 182.779 5.29265H181.698V6.70913H182.796Z" fill="#005339"/>
<path d="M186.617 1.77344H191.097V2.98677H188.198V4.18912H190.834V5.33108H188.198V6.70913H191.097V7.92246H186.617V1.77344Z" fill="#005339"/>
<path d="M192.415 1.77344H193.996V4.11226H196.28V1.77344H197.861V7.92246H196.28V5.40795H193.996V7.92246H192.415V1.77344Z" fill="#005339"/>
<path d="M199.398 1.77344H200.98V4.11226H203.264V1.77344H204.845V7.92246H203.264V5.40795H200.98V7.92246H199.398V1.77344Z" fill="#005339"/>
<path d="M206.382 1.77344H207.963V3.8103H208.71C209.566 3.8103 210.198 3.99697 210.604 4.36481C211.01 4.73265 211.213 5.23226 211.213 5.86912C211.213 6.50599 211.01 7.0001 210.604 7.37344C210.198 7.74128 209.566 7.92795 208.71 7.92795H206.382V1.77893V1.77344ZM208.534 6.62128C208.902 6.62128 209.171 6.54991 209.336 6.41265C209.5 6.2754 209.583 6.08873 209.583 5.86912C209.583 5.64952 209.5 5.46285 209.336 5.3256C209.171 5.18285 208.907 5.11697 208.534 5.11697H207.963V6.62677H208.534V6.62128ZM211.652 1.77344H213.234V7.92246H211.652V1.77344Z" fill="#005339"/>
<path d="M214.771 1.77342H216.352V5.46283L218.768 1.77342H220.217V7.92244H218.636V4.23303L216.22 7.92244H214.771V1.77342ZM217.494 1.42204C216.874 1.42204 216.424 1.29577 216.149 1.04322C215.875 0.790673 215.737 0.417338 215.737 -0.0712891H217.022C217.022 0.17028 217.06 0.329495 217.132 0.417338C217.203 0.499691 217.324 0.543614 217.494 0.543614C217.664 0.543614 217.785 0.499691 217.856 0.417338C217.928 0.334985 217.966 0.17028 217.966 -0.0712891H219.251C219.251 0.422829 219.114 0.790673 218.839 1.04322C218.565 1.29577 218.115 1.42204 217.494 1.42204Z" fill="#005339"/>
<path d="M228.595 7.92246H223.995V1.77344H225.576V6.62128H227.684V1.77344H229.265V6.62128H229.968V9.06442H228.595V7.92246Z" fill="#005339"/>
<path d="M231.11 1.77344H235.59V2.98677H232.691V4.18912H235.326V5.33108H232.691V6.70913H235.59V7.92246H231.11V1.77344Z" fill="#005339"/>
<path d="M236.907 1.77344H238.488V4.11226H240.772V1.77344H242.353V7.92246H240.772V5.40795H238.488V7.92246H236.907V1.77344Z" fill="#005339"/>
<path d="M245.34 3.07461H243.452V1.77344H248.81V3.07461H246.921V7.92246H245.34V3.07461Z" fill="#005339"/>
<path d="M249.908 1.77344H252.412C253.268 1.77344 253.9 1.9601 254.306 2.33344C254.712 2.70677 254.915 3.21736 254.915 3.87618C254.915 4.53501 254.712 5.04559 254.306 5.41893C253.9 5.79226 253.268 5.97893 252.412 5.97893H251.489V7.92795H249.908V1.77893V1.77344ZM252.236 4.67226C252.642 4.67226 252.922 4.60638 253.087 4.46912C253.252 4.33187 253.334 4.13422 253.334 3.87069C253.334 3.60716 253.252 3.40952 253.087 3.27226C252.922 3.13501 252.637 3.06912 252.236 3.06912H251.489V4.66677H252.236V4.67226Z" fill="#005339"/>
</g>
<defs>
<clipPath id="clip0_1829_575">
<rect width="259.686" height="56" fill="white"/>
</clipPath>
</defs>
</svg>
