<svg width="64" height="64" viewBox="0 0 64 64" fill="none" xmlns="http://www.w3.org/2000/svg">
<g clip-path="url(#clip0_2060_1068)">
<path d="M29.3086 20.2029L15.5925 33.919L8.24463 26.571L21.9608 12.855L29.3086 20.2029Z" stroke="#FAFAF9" stroke-width="2" stroke-miterlimit="10" stroke-linecap="round" stroke-linejoin="round"/>
<path d="M11.4524 8.40485L13.2274 6.62985C14.5187 5.3386 16.5587 5.18485 18.0274 6.2686L24.0824 10.7324L6.12244 28.6936L1.65744 22.6386C0.57494 21.1686 0.72744 19.1286 2.01869 17.8374L8.80119 11.0549" stroke="#FAFAF9" stroke-width="2" stroke-miterlimit="10" stroke-linecap="round" stroke-linejoin="round"/>
<path d="M16.8761 27.1197C16.166 27.8299 15.0145 27.8299 14.3044 27.1197L11 23.8154L13.5717 21.2436L16.8761 24.548C17.5864 25.2581 17.5864 26.4096 16.8761 27.1197Z" stroke="#FAFAF9" stroke-width="2" stroke-miterlimit="10" stroke-linecap="round" stroke-linejoin="round"/>
<path d="M22.5094 21.4869C21.7992 22.1971 20.6478 22.1971 19.9377 21.4869L16.6333 18.1826L19.2051 15.6108L22.5094 18.9152C23.2196 19.6253 23.2196 20.7768 22.5094 21.4869Z" stroke="#FAFAF9" stroke-width="2" stroke-miterlimit="10" stroke-linecap="round" stroke-linejoin="round"/>
<path d="M3.79004 25.5303L20.9194 8.4009" stroke="#FAFAF9" stroke-width="2" stroke-miterlimit="10" stroke-linecap="round" stroke-linejoin="round"/>
<path d="M34.6919 20.2029L48.408 33.919L55.7558 26.571L42.0398 12.855L34.6919 20.2029Z" stroke="#FAFAF9" stroke-width="2" stroke-miterlimit="10" stroke-linecap="round" stroke-linejoin="round"/>
<path d="M39.9175 10.7329L57.8777 28.6932L62.3422 22.6383C63.4255 21.1692 63.2721 19.1287 61.9814 17.8379L50.7727 6.62932C49.482 5.33844 47.4415 5.18519 45.9722 6.26844L39.9175 10.7329Z" stroke="#FAFAF9" stroke-width="2" stroke-miterlimit="10" stroke-linecap="round" stroke-linejoin="round"/>
<path d="M47.124 27.1197C47.8341 27.8299 48.9856 27.8299 49.6957 27.1197L53.0001 23.8154L50.4284 21.2436L47.124 24.548C46.4137 25.2581 46.4137 26.4096 47.124 27.1197Z" stroke="#FAFAF9" stroke-width="2" stroke-miterlimit="10" stroke-linecap="round" stroke-linejoin="round"/>
<path d="M41.4906 21.4869C42.2009 22.1971 43.3522 22.1971 44.0624 21.4869L47.3667 18.1826L44.795 15.6108L41.4906 18.9152C40.7805 19.6253 40.7805 20.7768 41.4906 21.4869Z" stroke="#FAFAF9" stroke-width="2" stroke-miterlimit="10" stroke-linecap="round" stroke-linejoin="round"/>
<path d="M60.2099 25.5303L43.0806 8.4009" stroke="#FAFAF9" stroke-width="2" stroke-miterlimit="10" stroke-linecap="round" stroke-linejoin="round"/>
<path d="M17.6084 40.1758L15.5928 33.9189" stroke="#FAFAF9" stroke-width="2" stroke-miterlimit="10" stroke-linecap="round" stroke-linejoin="round"/>
<path d="M48.4073 33.919L47.1924 37.6924" stroke="#FAFAF9" stroke-width="2" stroke-miterlimit="10" stroke-linecap="round" stroke-linejoin="round"/>
<path d="M28.5366 48.3554H31.9997H43.7579" stroke="#FAFAF9" stroke-width="2" stroke-miterlimit="10" stroke-linecap="round" stroke-linejoin="round"/>
<path d="M29.3086 20.2029H34.6918" stroke="#FAFAF9" stroke-width="2" stroke-miterlimit="10" stroke-linecap="round" stroke-linejoin="round"/>
<path d="M10.7487 29.074C8.25875 30.7953 6.625 33.669 6.625 36.9178C6.625 41.7703 10.2725 45.7878 14.97 46.374M13.4762 31.8015C11.635 32.769 10.3775 34.6978 10.3775 36.9178C10.3775 39.9228 12.6862 42.4003 15.6237 42.669" stroke="#FAFAF9" stroke-width="2" stroke-miterlimit="10" stroke-linecap="round" stroke-linejoin="round"/>
<path d="M53.2063 44.7923C51.7438 45.7911 49.9888 46.3936 48.1001 46.4436M53.2513 29.0748C55.7413 30.7948 57.3751 33.6686 57.3751 36.9173C57.3751 38.8398 56.8026 40.6311 55.8188 42.1298M50.5243 31.8017C52.3647 32.7688 53.6221 34.6981 53.6221 36.9176C53.6221 39.4748 51.9506 41.6506 49.6411 42.4063" stroke="#FAFAF9" stroke-width="2" stroke-miterlimit="10" stroke-linecap="round" stroke-linejoin="round"/>
<path d="M23.9513 52.4841V56.5966C23.9513 57.6212 23.1206 58.452 22.0959 58.452C21.0724 58.452 20.2417 57.6212 20.2417 56.5966V52.5391" stroke="#FAFAF9" stroke-width="2" stroke-miterlimit="10" stroke-linecap="round" stroke-linejoin="round"/>
<path d="M28.537 48.3554H30.5539V56.5965C30.5539 57.6213 29.7231 58.452 28.6984 58.452C27.675 58.452 26.8442 57.6213 26.8442 56.5965V50.8302" stroke="#FAFAF9" stroke-width="2" stroke-miterlimit="10" stroke-linecap="round" stroke-linejoin="round"/>
<path d="M35.3015 58.4512C34.2772 58.4512 33.4468 57.6208 33.4468 56.5964V48.3545H37.1562V56.5964C37.1562 57.6208 36.3258 58.4512 35.3015 58.4512Z" stroke="#FAFAF9" stroke-width="2" stroke-miterlimit="10" stroke-linecap="round" stroke-linejoin="round"/>
<path d="M41.9039 58.4512C40.8797 58.4512 40.0493 57.6208 40.0493 56.5964V48.3545H43.7587V56.5964C43.7587 57.6208 42.9283 58.4512 41.9039 58.4512Z" stroke="#FAFAF9" stroke-width="2" stroke-miterlimit="10" stroke-linecap="round" stroke-linejoin="round"/>
<path d="M40.0484 56.5966H37.1558" stroke="#FAFAF9" stroke-width="2" stroke-miterlimit="10" stroke-linecap="round" stroke-linejoin="round"/>
<path d="M26.8443 56.5966H23.9517" stroke="#FAFAF9" stroke-width="2" stroke-miterlimit="10" stroke-linecap="round" stroke-linejoin="round"/>
<path d="M33.4463 56.5966H30.5537" stroke="#FAFAF9" stroke-width="2" stroke-miterlimit="10" stroke-linecap="round" stroke-linejoin="round"/>
<path d="M36.3685 32.2358C36.3685 29.8232 34.4126 27.8673 31.9998 27.8673C29.5872 27.8673 27.6313 29.8232 27.6313 32.2358C27.6313 34.6486 29.5872 36.6043 31.9998 36.6043C34.4126 36.6043 36.3685 34.6486 36.3685 32.2358Z" stroke="#FAFAF9" stroke-width="2" stroke-miterlimit="10" stroke-linecap="round" stroke-linejoin="round"/>
<path d="M49.6425 42.4702C49.6425 39.2204 47.008 36.586 43.7583 36.586C40.5084 36.586 37.874 39.2204 37.874 42.4702C37.874 45.72 40.5084 48.3545 43.7583 48.3545C47.008 48.3545 49.6425 45.72 49.6425 42.4702Z" stroke="#FAFAF9" stroke-width="2" stroke-miterlimit="10" stroke-linecap="round" stroke-linejoin="round"/>
<path d="M29.0527 45.7022C29.0527 41.8049 25.8933 38.6455 21.9961 38.6455C18.0988 38.6455 14.9395 41.8049 14.9395 45.7022C14.9395 49.5994 18.0988 52.7588 21.9961 52.7588C25.8933 52.7588 29.0527 49.5994 29.0527 45.7022Z" stroke="#FAFAF9" stroke-width="2" stroke-miterlimit="10" stroke-linecap="round" stroke-linejoin="round"/>
<path d="M23.8883 45.7024C23.8883 44.6574 23.0411 43.8103 21.9961 43.8103C20.9511 43.8103 20.104 44.6574 20.104 45.7024C20.104 46.7474 20.9511 47.5945 21.9961 47.5945C23.0411 47.5945 23.8883 46.7474 23.8883 45.7024Z" stroke="#FAFAF9" stroke-width="2" stroke-miterlimit="10" stroke-linecap="round" stroke-linejoin="round"/>
<path d="M45.6505 42.4702C45.6505 41.4252 44.8033 40.5781 43.7583 40.5781C42.7133 40.5781 41.8662 41.4252 41.8662 42.4702C41.8662 43.5152 42.7133 44.3623 43.7583 44.3623C44.8033 44.3623 45.6505 43.5152 45.6505 42.4702Z" stroke="#FAFAF9" stroke-width="2" stroke-miterlimit="10" stroke-linecap="round" stroke-linejoin="round"/>
<path d="M16.4604 41.326L29.0697 28.9963" stroke="#FAFAF9" stroke-width="2" stroke-miterlimit="10" stroke-linecap="round" stroke-linejoin="round"/>
<path d="M34.9834 29.0457L46.1704 37.1037" stroke="#FAFAF9" stroke-width="2" stroke-miterlimit="10" stroke-linecap="round" stroke-linejoin="round"/>
<path d="M26.8442 50.8301L38.6755 39.5051" stroke="#FAFAF9" stroke-width="2" stroke-miterlimit="10" stroke-linecap="round" stroke-linejoin="round"/>
</g>
<defs>
<clipPath id="clip0_2060_1068">
<rect width="64" height="64" fill="white"/>
</clipPath>
</defs>
</svg>
