<svg width="64" height="64" viewBox="0 0 64 64" fill="none" xmlns="http://www.w3.org/2000/svg">
<path d="M38 23C36.346 23 35 24.346 35 26C35 27.654 36.346 29 38 29C39.654 29 41 27.654 41 26C41 24.346 39.654 23 38 23ZM38 27C37.448 27 37 26.551 37 26C37 25.449 37.448 25 38 25C38.552 25 39 25.449 39 26C39 26.551 38.552 27 38 27Z" fill="#FAFAF9"/>
<path d="M26 35C24.346 35 23 36.346 23 38C23 39.654 24.346 41 26 41C27.654 41 29 39.654 29 38C29 36.346 27.654 35 26 35ZM26 39C25.448 39 25 38.551 25 38C25 37.449 25.448 37 26 37C26.552 37 27 37.449 27 38C27 38.551 26.552 39 26 39Z" fill="#FAFAF9"/>
<path d="M20 53C18.346 53 17 54.346 17 56C17 57.654 18.346 59 20 59C21.654 59 23 57.654 23 56C23 54.346 21.654 53 20 53ZM20 57C19.448 57 19 56.551 19 56C19 55.449 19.448 55 20 55C20.552 55 21 55.449 21 56C21 56.551 20.552 57 20 57Z" fill="#FAFAF9"/>
<path d="M28 53C26.346 53 25 54.346 25 56C25 57.654 26.346 59 28 59C29.654 59 31 57.654 31 56C31 54.346 29.654 53 28 53ZM28 57C27.448 57 27 56.551 27 56C27 55.449 27.448 55 28 55C28.552 55 29 55.449 29 56C29 56.551 28.552 57 28 57Z" fill="#FAFAF9"/>
<path d="M37 37H31V39H39V31H37V37Z" fill="#FAFAF9"/>
<path d="M27 27H33V25H25V33H27V27Z" fill="#FAFAF9"/>
<path d="M33 45V49H35V45H37V49H39V45H41V49H43V45C44.103 45 45 44.103 45 43H49V41H45V39H49V37H45V35H49V33H45V31H49V29H45V27H49V25H45V23H49V21H45C45 19.897 44.103 19 43 19V15H41V19H39V15H37V19H35V15H33V19H31V15H29V19H27V15H25V19H23V15H21V19C19.897 19 19 19.897 19 21H15V23H19V25H15V27H19V29H15V31H19V33H15V35H19V37H15V39H19V41H15V43H19C19 44.103 19.897 45 21 45V49H23V45H25V49H27V45H29V49H31V45H33ZM21 21H43L43.001 43H21V21Z" fill="#FAFAF9"/>
<path d="M5 55H7V57H5V55Z" fill="#FAFAF9"/>
<path d="M9 55H11V57H9V55Z" fill="#FAFAF9"/>
<path d="M51 5H53V7H51V5Z" fill="#FAFAF9"/>
<path d="M55 5H57V7H55V5Z" fill="#FAFAF9"/>
<path d="M45 7H47V11H61V1H47V5H45V1H31V11H45V7ZM49 3H59V9H49V3ZM43 9H33V3H43V9Z" fill="#FAFAF9"/>
<path d="M35 5H37V7H35V5Z" fill="#FAFAF9"/>
<path d="M39 5H41V7H39V5Z" fill="#FAFAF9"/>
<path d="M13 49H11V51H9V49H7V51H5V49H3V51H1V61H3V63H5V61H7V63H9V61H11V63H13V61H15V51H13V49ZM13 59H3V53H13V59Z" fill="#FAFAF9"/>
<path d="M60 57C58.346 57 57 58.346 57 60C57 61.654 58.346 63 60 63C61.654 63 63 61.654 63 60C63 58.346 61.654 57 60 57ZM60 61C59.448 61 59 60.551 59 60C59 59.449 59.448 59 60 59C60.552 59 61 59.449 61 60C61 60.551 60.552 61 60 61Z" fill="#FAFAF9"/>
<path d="M41 59H55V61H41V59Z" fill="#FAFAF9"/>
<path d="M59 33V55H61V31H56.816C56.402 29.839 55.302 29 54 29C52.346 29 51 30.346 51 32C51 33.654 52.346 35 54 35C55.302 35 56.402 34.161 56.816 33H59ZM54 33C53.448 33 53 32.551 53 32C53 31.449 53.448 31 54 31C54.552 31 55 31.449 55 32C55 32.551 54.552 33 54 33Z" fill="#FAFAF9"/>
<path d="M53 55H33V57H55V37H53V55Z" fill="#FAFAF9"/>
<path d="M53 13H55V27H53V13Z" fill="#FAFAF9"/>
<path d="M57 26C57 27.654 58.346 29 60 29C61.654 29 63 27.654 63 26C63 24.346 61.654 23 60 23C58.346 23 57 24.346 57 26ZM61 26C61 26.551 60.552 27 60 27C59.448 27 59 26.551 59 26C59 25.449 59.448 25 60 25C60.552 25 61 25.449 61 26Z" fill="#FAFAF9"/>
<path d="M59 13H61V21H59V13Z" fill="#FAFAF9"/>
<path d="M4 47C5.654 47 7 45.654 7 44C7 42.346 5.654 41 4 41C2.346 41 1 42.346 1 44C1 45.654 2.346 47 4 47ZM4 43C4.552 43 5 43.449 5 44C5 44.551 4.552 45 4 45C3.448 45 3 44.551 3 44C3 43.449 3.448 43 4 43Z" fill="#FAFAF9"/>
<path d="M11 21H9V24H3V39H5V26H11V21Z" fill="#FAFAF9"/>
<path d="M7 31C7 32.654 8.346 34 10 34C11.654 34 13 32.654 13 31C13 29.346 11.654 28 10 28C8.346 28 7 29.346 7 31ZM11 31C11 31.551 10.552 32 10 32C9.448 32 9 31.551 9 31C9 30.449 9.448 30 10 30C10.552 30 11 30.449 11 31Z" fill="#FAFAF9"/>
<path d="M9 36H11V46H9V36Z" fill="#FAFAF9"/>
<path d="M4 7C5.654 7 7 5.654 7 4C7 2.346 5.654 1 4 1C2.346 1 1 2.346 1 4C1 5.654 2.346 7 4 7ZM4 3C4.552 3 5 3.449 5 4C5 4.551 4.552 5 4 5C3.448 5 3 4.551 3 4C3 3.449 3.448 3 4 3Z" fill="#FAFAF9"/>
<path d="M26 9C27.654 9 29 7.654 29 6C29 4.346 27.654 3 26 3C24.346 3 23 4.346 23 6C23 7.654 24.346 9 26 9ZM26 5C26.552 5 27 5.449 27 6C27 6.551 26.552 7 26 7C25.448 7 25 6.551 25 6C25 5.449 25.448 5 26 5Z" fill="#FAFAF9"/>
<path d="M15 14H19V7H21V5H17V12H13V19H15V14Z" fill="#FAFAF9"/>
<path d="M5 8H3V16H9V19H11V14H5V8Z" fill="#FAFAF9"/>
</svg>
