<svg width="64" height="64" viewBox="0 0 64 64" fill="none" xmlns="http://www.w3.org/2000/svg">
<path d="M32.0962 1.875H20.145C15.1912 1.875 10.5625 5.06 7.1125 10.845C3.735 16.5075 1.875 24.02 1.875 32C1.875 39.98 3.735 47.4925 7.1125 53.155C10.5625 58.94 15.1912 62.125 20.145 62.125H32.0962C48.6537 62.125 62.125 48.6488 62.125 32.085V31.915C62.125 15.3513 48.6537 1.875 32.0962 1.875ZM25.2325 59.2738C23.2188 55.8375 21.545 47.325 21.6175 40.7463C22.5138 40.5062 23.3263 40.03 24.0238 39.3375C26.7188 43.4663 30.515 47.4175 33.5238 49.2238C33.0287 50.3338 32.485 51.3913 31.89 52.3875C29.9788 55.5913 27.7038 57.925 25.2325 59.2738ZM10.0375 33.5075C9.285 32.6337 9.285 31.3663 10.0375 30.4925C12.4425 27.7013 17.0662 24.6562 20.1162 24.575C22.0475 24.5238 23.1963 25.7787 23.8225 26.84C25.4713 29.6375 25.4713 34.3638 23.8225 37.16C23.2087 38.2012 22.0913 39.4263 20.2313 39.4263C20.1938 39.4263 20.155 39.4263 20.1162 39.425C17.0662 39.3438 12.4425 36.2987 10.0375 33.5075ZM8.90125 29.5138C8.8525 29.57 8.80625 29.6287 8.76125 29.6875C6.95125 29.57 5.285 29.7225 3.41 30.1838C3.56 26.095 4.215 22.1725 5.32375 18.6213C8.04125 19.7987 10.9562 22.275 13.4987 25.5713C11.7275 26.7213 10.09 28.1338 8.90125 29.5138ZM34.1087 47.8237C31.2137 46.025 27.5513 42.1237 25.0075 38.0938C25.0437 38.0363 25.08 37.9813 25.115 37.9225C25.7838 36.7875 26.22 35.4062 26.4237 33.9487C28.265 34.36 29.94 34.565 31.4575 34.565C33.5675 34.565 35.3725 34.165 36.8975 33.365C36.7525 38.5825 35.7887 43.5425 34.1087 47.8237ZM26.5513 32.4388C26.5913 31.1425 26.4538 29.835 26.1413 28.6275C29.8862 26.48 33.495 22.86 35.2588 19.5987C36.3113 23.3062 36.88 27.385 36.9125 31.6138C34.5225 33.2188 31.1238 33.49 26.5513 32.4388ZM25.6562 27.1725C25.4963 26.7887 25.3162 26.4212 25.1138 26.0775C24.6725 25.3287 24.1437 24.7113 23.5462 24.235C26.0238 18.1425 27.3562 10.2863 26.7962 5.73C28.6637 7.1175 30.3888 9.0975 31.89 11.6125C32.9462 13.3837 33.8475 15.3475 34.5825 17.4562C33.4725 20.6437 29.6213 24.8138 25.6562 27.1725ZM25.065 4.63625C26.02 8.05375 25.0387 16.48 22.2412 23.465C21.5687 23.1887 20.8412 23.055 20.0763 23.0763C19.73 23.085 19.3713 23.125 19.0037 23.1887C18.235 15.7325 15.5525 8.83375 13.195 5.96C15.3538 4.2675 17.7138 3.375 20.145 3.375C21.8337 3.375 23.4888 3.80625 25.065 4.63625ZM8.40125 11.6125C9.50875 9.755 10.74 8.19125 12.0588 6.94C14.0588 9.40625 16.7925 15.9488 17.5338 23.565C16.6325 23.8638 15.705 24.2862 14.7913 24.7925C12.0063 21.1375 8.855 18.475 5.8 17.1925C6.51875 15.1837 7.38875 13.31 8.40125 11.6125ZM3.3775 31.74C5.0475 31.2975 6.51875 31.1125 8.06625 31.1562C7.80375 32.3 8.0825 33.535 8.90125 34.4863C9.6575 35.3638 10.595 36.2537 11.6325 37.0825C8.66375 39.2275 6.37375 41.3925 4.8 43.5438C3.86625 39.9538 3.375 36.0425 3.375 32C3.375 31.9137 3.37625 31.8275 3.3775 31.74ZM8.40125 52.3875C7.16 50.3075 6.13375 47.9613 5.33875 45.4263C6.8475 42.995 9.38625 40.5075 12.8975 38.025C13.9362 38.7475 15.0363 39.3862 16.1275 39.88C13.4975 45.2038 11.6 52.3175 11.1625 56.145C10.1788 55.0713 9.25375 53.8162 8.40125 52.3875ZM12.565 57.5187C12.59 54.7188 14.5113 46.4738 17.5263 40.4313C18.4138 40.7262 19.2775 40.9025 20.0763 40.925H20.115C20.0725 47.7062 21.7588 56.1512 23.87 59.91C22.66 60.3812 21.4125 60.625 20.145 60.625C17.475 60.625 14.8912 59.5487 12.565 57.5187ZM25.8925 60.625C28.6213 59.1512 31.1113 56.62 33.1775 53.155C36.555 47.4925 38.415 39.9788 38.415 32C38.415 24.0212 36.555 16.5075 33.1775 10.845C31.1113 7.38 28.6225 4.84875 25.8925 3.375H26.5075C30.9125 3.375 35.0837 6.3 38.2525 11.6125C41.4937 17.0463 43.2788 24.2863 43.2788 32C43.2788 39.7125 41.4937 46.9538 38.2525 52.3875C35.0837 57.7 30.9125 60.625 26.5075 60.625H25.8925ZM60.625 32.085C60.625 47.7675 47.9162 60.5338 32.26 60.6225C34.9875 59.1488 37.4762 56.6175 39.5412 53.155C42.9187 47.4925 44.7788 39.9788 44.7788 32C44.7788 24.0212 42.9187 16.5075 39.5412 10.845C37.4762 7.3825 34.9875 4.85125 32.26 3.3775C47.9162 3.46625 60.625 16.2325 60.625 31.915V32.085Z" fill="#FAFAF9" stroke="#FAFAF9"/>
</svg>
