<svg width="64" height="64" viewBox="0 0 64 64" fill="none" xmlns="http://www.w3.org/2000/svg">
<g clip-path="url(#clip0_2060_4969)">
<path d="M29.9376 37.7858C26.2018 35.6169 21.2779 35.62 17.5505 37.7838C15.6634 38.8685 14.0934 40.4385 13.0117 42.3216C11.9281 44.19 11.355 46.3317 11.355 48.5161C11.355 50.7006 11.9281 52.8422 13.0097 54.7087C14.0944 56.5948 15.6634 58.1648 17.5475 59.2465C19.415 60.3301 21.5566 60.9032 23.7421 60.9032C25.9276 60.9032 28.0692 60.3301 29.9336 59.2485C31.8207 58.1638 33.3908 56.5938 34.4724 54.7107C35.5561 52.8422 36.1292 50.7006 36.1292 48.5161C36.1292 46.3317 35.5561 44.19 34.4744 42.3236C33.3908 40.4385 31.8207 38.8685 29.9376 37.7858ZM29.7643 56.8856L28.7653 55.1537L26.977 56.186L27.9744 57.9148C26.9628 58.3649 25.8807 58.6426 24.7743 58.749V56.7742H22.7098V58.749C21.6045 58.6426 20.5223 58.3639 19.5097 57.9148L20.5072 56.187L18.7189 55.1547L17.7199 56.8866C16.8147 56.2364 16.0238 55.4456 15.3726 54.5393L17.1045 53.5403L16.0722 51.752L14.3404 52.7515C13.8852 51.7409 13.5979 50.6623 13.4865 49.5494H15.484V47.4849H13.4865C13.5969 46.373 13.8852 45.2944 14.3404 44.2828L16.0722 45.2823L17.1045 43.494L15.3726 42.495C16.0218 41.5897 16.8137 40.7989 17.7199 40.1477L18.7189 41.8795L20.5072 40.8473L19.5077 39.1154C20.5173 38.6603 21.5969 38.373 22.7098 38.2616V40.2581H24.7743V38.2606C25.8862 38.371 26.9649 38.6593 27.9765 39.1144L26.977 40.8463L28.7653 41.8785L29.7643 40.1467C30.6695 40.7969 31.4603 41.5877 32.1115 42.494L30.3797 43.4929L31.4119 45.2813L33.1438 44.2818C33.5989 45.2923 33.8862 46.371 33.9976 47.4839H32.0001V49.5484H33.9976C33.8872 50.6603 33.5989 51.7389 33.1438 52.7505L31.4119 51.751L30.3797 53.5393L32.1115 54.5383C31.4623 55.4436 30.6705 56.2344 29.7643 56.8856Z" fill="#FAFAF9"/>
<path d="M23.7419 43.3545C20.8961 43.3545 18.5806 45.67 18.5806 48.5158C18.5806 51.3615 20.8961 53.6771 23.7419 53.6771C26.5876 53.6771 28.9031 51.3615 28.9031 48.5158C28.9031 45.67 26.5876 43.3545 23.7419 43.3545ZM23.7419 51.6126C22.0347 51.6126 20.6451 50.2229 20.6451 48.5158C20.6451 46.8086 22.0347 45.419 23.7419 45.419C25.449 45.419 26.8386 46.8086 26.8386 48.5158C26.8386 50.2229 25.449 51.6126 23.7419 51.6126Z" fill="#FAFAF9"/>
<path d="M22.7095 47.4834H24.774V49.5479H22.7095V47.4834Z" fill="#FAFAF9"/>
<path d="M63.6905 39.2051C63.6905 37.9728 62.9834 36.9012 61.9355 36.4047V33.8785C61.9355 32.6855 61.7041 31.5146 61.252 30.4073C60.0423 27.3962 57.3049 25.2107 54.1079 24.7051L43.1472 22.9521L41.4536 17.8705L48.2934 13.189C52.0333 10.6386 56.3942 9.29032 60.9032 9.29032V7.2258C55.9783 7.2258 51.2142 8.69758 47.1265 11.4839L34.1346 20.379L18.5796 5.64213C16.8579 4.00101 14.5887 3.09677 12.191 3.09677H0V51.6129H9.29032V48.5161C9.29032 47.2122 9.46573 45.9148 9.81048 44.6618C11.5333 38.4229 17.2626 34.0645 23.7419 34.0645C24.6986 34.0645 25.6588 34.1583 26.5943 34.3443C31.9516 35.4229 36.316 39.5292 37.7127 44.8105C38.0328 45.9985 38.1936 47.2455 38.1936 48.5161V51.6129H61.9355C63.0741 51.6129 64 50.687 64 49.5176L63.6905 39.2051ZM59.6169 32C59.7863 32.6119 59.871 33.2419 59.871 33.8785V35.9244L50.5807 34.2359V32H59.6169ZM40.8498 22.5847L35.7566 21.7702L39.682 19.0832L40.8498 22.5847ZM12.191 5.16129C14.0565 5.16129 15.8206 5.8634 17.1583 7.13911L32.4995 21.6774H29.246L25.4511 18.8317L15.3558 8.73588C14.3967 7.77621 13.0665 7.2258 11.7056 7.2258H2.06452V5.16129H12.191ZM15.4839 20.129C15.4839 20.3024 15.5015 20.4748 15.5262 20.6452H2.06452V9.29032H11.7056C12.5232 9.29032 13.3211 9.62046 13.8972 10.1956L20.2177 16.5161H19.0968C17.1043 16.5161 15.4839 18.1366 15.4839 20.129ZM19.0968 18.5806H22.2823L24.0444 20.3427L25.8165 21.6774H19.0968C18.686 21.6774 18.2863 21.5131 18.0005 21.2263C17.9582 21.184 17.9148 21.1376 17.8558 21.0549C17.6568 20.7928 17.5484 20.4637 17.5484 20.129C17.5484 19.2752 18.2429 18.5806 19.0968 18.5806ZM7.22581 49.5484H2.06452V45.4194H7.52319C7.32913 46.439 7.22581 47.4758 7.22581 48.5161V49.5484ZM8.06401 43.3548H2.06452V22.7097H16.5686C17.2369 23.3639 18.1542 23.7419 19.0968 23.7419H27.8463C27.7339 26.6517 27.1421 29.4844 26.0882 32.185C25.31 32.0756 24.5262 32 23.7419 32C16.6028 32 10.2762 36.6336 8.06401 43.3548ZM28.1426 32.5938C29.2077 29.756 29.8014 26.7883 29.9098 23.7419H35.0161L53.7838 26.7439C55.8019 27.0635 57.5857 28.2455 58.688 29.9355H48.5161V35.9577L60.7475 38.1809C61.2561 38.2596 61.627 38.69 61.627 39.2349L61.7495 43.3548H39.4269C37.7092 38.1442 33.431 34.0645 28.1426 32.5938ZM40.2581 49.5484V48.5161C40.2581 47.4652 40.1578 46.4289 39.9657 45.4194H61.8115L61.9355 49.5484H40.2581Z" fill="#FAFAF9"/>
</g>
<defs>
<clipPath id="clip0_2060_4969">
<rect width="64" height="64" fill="white"/>
</clipPath>
</defs>
</svg>
