<?xml version="1.0" encoding="utf-8"?><svg viewBox="0 0 24 25" xmlns="http://www.w3.org/2000/svg" xmlns:xlink="http://www.w3.org/1999/xlink"><style>:root>svg{display:none}:root>svg:target{display:block}</style><svg fill="none" viewBox="0 0 24 24" id="arrow-down-check" xmlns="http://www.w3.org/2000/svg">
    <path d="m6 9 6 6 6-6" stroke="#222" stroke-width="2" stroke-linecap="round" stroke-linejoin="round"/>
</svg><svg fill="none" viewBox="0 0 24 24" id="arrow-left" xmlns="http://www.w3.org/2000/svg">
    <path d="M20 12H4M10 18l-6-6 6-6" stroke="#222" stroke-width="2" stroke-linecap="round" stroke-linejoin="round"/>
</svg><svg fill="none" viewBox="0 0 24 24" id="arrow-left-check" xmlns="http://www.w3.org/2000/svg">
    <path d="m15 6-6 6 6 6" stroke="#222" stroke-width="2" stroke-linecap="round" stroke-linejoin="round"/>
</svg><svg fill="none" viewBox="0 0 24 24" id="arrow-right" xmlns="http://www.w3.org/2000/svg">
    <path d="M4 12h16M14 6l6 6-6 6" stroke="#222" stroke-width="2" stroke-linecap="round" stroke-linejoin="round"/>
</svg><svg fill="none" viewBox="0 0 24 24" id="arrow-right-check" xmlns="http://www.w3.org/2000/svg">
    <path d="m9 18 6-6-6-6" stroke="#222" stroke-width="2" stroke-linecap="round" stroke-linejoin="round"/>
</svg><svg fill="none" viewBox="0 0 24 24" id="arrow-up-check" xmlns="http://www.w3.org/2000/svg">
    <path d="m18 15-6-6-6 6" stroke="#222" stroke-width="2" stroke-linecap="round" stroke-linejoin="round"/>
</svg><svg fill="none" viewBox="0 0 24 24" id="bus" xmlns="http://www.w3.org/2000/svg">
    <g clip-path="url(#ga)" stroke="#222" stroke-linecap="round" stroke-linejoin="round">
        <path d="M19.929 19.7h1.375c.947 0 1.714-.767 1.714-1.714V13.64c0-.946-.768-1.714-1.714-1.714h-.947v-6.14c0-.947-.767-1.715-1.714-1.715H2.888c-.947 0-1.714.768-1.714 1.715V18.23c0 .812.658 1.47 1.47 1.47h.785M20.357 7.215H1.175M20.357 11.926H1.175M7.653 7.215v4.705M13.769 7.215v4.705" stroke-width="2"/>
        <path d="M5.812 22.07a2.393 2.393 0 1 0 0-4.787 2.393 2.393 0 0 0 0 4.787ZM17.538 22.07a2.393 2.393 0 1 0 0-4.786 2.393 2.393 0 0 0 0 4.786Z" stroke-width="2"/>
        <path d="M8.205 19.676h6.939" stroke-width="1.5"/>
    </g>
    <defs>
        <clipPath id="ga">
            <path fill="#fff" d="M0 0h24v24H0z"/>
        </clipPath>
    </defs>
</svg><svg fill="none" viewBox="0 0 24 24" id="car" xmlns="http://www.w3.org/2000/svg">
    <g clip-path="url(#ha)" stroke="#222" stroke-linecap="round" stroke-linejoin="round">
        <path d="M3.429 18.857h-.857a1.714 1.714 0 0 1-1.715-1.714v-3.429A1.714 1.714 0 0 1 2.572 12h2.571l1.32-3.977a1.714 1.714 0 0 1 1.714-1.166h6.875a1.714 1.714 0 0 1 1.714 1.166L18 12h3.429a1.714 1.714 0 0 1 1.714 1.714v3.429a1.714 1.714 0 0 1-1.714 1.714h-.857" stroke-width="2"/>
        <path d="M17.998 21.428a2.573 2.573 0 1 1 0-5.146 2.573 2.573 0 0 1 0 5.146ZM5.998 21.428a2.573 2.573 0 1 1 0-5.146 2.573 2.573 0 0 1 0 5.146Z" stroke-width="2"/>
        <path d="M15.425 18.857H8.57" stroke-width="1.5"/>
    </g>
    <defs>
        <clipPath id="ha">
            <path fill="#fff" d="M0 0h24v24H0z"/>
        </clipPath>
    </defs>
</svg><svg fill="none" viewBox="0 0 24 24" id="check" xmlns="http://www.w3.org/2000/svg">
    <path d="M20 7 9 18l-5-5" stroke="#222" stroke-width="2" stroke-linecap="round" stroke-linejoin="round"/>
</svg><svg fill="none" viewBox="0 0 24 24" id="close" xmlns="http://www.w3.org/2000/svg">
    <path d="M18 6 6 18M6 6l12 12" stroke="#222" stroke-width="2" stroke-linecap="round" stroke-linejoin="round"/>
</svg><svg fill="none" viewBox="0 0 24 24" id="download" xmlns="http://www.w3.org/2000/svg">
    <path d="M4 12v8a2 2 0 0 0 2 2h12a2 2 0 0 0 2-2v-8M16 6l-4-4-4 4M12 2v13" stroke="#222" stroke-width="2" stroke-linecap="round" stroke-linejoin="round"/>
</svg><svg fill="none" viewBox="0 0 24 24" id="file" xmlns="http://www.w3.org/2000/svg">
    <path clip-rule="evenodd" d="M13 1.938H6a2 2 0 0 0-2 2v16a2 2 0 0 0 2 2h12a2 2 0 0 0 2-2v-11l-7-7Z" stroke="#222" stroke-width="2" stroke-linecap="round" stroke-linejoin="round"/>
    <path d="M13.09 2.182v6.545h6.546" stroke="#222" stroke-width="2" stroke-linecap="round" stroke-linejoin="round"/>
</svg><svg fill="none" viewBox="0 0 24 24" id="home" xmlns="http://www.w3.org/2000/svg">
    <path clip-rule="evenodd" d="m3 9 9-7 9 7v11a2 2 0 0 1-2 2H5a2 2 0 0 1-2-2V9Z" stroke="#222" stroke-width="2" stroke-linecap="round" stroke-linejoin="round"/>
    <path d="M9 22V12h6v10" stroke="#222" stroke-width="2" stroke-linecap="round" stroke-linejoin="round"/>
</svg><svg fill="none" viewBox="0 0 24 24" id="info" xmlns="http://www.w3.org/2000/svg">
    <path clip-rule="evenodd" d="M12 22c5.523 0 10-4.477 10-10S17.523 2 12 2 2 6.477 2 12s4.477 10 10 10Z" stroke="#222" stroke-width="2" stroke-linecap="round" stroke-linejoin="round"/>
    <path d="M12 16v-4" stroke="#222" stroke-width="2" stroke-linecap="round" stroke-linejoin="round"/>
    <circle cx="12" cy="8" r="1" fill="#222"/>
</svg><svg fill="none" viewBox="0 0 24 24" id="mail" xmlns="http://www.w3.org/2000/svg">
    <path clip-rule="evenodd" d="M4 4h16c1.1 0 2 .9 2 2v12c0 1.1-.9 2-2 2H4c-1.1 0-2-.9-2-2V6c0-1.1.9-2 2-2Z" stroke="#222" stroke-width="2" stroke-linecap="round" stroke-linejoin="round"/>
    <path d="m22 6-10 7L2 6" stroke="#222" stroke-width="2" stroke-linecap="round" stroke-linejoin="round"/>
</svg><svg fill="none" viewBox="0 0 24 24" id="map" xmlns="http://www.w3.org/2000/svg">
    <path clip-rule="evenodd" d="M1 6v16l7-4 8 4 7-4V2l-7 4-8-4-7 4v0Z" stroke="#222" stroke-width="2" stroke-linecap="round" stroke-linejoin="round"/>
    <path d="M8 2v16M16 6v16" stroke="#222" stroke-width="2" stroke-linecap="round" stroke-linejoin="round"/>
</svg><svg fill="none" viewBox="0 0 24 24" id="map-pin" xmlns="http://www.w3.org/2000/svg">
    <path clip-rule="evenodd" d="M21 10c0 7-9 13-9 13s-9-6-9-13a9 9 0 0 1 18 0v0Z" stroke="#222" stroke-width="2" stroke-linecap="round" stroke-linejoin="round"/>
    <path clip-rule="evenodd" d="M12 13a3 3 0 1 0 0-6 3 3 0 0 0 0 6Z" stroke="#222" stroke-width="2" stroke-linecap="round" stroke-linejoin="round"/>
</svg><svg fill="none" viewBox="0 0 24 24" id="paperclip" xmlns="http://www.w3.org/2000/svg">
    <path d="m21.438 11.662-9.19 9.19a6.003 6.003 0 1 1-8.49-8.49l9.19-9.19a4.002 4.002 0 0 1 5.66 5.66l-9.2 9.19a2.001 2.001 0 1 1-2.83-2.83l8.49-8.48" stroke="#222" stroke-width="2" stroke-linecap="round" stroke-linejoin="round"/>
</svg><svg fill="none" viewBox="0 0 24 24" id="phone" xmlns="http://www.w3.org/2000/svg">
    <path clip-rule="evenodd" d="M21 16.92v3a2 2 0 0 1-2.18 2 19.791 19.791 0 0 1-8.63-3.07 19.5 19.5 0 0 1-6-6 19.79 19.79 0 0 1-3.07-8.67A2 2 0 0 1 3.11 2h3a2 2 0 0 1 2 1.72c.127.96.362 1.903.7 2.81a2 2 0 0 1-.45 2.11L7.09 9.91a16 16 0 0 0 6 6l1.27-1.27a2 2 0 0 1 2.11-.45c.908.339 1.85.574 2.81.7A2 2 0 0 1 21 16.92Z" stroke="#222" stroke-width="2" stroke-linecap="round" stroke-linejoin="round"/>
</svg><svg fill="none" viewBox="0 0 24 25" id="search" xmlns="http://www.w3.org/2000/svg">
    <path fill-rule="evenodd" clip-rule="evenodd" d="M14.95 10.788a4 4 0 1 1-8 0 4 4 0 0 1 8 0Zm-1.247 5.332a6 6 0 1 1 1.595-1.198l3.559 3.559a1 1 0 0 1-1.414 1.414l-3.6-3.6a1.005 1.005 0 0 1-.14-.175Z" fill="#222"/>
</svg></svg>