<svg width="64" height="64" viewBox="0 0 64 64" fill="none" xmlns="http://www.w3.org/2000/svg">
<g clip-path="url(#clip0_2060_7836)">
<path d="M62.9333 50.9336C63.2162 50.9336 63.4875 50.8212 63.6876 50.6212C63.8876 50.4211 64 50.1498 64 49.8669V44.5336C64 44.2507 63.8876 43.9794 63.6876 43.7793C63.4875 43.5793 63.2162 43.4669 62.9333 43.4669H58.5813C58.3251 41.6914 57.4381 40.0674 56.0826 38.8922C54.7272 37.717 52.994 37.069 51.2 37.0669H35.1072C34.3851 26.8269 28.48 18.9336 21.3333 18.9336H13.8667C6.21867 18.9336 0 28.0216 0 39.2003C0 47.1437 3.14773 54.012 7.7088 57.3336H0V59.4669H64V57.3336H50.1333V50.9336H62.9333ZM61.8667 48.8003H22.4V45.6003H61.8667V48.8003ZM21.3333 57.3336C17.92 57.3336 14.8587 55.0605 12.7136 51.4616L16.7403 47.4349C17.8955 49.6024 19.52 50.9336 21.3333 50.9336H30.2613C28.032 54.9763 24.7787 57.3336 21.3333 57.3336ZM26.6667 43.4669C26.491 43.4693 26.3156 43.4514 26.144 43.4136C25.368 43.2863 24.6662 42.8769 24.1735 42.264C23.6807 41.6511 23.4316 40.8778 23.4739 40.0926C23.5162 39.3073 23.8469 38.5653 24.4027 38.0088C24.9585 37.4524 25.7001 37.1208 26.4853 37.0776C26.5173 37.0776 26.6347 37.0669 26.6667 37.0669C27.5154 37.0669 28.3293 37.4041 28.9294 38.0042C29.5295 38.6043 29.8667 39.4182 29.8667 40.2669C29.8667 41.1156 29.5295 41.9296 28.9294 42.5297C28.3293 43.1298 27.5154 43.4669 26.6667 43.4669ZM21.3333 40.2669C21.3355 41.423 21.7153 42.5466 22.4149 43.4669H21.3333C21.0504 43.4669 20.7791 43.5793 20.5791 43.7793C20.379 43.9794 20.2667 44.2507 20.2667 44.5336V48.4483C18.6027 47.3709 17.0667 43.8723 17.0667 39.2003C17.0667 33.5469 19.3173 29.6003 21.3333 29.6003C22.912 29.6003 24.4587 31.8723 25.184 35.1469C25.216 35.1363 25.248 35.1363 25.28 35.1256C24.1478 35.4284 23.1473 36.0965 22.4337 37.0261C21.72 37.9557 21.3332 39.095 21.3333 40.2669ZM56.4267 43.4669H32V39.2003H51.2C52.4291 39.2016 53.6201 39.6267 54.5722 40.404C55.5243 41.1812 56.1793 42.263 56.4267 43.4669ZM32.9813 37.0669H30.9333C30.9259 37.0669 30.9184 37.0669 30.9109 37.0669C30.4855 36.4959 29.9486 36.0171 29.3327 35.6596C28.7168 35.3021 28.0349 35.0733 27.328 34.9869C26.4107 30.3896 24.096 27.4669 21.3333 27.4669C17.7493 27.4669 14.9333 32.6189 14.9333 39.2003C14.917 41.2717 15.2266 43.3328 15.8507 45.308L11.6779 49.4808C10.2768 46.2361 9.56902 42.7344 9.6 39.2003C9.6 29.2056 14.8587 21.0669 21.3333 21.0669C27.3173 21.0669 32.2987 28.0109 32.9813 37.0669ZM13.8667 21.0669H15.1755C10.6144 24.3885 7.46667 31.2568 7.46667 39.2003C7.44492 42.8603 8.15803 46.4875 9.56373 49.8669H4.39893C2.8719 46.5201 2.09848 42.8788 2.13333 39.2003C2.13333 29.2056 7.392 21.0669 13.8667 21.0669ZM13.8667 57.3336C10.6251 57.3336 7.68853 55.292 5.56373 52.0003H10.5931C11.7199 54.0877 13.2845 55.907 15.1797 57.3336H13.8667ZM32.6485 50.9336H35.2V57.3336H27.5445C29.7444 55.6505 31.4971 53.4528 32.6485 50.9336ZM48 57.3336H37.3333V50.9336H48V57.3336Z" fill="#FAFAF9"/>
<path d="M23.4669 23.2H19.2002V25.3333H23.4669V23.2Z" fill="#FAFAF9"/>
<path d="M13.8665 38.1338H10.6665V40.2671H13.8665V38.1338Z" fill="#FAFAF9"/>
<path d="M45.8668 53.0664H39.4668V55.1997H45.8668V53.0664Z" fill="#FAFAF9"/>
<path d="M63.9998 15.7333H59.7331V7.2C59.7331 6.35131 59.396 5.53737 58.7959 4.93726C58.1958 4.33714 57.3818 4 56.5331 4H36.2665C35.4178 4 34.6038 4.33714 34.0037 4.93726C33.4036 5.53737 33.0665 6.35131 33.0665 7.2V12.5333H28.7998V14.6667H33.0665V22.1333C33.0665 22.982 33.4036 23.796 34.0037 24.3961C34.6038 24.9962 35.4178 25.3333 36.2665 25.3333H56.5331C57.3818 25.3333 58.1958 24.9962 58.7959 24.3961C59.396 23.796 59.7331 22.982 59.7331 22.1333V17.8667H63.9998V15.7333ZM35.1998 7.2C35.1998 6.9171 35.3122 6.64579 35.5122 6.44575C35.7123 6.24571 35.9836 6.13333 36.2665 6.13333H56.5331C56.816 6.13333 57.0873 6.24571 57.2874 6.44575C57.4874 6.64579 57.5998 6.9171 57.5998 7.2V15.7333H57.1923L55.3598 12.0565C55.2656 11.8675 55.1174 11.7108 54.934 11.6061C54.7506 11.5014 54.5402 11.4535 54.3296 11.4684C54.1189 11.4834 53.9175 11.5606 53.7507 11.6901C53.584 11.8197 53.4594 11.9958 53.3929 12.1963L51.9465 16.5269L51.0227 15.1403C50.925 14.9941 50.7926 14.8744 50.6374 14.7918C50.4822 14.7092 50.309 14.6662 50.1331 14.6667H48.7219L46.8574 10.0032C46.772 9.78981 46.6199 9.60974 46.4238 9.48979C46.2277 9.36984 45.9981 9.31645 45.7692 9.33755C45.5404 9.35865 45.3244 9.45312 45.1536 9.6069C44.9827 9.76067 44.8661 9.96552 44.8211 10.1909L43.5731 16.4267L41.5625 9.0528C41.5009 8.82698 41.3668 8.62768 41.1808 8.48562C40.9948 8.34356 40.7672 8.26662 40.5331 8.26667H40.5214C40.2856 8.26927 40.0574 8.34992 39.8723 8.49602C39.6872 8.64211 39.5558 8.84541 39.4985 9.07413L38.0649 14.8107L37.2265 13.1232C37.1375 12.9451 37.0004 12.7954 36.8307 12.6912C36.6611 12.5869 36.4656 12.5322 36.2665 12.5333H35.1998V7.2ZM57.5998 22.1333C57.5998 22.4162 57.4874 22.6875 57.2874 22.8876C57.0873 23.0876 56.816 23.2 56.5331 23.2H36.2665C35.9836 23.2 35.7123 23.0876 35.5122 22.8876C35.3122 22.6875 35.1998 22.4162 35.1998 22.1333V14.6667H35.6073L37.4398 18.3435C37.5368 18.5386 37.6912 18.6994 37.8823 18.8041C38.0735 18.9089 38.2921 18.9525 38.5087 18.9293C38.7254 18.9061 38.9298 18.817 39.0943 18.6741C39.2589 18.5313 39.3757 18.3414 39.4291 18.1301L40.5726 13.5563L42.6985 21.3515C42.7611 21.5774 42.8963 21.7764 43.0833 21.9177C43.2704 22.059 43.4987 22.1348 43.7331 22.1333H43.7694C44.009 22.1252 44.2389 22.0366 44.422 21.8818C44.6051 21.7269 44.7307 21.5149 44.7785 21.28L46.2089 14.1333L47.0089 16.1355C47.089 16.3324 47.2262 16.5008 47.4027 16.6192C47.5793 16.7376 47.7872 16.8006 47.9998 16.8H49.5625L51.3758 19.5253C51.4866 19.6915 51.6418 19.8233 51.8238 19.9056C52.0058 19.9879 52.2073 20.0175 52.4053 19.9909C52.6032 19.9644 52.7898 19.8827 52.9436 19.7554C53.0975 19.628 53.2125 19.4599 53.2755 19.2704L54.5939 15.3131L55.5753 17.2768C55.6641 17.4546 55.8009 17.604 55.9701 17.7083C56.1394 17.8125 56.3344 17.8674 56.5331 17.8667H57.5998V22.1333Z" fill="#FAFAF9"/>
</g>
<defs>
<clipPath id="clip0_2060_7836">
<rect width="64" height="64" fill="white"/>
</clipPath>
</defs>
</svg>
