<svg width="36" height="36" viewBox="0 0 36 36" fill="none" xmlns="http://www.w3.org/2000/svg">
<path fill-rule="evenodd" clip-rule="evenodd" d="M31.4078 25.4054V29.7805C31.4111 30.6017 31.0681 31.3863 30.4629 31.9415C29.8578 32.4967 29.0466 32.771 28.2286 32.6971C23.7411 32.2095 19.4305 30.6761 15.6432 28.22C12.1196 25.981 9.13226 22.9936 6.89323 19.47C4.42861 15.6655 2.89483 11.334 2.41614 6.82628C2.34246 6.01089 2.61487 5.20207 3.16684 4.5974C3.71881 3.99273 4.49951 3.64789 5.31823 3.64712H9.69323C11.1572 3.63271 12.405 4.70582 12.6099 6.15545C12.7946 7.55555 13.137 8.93026 13.6307 10.2534C14.0314 11.3192 13.7751 12.5208 12.9745 13.3304L11.1224 15.1825C13.1984 18.8335 16.2214 21.8565 19.8724 23.9325L21.7245 22.0805C22.5341 21.2798 23.7357 21.0235 24.8016 21.4242C26.1247 21.9179 27.4994 22.2604 28.8995 22.445C30.3659 22.6519 31.4446 23.9249 31.4078 25.4054Z" stroke="white" stroke-width="2" stroke-linecap="round" stroke-linejoin="round"/>
</svg>
