<svg width="64" height="64" viewBox="0 0 64 64" fill="none" xmlns="http://www.w3.org/2000/svg">
<path d="M32 61.3332L31.7227 61.7492C31.8906 61.8612 32.1094 61.8612 32.2773 61.7492L32 61.3332ZM32 61.3332C32.2773 61.7492 32.2776 61.7491 32.2778 61.7489L32.2789 61.7482L32.2826 61.7457L32.2965 61.7363L32.3498 61.7003C32.3964 61.6687 32.465 61.6217 32.5542 61.56C32.7326 61.4365 32.9931 61.2536 33.324 61.0146C33.9858 60.5366 34.9296 59.8339 36.0615 58.9326C38.3243 57.1307 41.3428 54.5317 44.363 51.3437C50.3829 44.9894 56.5 36.2008 56.5 26.6665C56.5 13.1355 45.531 2.1665 32 2.1665C18.469 2.1665 7.5 13.1355 7.5 26.6665C7.5 36.2008 13.6171 44.9894 19.637 51.3437C22.6572 54.5317 25.6757 57.1307 27.9385 58.9326C29.0704 59.8339 30.0142 60.5366 30.676 61.0146C31.0069 61.2536 31.2674 61.4365 31.4458 61.56C31.535 61.6217 31.6036 61.6687 31.6502 61.7003L31.7035 61.7363L31.7174 61.7457L31.7211 61.7482L31.7222 61.7489C31.7224 61.7491 31.7227 61.7492 32 61.3332Z" fill="white" stroke="#81AA9D" stroke-linecap="round" stroke-linejoin="round"/>
<path d="M38.7868 37.7689L39.5975 42.0396C39.6595 42.3669 39.9462 42.6044 40.2799 42.6044H44.8531C45.2916 42.6044 45.621 42.2022 45.5333 41.7721L41.9055 24.4072L30.4617 31.8573C30.4617 31.8573 30.0938 33.8599 29.8799 35.4047C33.1034 32.4521 38.1879 33.7166 38.7868 37.7711V37.7689Z" fill="#D30A21"/>
<path d="M40.7986 22.3621L40.2831 19.7603C40.1526 19.1227 39.5922 18.667 38.9419 18.667H26.3837C25.7227 18.667 25.1558 19.1398 25.0382 19.7903L22.1569 35.9634C22.127 36.1346 22.035 36.2886 21.8981 36.3956L18.9355 38.6678C18.7644 38.8026 18.666 39.0059 18.666 39.2241V41.8965C18.666 42.2859 18.9826 42.6025 19.3719 42.6025H22.8649C25.4917 42.6025 27.3248 40.878 27.7419 38.5095L30.0136 25.6356C30.1227 24.9745 30.6938 24.4909 31.3633 24.4909H34.3131C34.9719 24.4909 35.5366 24.9595 35.6585 25.6078L35.8489 26.7054L40.3109 23.7079C40.7152 23.3869 40.9056 22.8649 40.8029 22.3599L40.7986 22.3621Z" fill="#005339"/>
<path d="M37.6173 42.468C37.6173 42.468 32.4515 43.7603 30.5371 42.0101C29.0355 40.6365 29.0162 38.4199 30.3574 36.8751C32.0173 34.9645 36.4494 35.1164 36.9392 38.2145C37.4119 41.1928 37.6151 42.468 37.6151 42.468H37.6173Z" fill="#D30A21"/>
</svg>
