<svg width="38" height="39" viewBox="0 0 38 39" fill="none" xmlns="http://www.w3.org/2000/svg">
<!--<g clip-path="url(#clip0_1011_9747)">-->
<path d="M19.2584 20.1575C18.893 20.1575 18.5967 19.8612 18.5967 19.4957C18.5967 19.1303 18.893 18.834 19.2584 18.834" stroke-width="1.63608" stroke-linecap="round" stroke-linejoin="round"/>
<path d="M19.2585 20.1575C19.624 20.1575 19.9203 19.8612 19.9203 19.4957C19.9203 19.1303 19.624 18.834 19.2585 18.834" stroke-width="1.63608" stroke-linecap="round" stroke-linejoin="round"/>
<path d="M11.9804 20.1575C11.6149 20.1575 11.3186 19.8612 11.3186 19.4957C11.3186 19.1303 11.6149 18.834 11.9804 18.834" stroke-width="1.63608" stroke-linecap="round" stroke-linejoin="round"/>
<path d="M11.9805 20.1575C12.3459 20.1575 12.6422 19.8612 12.6422 19.4957C12.6422 19.1303 12.3459 18.834 11.9805 18.834" stroke-width="1.63608" stroke-linecap="round" stroke-linejoin="round"/>
<path d="M26.5375 20.1575C26.172 20.1575 25.8757 19.8612 25.8757 19.4957C25.8757 19.1303 26.172 18.834 26.5375 18.834" stroke-width="1.63608" stroke-linecap="round" stroke-linejoin="round"/>
<path d="M26.5376 20.1575C26.9031 20.1575 27.1995 19.8612 27.1995 19.4957C27.1995 19.1303 26.9031 18.834 26.5376 18.834" stroke-width="1.63608" stroke-linecap="round" stroke-linejoin="round"/>
<path d="M19.249 2.4502C16.1657 2.45116 13.1403 3.28843 10.4951 4.87284C7.85001 6.45727 5.68416 8.72948 4.22827 11.4475C2.77239 14.1655 2.081 17.2275 2.22775 20.3073C2.37449 23.3872 3.35388 26.3696 5.06159 28.9368L2.20312 36.5421L11.775 34.8112C14.0799 35.9375 16.6093 36.5291 19.1747 36.5418C21.74 36.5545 24.2751 35.988 26.591 34.8845C28.9069 33.7812 30.9441 32.1691 32.5501 30.1687C34.1563 28.1686 35.2906 25.8315 35.8676 23.332C36.445 20.8324 36.4508 18.2347 35.8843 15.7327C35.3178 13.2306 34.1942 10.8887 32.5967 8.88139C30.9992 6.8741 28.9691 5.25331 26.6581 4.13977C24.347 3.02622 21.8144 2.44868 19.249 2.4502Z" stroke-width="1.63608" stroke-linecap="round" stroke-linejoin="round"/>
<!--</g>-->
<defs>
<clipPath id="clip0_1011_9747">
<rect width="37.0588" height="37.0588" transform="translate(0.723633 0.966309)"/>
</clipPath>
</defs>
</svg>
