<svg width="24" height="25" viewBox="0 0 24 25" fill="none" xmlns="http://www.w3.org/2000/svg">
<path fill-rule="evenodd" clip-rule="evenodd" d="M14.95 10.788C14.95 12.9971 13.1591 14.788 10.95 14.788C8.74081 14.788 6.94995 12.9971 6.94995 10.788C6.94995 8.57882 8.74081 6.78796 10.95 6.78796C13.1591 6.78796 14.95 8.57882 14.95 10.788ZM13.7031 16.1204C12.8785 16.547 11.9424 16.788 10.95 16.788C7.63624 16.788 4.94995 14.1017 4.94995 10.788C4.94995 7.47426 7.63624 4.78796 10.95 4.78796C14.2637 4.78796 16.95 7.47426 16.95 10.788C16.95 12.3904 16.3218 13.8461 15.2983 14.9223L18.8569 18.4809C19.2474 18.8714 19.2474 19.5045 18.8569 19.8951C18.4663 20.2856 17.8332 20.2856 17.4426 19.8951L13.8426 16.2951C13.7887 16.2411 13.7421 16.1824 13.7031 16.1204Z" fill="#222222"/>
</svg>
